<mxfile host="65bd71144e">
    <diagram id="LbE9PppjevmL19wuLY-l" name="第 1 页">
        <mxGraphModel dx="1784" dy="2268" grid="1" gridSize="10" guides="1" tooltips="1" connect="1" arrows="1" fold="1" page="1" pageScale="1" pageWidth="1200" pageHeight="1920" background="#FFFFFF" math="0" shadow="0">
            <root>
                <mxCell id="0"/>
                <mxCell id="1" parent="0"/>
                <mxCell id="2" value="" style="shape=image;verticalLabelPosition=bottom;labelBackgroundColor=#ffffff;verticalAlign=top;aspect=fixed;imageAspect=0;image=data:image/png,iVBORw0KGgoAAAANSUhEUgAAAYUAAAIICAYAAACB5fLTAAAgAElEQVR4Xux9B5xU1fX/d2b7wsLSmyBNsTeKBQVBpYsapdnFiKT/EmOaGo0mpquJSf4RBGsUwcSGDRAVkaZi7xTpCixld2HblP/ne+678968ndl9MzszO49912x2mbn13HvP95xzzz3XFw6Hw/BSVlCAU+Hz+aL6EuuzVHY22fqTLce+N6VsKsfu1eVRwKNAfQr4PFBI/7LYunUrDjvssEhDwWAQfr+/HgDU1tYiPz8/ku/rr79GmzZtUFxc3GAnWV95eTnatWvXYL6KigqUlJRE5Vm3bh369+8fs1woFMKuXbvQpUuXmN9//vnnGDBggMfkU7yEPNBMMUG96hKigAcKCZErscxfffUVevbsifvvvx/Tpk3DRx99hDPOOAPvvfce1q5dG2GodXV1yM3NxZtvvolf/OIXYLkOHTpIHv7mT2lpKYqKiqQDZNQEkB49eoDAwfTggw9ixowZWL9+PQYPHiyfLVq0CK1btxbAYNtHH300zj33XGmrrKwMOTk5Utc777yDMWPG4NNPP8XQoUPx1ltv4cgjjwQBY8eOHfjggw9w3XXXoXPnznjxxRfRqVMnnHDCCfjpT3+KU089FRMmTEDbtm3x2muv4eOPP8axxx6LnTt3Sv+eeOIJ/P3vf5dyJ598soyBYLNt2zYcd9xxiRE0g7lffvlldOzYUVokrU488cQIOBLkOY558+bhe9/7ntCX4M20adMmoY/W+Dg/ffr0ier53XffjR//+MdRnxGwOaesa//+/fjwww9x8cUXi0DA9r/88kucdtppWLVqlcwj27cKEBkkjdfUIU4BDxTSOMHLly8XRkLmTAYzbNgwdOvWTUBh9+7dwkj576qqKvTq1Qv33XcffvjDH+L1118XpvzFF1+gffv2wmTIBJifiWBx1FFHCcPYvn07nn32WRBYyGRZjsyYadasWbjsssvQqlWryCgphZIBsQ/HHHMMampqBCQCgYDUwfbY33379kkfzz//fFRXV0udbI/Mip9T0yHDv+aaawSYvvWtb0l/CQasj3Wxj3PnzhXwYJk9e/YIyJC5vfLKK/L3j370ozTOQPJV33zzzTjrrLMijH7s2LEC8EzXX389br/9dvzzn/8UIOY4NBATnEkL0kCD9Xe/+1188803Atj6s6uvvhoElyOOOELAkmBAzWvjxo0YPXo0tmzZEgHNBx54QNYO5+qTTz6ROeacEmw4D17yKJBKCnigkEpqWuqiJMwNzvTUU0/hoosuEglw5MiRsvkPHDiA7t27i0SppUBu/kmTJuGNN96QTU9mQ1ChtE8t4mc/+5nkX7FihTAJfk9GTAlzyZIlwkw2b94sQEAp8ve//z0OHjwozCMvL0/y3HXXXfI32yQDp7ZA8xElfJZhHdQc2D/2g8yODOv0008X4Hj++ecFnKhZUAOaOXOmaBJkoBwv+0ltiO1SeuZY+d1LL70kdRLE+D3rYF0///nP0zQDTauWczFx4sSIxE8mffzxx8sc3njjjfLz5JNP4jvf+Q5ovtPAThCk5kS6cq4InMxjTb/97W9x0003CfBqkx+1s/fff18AmGUJnAQLzgvXEueZ9RKUOU8UAPT6adpIvdIeBaIp4IFCAiuCJ/LRx8DxC2/YsAEFBQVibyfzvPbaa4W5ktmTGZBBFhYWCqMhwySTf+Shh/GDH/1QzEdkBDSz9OvbVyTs6poaDBo0CDRrMC81BzIoSv2s7+mnnwalT0qTlECHDx+O//znPxg/fjzWrFkjTItaCZk8TUY0DbF+MueHH34Y/fr1EwbPRFDo3bu3ML2+fftKnWeeeaYwv/nz54t5iAzp1VdflfFQkznvvPMkP7UJ/tDEQan5iiuukLwEjsMPP1xMTOw/tR3+fccdd9iIqP0enFI6gQlMIOvChQtl/qjBUXMiQyZNOBcEZWp+1HaoNaxcuVLGRBMfQWHcuHHC2Dn3pAk1BSbOE+eVQMl5IEDS/MakAZUmOmoC1P6uvPJKoTmB5cILL8Tjjz8uGhjb4RnV2LFjpB3nqzIBAnhZWywFPFBIYOoTAQUyD5pimGgWIvPQiaYbggKZDiVFSn+09T8wZ66AAs1Op5xyikiOoWAImzdvwiWTJon0TUZChmtNZDaPPvoovv/970d9/q9//UsY0nPPPYe3334bt9xyizAR2r21JEtployGiYyG2sOyZcvkHENL9WRM1CYIapRY+TfBhIyTdWlpmUyLZxJkpGT6/De1Akrcd955p2guzzzzDEaMGCEMlfn4Q1AxU/OBgj7gpVZAyZ3zQ+bPPlNyJ7MnQJKuZNgEPYIvzX1aiyMQT5kyJWI+ogmPJiZqc/yhGWn27NmiIRGU2SbbILBwHdARgIBBEKeGR82PGh7NeARVluWcsU4gDLUmmxdAE9hCXlYXUMADhQxMUjxQIANlohmI2gKZMzc7AYPMlyYeAgC1CSYyK5pk9NmC7nosUCBTI4Ph4TGZOE0/POwl2FASJUhQ02CitkFGQ9PFBRdcIODAdv76178KaJFxsa5zzjkn0gdKtrSx0wREc8Yll1widRAMyeTIPP/9738LIFBDWbx4sZw/kBasm3XyAJX90XTIwFQ4boKSOk1kHA+ZPx0AmMjUKc0TIHmuQHPfkCFDxLbPMf3jH/+QMWnvstWrV8u5CbUqnh8QoCdPniz1ch5feOEF0aYILPp8gPSidkfzEROFBJr1OD9cK9Ty6LhA0PIOmx1PqZfRIQU8ULDJqJmSuRJ2O0xETXE4+fGyJdy3JraXbcUJvjwYJ1MmcBH4qBloutB8RDMQz4n0gbIeAzUgakKawRPsCS5k6GTgCxYsEG2MWh+lfx720zOMmhnrJwBR8+LfBHRqKKyLh/nUHFkXz4Voops6daqYkrzkUSCVFHA1KFhv3dlv4GnmbmXyIYNy8fLya+bnj+bB/G3Pb+XPOr+eFJ03Vjlr/fpva372j74k2iig62Qbdh8Ta/32/rCc/iyx8Yfht5girH3T/dV1q+/CEdOFppm1z7Hmx9ofe5lULexEgV3nN8drjit6Xk1jjb2NeGsx1jrUNLSvGSuN7X/HWl92elnbauhGqvU76/p1UiaR8djnOtZ4G9uLqVoTXj3OKeAyUDDZn2aKAYRRgwDqoFm+Yuo58KEIecg12FYAIdQgiDqEERS2q5Yj7bHqP5YBipCLXIMFM8+BqLqjWQH/VQA/CpAj7bFG3U5tpD+qjG6P+ZifP2T07DX7Xo2glLUzKP6b/VHtsIRP+s9xVCMgf1sTe6FAxI9iy/hDkp/jD4E0syseBAPSqhA58lu1w75xTKqfGpj4dwC1MuJ85EgrrI+f63mx9oqfq+8CUjPrZzmdV39vHYeqj70OSrv5yIvQRrdjB3mzTECoSxpzZiV/GAgbxFXAC/jCas5zfRqMVT85bl1GN6rHw7JSxnK8y7y1FuHBznRZhvmtwK5oaNIsMvawIZj4gDxbmUAYCPmAkDF5dobKfukf1qfHwvFYJ1zTXdZ8GMiLMf6gbRD6n0IzX/T4WT3Hb+0X6e036K3mXPVNJ/ZJj78euBl98o7QnTPyVOZ0GSgo1qQXNRliGarw2vur8PX+MmEA/jClXaAwnIsJQ0aiY3Fb2dcEjuWfvY11X29FnZ+bi8wzjHBYQUIOD/xat8WEgSOEmbJMECE88tqzqPQFhKHwh5tCS3HM06d1Z5xzylBhQPyqEnV49o1F2Buqkt0tjMiywXJDwEm9BuDUvsfLJuGINpfvxCvvrcKBcK0qYzk+FOAJ+nDOoKHoXdJJmH0twvhs+0as+OJdGYtm8GyL4/eFw8gL+XDhqaNk/KQHAee9bZ/jnS8/Qa0/LMzFL637hAbsS9v8Vhh18lB0KmgjdR6oBZ5a8ga27dmHsC8sP/AFkd/Kh6JSdjSA3m274aQjB+KNZWsRCIYQ9Pmwa99e1IW57Q29xx9AcWk+8ooD0maPtl3Qv31fvPfBlwj6cgSkdu3fh5CUUQQL+oMo7VwAX24tckNhDDnyFNRUAuvWbUEIOThYW4V9lZUIcfzCfMitAmjTMR++vDr4wz6MOeVsbN7wNTZv240Q/CgP1iAn7Efr3EIBm5ywD906lODs004QBswxHwwAz738KmoNlixTx3HLOgnBFw6hd48uGHryAGN0CjifWrQa1XJgrwCVtPJJGa7HOhzfvyeOG9AvIghs37kHy9/5GLUhv/Sf/Y0wXgOSx599KkpbmTfcP9/0Dd758HMEfbnSJwX/0pqgXm44gFHDz0DHEpZREPzuJ+vx6cbtXOERwYQluP4JCO1aFWDE6SejVYFi2TUh4NVV72LX3gPmXrOMhePv2rEUI07j+lUrj7P2xMJlCPhyZPgct+wvY/zcSUcc1hGDTzxG1hl7vb8qgMVvrkFljarDJ/uaa4zl/Tj3tGPRrUNryW8XYFLJAL266lPAZaBg8lculGqE8Oi6JXht1XIc2b0vCoI58FNCCQNFoRxcctY4dGpdKouwFgEs/XAlPtu2CQGCgmxWc2Nxg3QqKcUlZ4wVbYFlQuEQ7nt5Pg74lB4iC9agoV7wfdt0xbjTR6DQkJYrUYsnFj2LfeEqBV4Sy4ibVvU9LwQM7nsMhg44WaTZUDgsoPD86tdwQOT/CIuXzc528oM+jD/zHPRu00VAgb35ePOXeO3jtxDI4UiiO8fx5wV9mDpsPDq1bieMqA5BvLP5U6z6+D3UGaCgO8UDYjKldgWtMeG0EehU2FY2+nsb9+DfD89Hx66dkeNT44EvhMISP4rb+QFfAH1Le2DwMadh0eIVCAQJNj7sLNst7SFMhsfPAmjTvhB5rQMCWj3bdcNRnY7AmrWfiB5QFw5h5769CIYJ84o5hv0BdOhaDF9uHXLDYZxx7BABhU8/2SAM/kD1QQEFgpACK058HUo7F8OfXyfAeOHpo7H+i+3YsPlrBHw+vLnrK5T6C3B8h8PgD5HBh9GzcylGDx9igkId8MTTL6KWjFf6r2VuNff+cAj9enXFiFNPjAKFx555FVV1ZMOmZqj+DsMfDuCUo/vi5OMUkHAtbdm+C0tXvosaQ30hI+RMqrkgBYK4ZOwItGudr8qEgU82bsPKdz5EkHK3AVQRQKQ0Hq7DhaPPQac2BbJKKYmvfu8zfLhus6x2nbimwj6OH+hYUoTRZ5+G1oXqsh1B4aVXV+CbPZWqjCGksH8yFoTQvXMHjBk+MCL5c63MXfAigr48mT8l7FDrlcICpkf17oyhg0+KgMK+gzVY+MpyVNSo9ct1rTSbPHy6bjuGHN0dUy8YBo4kWj/32Hi6KeA6UFAyoWLmBxHEgxsXo2zHN7jsjIvQBtxASjqjyUWZj5QcwqV3EHUilWrzidomasmxHEGilZQxNlAYqPDVodYw0nDxajOR3vA0t8QyH9FUpXUKxejV0qd0xTIEEV0HJf8qw0yleq9KKGORMh/R3ELzkR4LgYFllClM5VN6lKqBgFNsmMIUa+L4lZlNl9EQy5Frs442n5GhvLtxH5aveguXTT0PhRZAVJu3xjAf5UbMR+yH3bRjyPDSx6Bhcsozxq/NRqZ5yQR9ZRrS5qMwCoReppZobUtvEvUZ/6uT8RSjQH5Tfq8GcOfrj6N3cSdcM/hcERxkzIYpREmkYWFlHLvV5GLCtJoT5qVmQemcTFybj2hyicgAhlbJfzdmPtFzrfQ2Qxv10WQWbXLS/SJmsF7+FjoZbWjTkbB3w9SkTYAilGhzjvG33Xym50raMYQYg69rDIqMRZvPtCJco2mmFSv+Nr7kL22i0tCkzUf8baUv//3hJ9vROi+EY484TPav7pcHDumGA4NjuS8gnlKygwYoPPTVIpRv2Y2ZZ01FG+RF2W0jUr3F1q0XmNpLClyUwq/ZdjThNZOLSFm2RarLWuu1/21lWtrmr8FIt6thQ//bhCsNLdESk85v7a1VzbaOXecxT12ix2hSwWyDjHTtxn1YvXIlpl86FgzJZ92Uin1aj6XNOrUZxK72x+pfLFrp8tr2b86VCfBOfPN1fznugwjh5uWz0L+oK64feKEwG90fc/51y3oWtNSv14cqUW/OhUvr+uyagkkXszbmtf7LcshhuXWg+29lmpHaNDLUM6+oFa09pfSI7IzVPjfW9W0tYy1npY6dQVvXo5V6jc25Kmf0OUq40YY4DxQyAwWWdeo+UFCd50Y/gCAe+moxKjbvxHeGaVCIXq5qISuxxxqWOrJpRNpTUpf+3rr4G54QnkkYEpFkNDejvZxTN8+Y4bONyhKSlOLt+ghCRXU8iomwKKXFdzbux1srV+DaeqDgnEJ2+DEhLtGlrvSgZBI1oyoEcfPy2ehX1AUzB35LSfpJJXPs0VRIrn+xKEmTItdiQvOd1FgaYrjRPYvVz2RXQWQJGntTGQzNuXW6V5owZK9oAxRwpfnICgoPb1qM/ZsUKLQVQ0t8xhGfT8bb6Cr2v7B72zsH8bdT45vJuilib/wGtpsxiPKKCmw0AqzZJbvGVjz93hm+gjGVwmGlP/h8lk1pmFyoKaxZsQLXXjYOjM+aHEturDfOv69PWWdsU2kKAdz85mz0K+yKmQMvioBCw/Mbu2+bNn2FvXv3Oe+4JSdDm/ASmwpP4eRGclNZbxLdNNaYveXU9sSy52zviFi1B6u2JOs0ieF4RRKjgOtBgeajis27MXPYZLQ1zhTikUCtdUN3MDQDJZXoEhaVPsaDN/XrjYYZs65Y2kr9Ba2Puc3toXoXbbSIPZpHHnlELjOdOXRoxGslKqfVDmWAmmaAX375BY477ngJ2xCLKbIPNB+9u2EvVq+i+WicmI/igUK01mXbtjI4Y4QxgTWxBWvmtkO8/reVdam/aegSUBBNwQoKicCM2R6DAzJ8SOuS1qZsEL2EzMMRw6wkDC0MvPbaq/j1rbeiQ/sOcf1q6gsv8cSZ+GJONFWd5kt0LurTWtVgXccmiervivosnhrq7vIa5PjCaFfC0zfz7CbR3nn5k6OA60Hh4Y0KFK4fPsUAhcYIYQcFdbwXZVpKciHGU3tjSViKGbNd6zF0tFtiQ854jL/DW7CMsxMrRdhA2JBGIww5LJFMy8r2SAiKeGUJCu9ZQCGepmAFFRm/PvWUivVppYUxxAGGprOtxkHhljcUKFw/SGsKiYGCNjEyICAjyLZr3y5m3KFYcKVYJSR0yFVXXYmOHa3xnpJl4U5l93gA2theaez7eKCgRxsfwuOtO3qozpn3AtoU52PyBefKYXv92hrrl/d9UyjgOlDQy5C/Kf09tu4VVGzZjetGTEFr02+oKTSJ8hd3VlF95qIXsv4muYWtj4atR5uqR42Bgr3fVsAiKOwpK8P5EyeamollCFpTeH9jGdbIQfMEFFguIzmhiWJDdqalzmCEFto1RaDDblWu30KioGHNTyrSU+v21+agT3EXXDvkwiacKUCixBIUdMBDJ/TQeRQoXGU84OOEqTecx0kN9SEnudUYpVUaBI6t1SRTP10X6CXmw+x5i9CmuABTJw5HYaTz9W+ZJ0J3L69zCrgLFCwrUDGuENbs+BQH95Rj2LFDjBusDQ0+NquKzYJM33/r7WfnpDXfIpaNGw5F2e11PQ1vau2kGH0QHgsU4jHNKEneuKy24s0V2FtWhgkEBcuZiVXWFl/6nfuwYf16nHn6wIjEZh1/wozakUnOGYUjIKeZUwN1M0sQQWyq3o2CcC66F3VwdD4SizbsXURT4POnEVfdeNZuc4ZZ39133Y2rrrwK7Tt1iLaPW5hsYiw1lrQew+GhoclqZCITneeG1ra1Lrvpkt9V8XGoeUtEU5g6cZicZSVGD2frx8sVnwLuAgXbONQBYp04RtKPXwU1aBwUnC0I+1ZIdmtYt0iix2Tx20xUUxBcMlz/ojQFw50y2kVWtWvetIgOUeCMfs2dK5p2lEP1fWPtuJzIjFrzRmsKTmR1s/Rdf70LV151FTp0tIGCQa5E+mRSOLlSTmcovbWbvVAaHXDf40tQ2oqawlkeKDidpBTmczUokA7xDSwppFIWVpUMKOhhqDOFssiZQjy2pj9XBp5EAa25iVYf1I07tpGRJMvsUmc+am4aZVf7VlBo26oA0wxQcNvKyy6qJt4b14OCDginbvK2nJRKUIhHNWX2Mm/Mupm61JKq5aY3tcqmrRQPFNKzEjQozJq3WM4Uphnmo6bNVnr6eijX6i5QsIh2yk4cxjfBcvgCYXQsUPeZW8oCSjcoyAYNhOW1sJLiAgkYGPuuRvZvD64Vnj+t3vs52viKcFxp76iInYmOwAOFRCnmLL8GhX8/sRjtihQo8KBZglC2lI3tjFRpzeUuULCQguuEoaCfWb8c+7ftxmXDJhrRTd1o6kh8jtMJCqQt/cU/3bQb77z9NqZdPMZ1gcms3layVsIB3PHq/ejdqiumn6rCXCSbPFBIlnINl1N7Gpg97yW0LSrAlAtGmOsuOnRAejrg1SoUcC0o6FuqD29Ygootu3D9cIa54I3mliFSpB4UTHFMSdbA2g1leGvlKky/dDyKjJj7btk3VlAQCTTMy2uzjHsKTQlzkUqXVLdQMzP91MLIh19uRUGuH0f26d4k1+HM9PrQa8V1oKA3uxn7SF1eU7GPPFBwskTtB81R128NLyXGGX1n4x68tXIlriUoJHhPwUk/MpUnEuai3o3m5HrgaQrJ0c1pKR2EUkcJdlrOy5caCrgOFPSwNSg8aIS5+M4wpzeaU0O45q4l9ZqCGhGlNS2xrd2wF2tWERSyI/ZRsjSPBwpOnEljtemBQrIzEa+cjuXdUL3Jzlaq+3ro1+daUKAPPW80PyhRUhn7aApKJfZRy0jpAgUNDMp85F5QsMYsjQ0KyZ9eeqCQ6j1mzAVDshjvU+g7/KYx2AOFVFM9Xn2uBAUuD73RGTq73AOFhNZLffNRdPHImQKjpErobHdpClrb0YzFBAV1pqBCZ3ugkNCiSWNm8+0HPpLqw5ebdqIgLwe9undokkNAGrt8SFftSlDgjNjPFKgpqCipLSNlRFPYWI41K9/EtdPGuu6gWWs8+je1ylve8A6as3l3qNhHwOzHF6Mtw1xcMNx1Xm/ZTF+nfXM1KDDExX/Wv4L9W3ZhxtlTjOc4W4aamSgo2APiWW802xcLKVgrUVLVQTO9j/gcp7sA19QEFLOpw5+XPYzDW3XB5QMnGC+vqbWS6LVHu/kokUdhogPiOd2mLSOfBoVZ815Bm+I8TDt/mAgjXsosBVwHCmqrqxB1fGv5k/ItCB6swTFd+xkB8ZI3C2SW9E1rLVFQsLbmxHzEDbq7oha7d+7EgH6HRR5cb1qvM1nafGRUXXQMYUPVNyj25aN7oQqI5+SJm1g99s4U0jOP+vLabAGFfAlzIZfX0tOcV2scCrgWFNR4zKBtLc19LZ2goNeKRLE03j+o/2xK9u8pu3jAG/DUCrTGk6z4EA8U4r6nYbkN7mkK8deNHRR0QDwPFDK711wHCnafeqvt2PrY2KG+kGKBwrZt29CjRw9ZQdQGDj/8cBx22GH1VpRVU9DGNgWxNtNb5J/66NZdBiT7wHUg8qaujVigYKX9nDlzcO2118bcyR4o1CeLBueGQKFlGIUzy/zjteYyUKi/NHR4Z6UpJCv7ZcdkJNKLWKDw8ccfo23btli7di2WLVuGo446Cps2bcJNN90Evg2sU31QoAStYCGiJdg601RGmsjY0pE3hDAOoE6uNxYit0lrJRYoLFiwAKeccgo+/PBDeQBp2rRpMoxrrrkmajgeKHiaQjrWdyrrdCEomC8YB8ROvBPBqhr0a38YCiKGAbezsMan2A4KDFz3xRdfoGfPnti3bx/++9//CpPy+/0YNmxYVIWxzxSiw1xQatt3MIi9e8tweI/OcjDrVqpyZDUIYd4Hi9CloBSjBpyGHPFfS07zsYPCzp07wZ8jjzxSQPhXv/oVbr/9dtTU1OCkk07yQKHR5azOfzhPfE9BvI/kPQUjIJ7lLZBGq/IyNJkCLgMFc7xqAQXxxBdLsW/LTnz7nEkokUgpbmVdic1lLE3hyy+/RF5eHnbv3i0RTauqqpCbmyuMqaCgIBLl1MlBMwPifbBhN1avfBPXXHaBuAYmx0ITG1c6cqt7CiHcumwW+hZ3xYxBfI4zeYNELE1h8eLFOOKII/DVV1+hTZs2Aszt2rXDySefLEPS5w2ephBrhk1QoNfbw08uQklRAS4ePzyyo1WOaG02HWvFq9PFAfG4pSsRxENGmIuZwyajLXLgd6GfTDILMR4otG7dGh988IEAwN69e3HiiSeKGcma4sU+0tuOeXmj+d2N+wQUJPaRy0GBa+WW5bPQv6gbZg7UbzQnBwzxQIHg+9BDD2HIkCHYsGEDJk2ahFatWnmagsMFri+l7txTgRy/Dx1LW0dEvJYh6jkkVJqzuUxTiPY9PyCg8DIqt5Th+rMmS5gL67OSaaZds1ZvBwVKoh999JE8KE8QOHDggIDCWWedhT59+jgwH0VrYQoU9mK13FMYh2IXgoJm+fzNy2s3LZ+N/nKj+SLkGeF2kpE9Y4HC3//+d4wZMwZPP/20APGuXbvwrW99C8XFpJyZPE0h/rbRLsLGs+Ha8c0AhuQAvFk3qUsbdz0oPPjVy5EoqbzRTMtkopeR3Dh3sTSFzZs3o6SkREwYBIbnnnsOAwcORL9+/RoFBfv7Ayr20X6sWbUC0y8d60pQ0IPOROyjd999FyeccAJefvllnHPOOXj44Ydx+eWXo6hIPz2veuOBQrzdpm8gqe/1etQaAt/YVvva0xnSza9cBgomOaxRUiu37MbMs7wwF04XS6wzhVig8O6GcqxeRfPRWNebj6gp3BwVOjt5T7WGLq81drvZA4VYq9R0jKZIZ/UoVOdYSodQWp0HCk73ebL5XAUK1m0cL3R2S9YU9CKgPZsHzhs3bsTQoUORk5PTqKZgzUA6281HtIy7dTtm8j2F119/XTy+evXqJfdE7MkDBTtFzDswKikpuvsAACAASURBVEoB8OZbH6CwIB8DTzjK8HpL3lMsWcbYksu5ChSsE6VB4eGNi0BNYYYcNJtOqU2Z1EAgIF47VjWWf5eXl4tnCb166M3Dza8TJUS6IOp3jIPBYMSeTPtyfn6+mHYWLVoktmed6urqRFXWbbFOMvTGUizzEd1SmXhPgfcVvvnmG3Ts2BHHHXdcUqCwlrGPVq3E9Gnq5TWEwwgGAjJu0kCPld5OZID79+9HZWUlunXrJm8763FpE0pFRYXQIBQKyY+mMTvHf5PuLKPL6bsV/HzPnj0yFprIevfuHZN+Ikn6fEI/JbEr2ZLUPYAAbl02G32LumDG4NS+vMa55g/T448/LgfMTz31FCZPnlxvLlMNCqQN27a/n83PSXeeK3HtaQ2GB986r/5s9erVOPXUU6X/XMPMr+eD65znU1ynXFO6LOefP9wPnJO+fftG1rCeR72mKZRY5zre2lauw3RJfQklEhBvZCQgnnei0BhHSN33rgYFvtH8xBdLJCDet8+ZimK5lNS4RKs3A33LlyxZggsuuCDKS4QHttXV1bIJyOhol+dmeOCBB+QyEjcRTQj09GF6//33hRnSJXTw4MHgJTJeYrrjjjvk+1WrVmHFihU444wz5ACSG4jlufG2bt0aYSjckNxk3bt3b3SGY4HC22+/LUDE/peWlko9rJP9t6b4LqmmXZcS24cbdmHVihWYfrlySa2tqcEzzzyD008/HQsXLhSG16FDB7zzzjv43ve+hzVr1kh7HBtpQqZORs57EgTUv/zlL7jlllvEXZPnHqQVE/+mdkMakml9/vnnaN++PaZOnSrz8N577+Hrr7+WewDr1q0TKZyePpzHHTt2SJsaWMjQeFdDJXM8NQjivjefRI9WHXHhSec0KSSz3XzENcL5JhhyjfAsgUBJF9UuXbpE0T7VoMC1RVDgutHCBJkwNZZvf/vbeOGFF4RuBw8eFDoTlOl4QBpyHgi2vHinb2B/9tlnsl5I7y1btsgaZXrppZdkvgh4rItnKBwj69m+fbsANenCvnBOCCJMGkzsdIi1wM2AeIvRpljdU+CJjI5U4FZNtdHNnGUZXAsKysQRwleh3fDXhNCzqHMkcHZDi8du873zzjvlspFO/+///T9cf/31cgv497//vTCx2267DdwsvCX82muv4aKLLpJNQB90SlLcmJSOuBm4IcnEuNn+8Y9/SLXcdBdeeCHuu+8+qXvWrFnCRLVExd9WqZvM3KqFxFozsUCBIEcgIjMl2A0aNEgYAplTPFCIlsDMQBCUe8urgQOVlejSsbWKKhoKCUOg9EkvG22eokbyne98B7/85S9x4403CrP59NNPhVGRHgRDMhX2j4D685//XIBzxIgRIs2SqRDIyNBJZ/4cffTRQiumu+++GxMnTpQ2Sftnn30W//d//xdhPAQFSqKkIbURApVVclaujmHswUEUIBetm6hRxjpTYN94oP/kk09i+vTpcuB81VVXyfqwpnSAAhk4mT3HTmCiQEC3ZEr/b731lgAutUVqc/w3vaKYn4ngTVBjeBTOGwH50ksvFSeF448/XrQBpv/85z+4+OKL5TPS+v7778eZZ54p3m70cKOgQWDRmi9/a7Ml6+/cuXM9bca+rs0wF0sUKJxvBMTztQznkWzBBteCgiYgI6XSQOCXI6jEZYnf/e53AgBMZFpk5tQQ6G/+i1/8Aq+88oowLkrG1113He666y6RBLmJyODOP/98PP/888LEyTCpBfBz3mwlA2CaPXu2eKQ89thjsuE0U2O8HDI0mpQIMmyfm3fAgAH1/NvtCyYWKBBcyHz5m5uZG/PKK6+st9Ya1hSY3bw1rs9x+AnNCBz/T37yEzz66KPSV47h7LPPFg2IF7h4YYtSPhkVJVdKmpdddpnkJzOiBEtmQq2GIEpmT4CgFEuakoEQVAlmpDPTb37zG5x33nlCp1GjRglj+9GPfiTMjongfe655woIUUsg/WKZ4BgQj0mtFdPDJdHNGAsUaEIhOLLv/JtrhVK0PaUDFAgEc+fOxQ9+8AMB0O9+97uimdJMSYGFwgvngSYtamMEW2q51FIpFN17770i9RMQCMY0/REstADFNcrvOSf0sOIccxwUOjgX1CCowREU9Jz885//FM2BNOjUqZP83ZgJyRr7qIShsw1NwVyRic6Ulz8ZCrgKFKIDMZjvCeuNngwBrJoCTQBkdGTODGpGDWLp0qWy2ceNGycSPzcGpT99S5htcmNwI5GxkyESJAgC3DzcjNQQKLX973//E2mLjHTs2LEiSXHjcQORsVLyJshQBbcfDjcGCgSBW2+9VRg2mRL7QSZKcxIlVqvkHCsgXiw4pc+HDkCtAZfMh+Yg0oVhNMgMqJlwnJT4KW2yL9Qm2CYBlX77/DcBi39TomYfWZ6J9KVky3+TcTz44IPC2DSocI54IWz58uUCCmRspC+/J63IgBlriMyH88K+xNK0lCFEbmw2KrU2tJbsoECacMwzZszAE088IfTg32TQFDCsKdWgsHLlyoh2SpqQRqQDAZxmPvZh/Pjxska5xmjGo9Dywx/+UMx9FHrYVzJzzhfLcXykLbU9AjZNRdwLL774In784x8Lfe+55x7ZC/xen0dQY+C6pVBCrZHt0zX6mGOOiTsnVtpQm6uCD7Mef0WFuTj/zMh7ComLe8lwA6+MsT/0VZHsJ0i0E6FiV1Wogx9+5Mtt5sTdDK2gQBOGPpRl7BpqClz8NPXQ1v3HP/5RmBojj1qlUZqDyNBo/iATpumGG4J5KfmSYZBJUfugnZegQFt7165dRWuguYj2d25MSs7c2JSmG0qxNAVuaLZDhksbLhkyJUZuVquU5iTMBdu2uwZyHBzDlClTpK8EQpoTKHUSHGj2YR6Oi+Nm+wRaMnjShqY4SpqU+qklUCplfppc2F/+kA7z58+XQ1oyHdbDdgg4NMmQgfEzgilt42RUBBlqZmSGZELr168XxqYTVwW1hL2oljc3WjfxhT47KOgIqdSWqCHxe/4mQJIhphsUOOeU1tkPriUKNVxD1J7ItGk24m/OFQGVQg21MoLAb3/7WzGPkmZM+k4LzxMIClzLPNdhHmrLV1xxhQA8wZhCDMGG2i/HTk2Nc09gJIgTTDgfnCfWx/lsKKnQNcB985agtLgQUyeeKe8pCKPKfvZ0yPTQVZqClerKfS2E98rWo2r/AZza9wQUODpmNmvhxuUPVVxuGqrZ+vCYubixaA/n5mGAOUpaDDrHw0QyMzJ2AgW/pypO9ZyJG4AbhBI1N6ZOtMMSFHQiwyQjP+2002RT8TyA2gU3Fm30iYICmRBBif2hGYPMif+2n6M0BAr6jIFS9Y49B7Fl81cYeNIxclech5Y0GfBcRbu9so8cKxkDzWfsgz7DIJMiLViGWgu1LZoz9FkLaU2gIIOipkDzExPBmTSg+Ugzd9ZDOzcBholjokmDzIz0++STT/Dvf/9b5o/mFJpSrKDAg+a/vvQQerXpjGlnqJfX4mkUje1uOyho7yP+JhDSA0lHSbXXlWpNgUyZYKpNVVxPbIM0oeaqGTFpxzMHSvHWW+40vfF8hnMyYcIEAWomahMED67zRx55RM5pKBhRUNKJa4BCB+dJrzHOB81NBEN6wbEsBQKCgz1irJ021BSqqSnMW4TS4gJMOV89x+n3EKGxJZnS710FCtY7j7zfWIUAHlm/BOVRz3EmRh+9mGl/d+IKmljtDefmBrbHxnFafyxN4eabbxZJnIyAG5Kg1L9//3pVxgQFi5Kl7ym8t3EP1qxYiemXjReJLdsC4lFjsJtnogerBqXvKYhLqgTEu0gCrSWb7KBAAKaWRGCiCY8HzdSoYqVUg0KyY0hXOe22nUj9eulxnuhHNv+5ZWhdlIcJ554eCVzjuaQmQtGm5XUVKFglP3UoFQTvKVRs3o3rh6s3mrVQcagLF7FAgaYw2tQpkdPOTQmdIJGIpiBSuOXy2pqVK3HNtHEobuIbzfrugd2fvmnLN35p+0VHvud98/L7JfbR9Yx91ISGY4ECJWuCAc10/E1tsjlBIdbN6sZuWzf2fbIkc1KvZvr6Ahvb4pXL6GuXyfbAK5cIBVwICqb0pwPiERRmDptqBMRrGfbHWKBA8xNNYPQz50E5zzRoEiAjtm5MJ2cKZpTUla4Mc1EfFHSYiy6YOTC1l9eoKVBL4HkIaf/qq68K3WletKdDXVNIhPlY81qtANZovYe6cJcsvdJZzmWgoOUJ+p37YAWF7wybhrbIazEHUrFAge61P/vZz+TwkDZdmlZ4F8DuK+8UFNZu3I81K1fg2mljxQsk28xHTjeGGeZiFvpJlFQFCk4k2FhtxNIU6EHFMyKa6+ghxUNx3qnwQMHpLGkdlb89KEiEaqnO6yJQICDwR/kYqY2uQmdTUyAotEGeaxlXohMbCxRuuOEG0Q54uMxDcR7E8oCW3j7W5BwU9oLmo2unjXMlKGhtgb8Z5uLm5fehX1E3MR8pQ2NylupYoMD7F3QDpqcPnRPodEBtwYuS6mBl286zzCuUjG+uQpd4KXMUcBEoRCubVDHNR3Z2ifmIobPdKs0mOuWxQOHPf/6z+O/T20O71vKc4eqrr44KndFSQEHT1KopqDOF1JqPeNGrrKxMXDV5D4WJXmq8yzFz5syoqfXMR/FXuj7LWvjKahTn52HkWae0oLcUE+UA6cvvMlAwRYqIpmAcNM8cPrXFawq8K0DXTnofUbqiRKtDaySjKbyrvY/48prLzUd0SvjNa7PRp7gLvj0ktQfN9Fwj3enyyXMFAjLdMhkLi66h1uSBQnxmpr2PZs97GW2KC8UltdDnGZPSx/5j1+w6UBAvFh6cwodqBDD/i6XYv3U3po+cDEboaSmKZixNgbTheQJvn/JCE88YeIeAt1cTBQVeXHt/w06sWbUSV0+7wJWbU84MGATFB9SEQ3jsvRfQtag9Rh91RpO8WmKFuWAMIN63oPmIr7Dxli/PcnQwQn1+4YFCw6DAy2uz55mxjyiMtJQ9nWnmH689l4GCOoxSlmD6n4exrWo3QjVB9Cjt0oKOmYFYoKBjCFFKpRcSg5jxsNl6kYuUc2I+Io0rqgOoKN+Pbp07NImJZsNi51oJCEgAuT5GP0o+xQKFefPmiYbAC4+8NcwDfiZ7hFoPFJyAwitow9DZE8+KRElNfra8kolSwFWgYPoemSHb6oznN3mWwK2e3NFhomRr/vyxQIG3VnnbmMyJN2oZqroxUGiIXvXp3fzjbkoPrONRYkVyyQ4KBAHeVqd2wHAbDOExfPhw8W7yQME5ja0B8doWKVDwzEfO6ZeqnK4EBXMzq5dbqT3oGKlW//RUESkb64kFCrRpM1QEwyLT44gHz7RxJ6op6PEeSgCrPdai39tILiSzHRR4wMxAcH/6058kICG1Br54x5ASHig43z1RoGBoCrxJnyx4O2/Zy2mlgOtAwbpAaBKgq2EOfBIQjycKyfqeu21ZxAIFHmwyBhNNF6QDg8gx4qgODa7HGM98ZKcdH9phohbm5PGibKYhQ6zrgHjF4VwxIZmGyMTYTizzESPg8iY5QZjhS3hvgR5J+iEhTRvPfOTUfJQX9chONq+tQ61vrgIFK/Ep+THI2fKdH6NmTyVGHnWqPJ3SNGuxe6bXCgrWl+T4mIlOvKPASJaMgWRNjYMCNTBg064qbFy3DmeedgJyfC4LOWCzfR1ECPesfhy9ijph6gmjUvryGoMq8m4ID/WtwEstQT8p6oFC43vL1BQWo61oCsMl5lZikN14O16OhingUlBQTKsKITy6frFcXrtuxGSUtPB7Ck4Xu5ODZmoJ768vw5pVK3DNpeejwI0uqYYtUa2VAH697H4JiHfdoAsl0FqyKZam4LQuT1OoTykt1Oh7CnMefxptiosw6YLRKkaVEd3fu8TmdJU1LZ/LQCH6nkIlQnj4q5dRyYB4w6a0+MtrTpeCE1Bg7KP3NuzD6pVvYrrr7ynw8ZYgblo+W8JcqBvN+gVnp1Qz83mgkDjNGiphNVvSFTqgvM5Fm2spl1FTS9Gm1XZIgIIKiOeBgtOl4BQUIrGPLh0rroHu3KCmVnmThLmwxD5K0jThgYLTleYsX8yIrkZRz3TkjIapzOUqULBHvlQB8VTobA8UnC8L56BgxD66dJyLQUHFyTqAsMQ+6l/EKKnGjeYkXdU8UHC+1pzmtAKDvqCqy3rA4JSKqcnnKlCwDlltdBMUrOajlrCIYnkfOV0SiYHCClxL85FrNQUzeCI1BcY+SnXobKd0Zz7vTCE+tbTbsA6IJ15v8p62djpPhNJe3mQp4C5QMEJccLAaFPjIDl9eU6DAF3hbRko1KFiFZn3g9+5Gagor1JmC60EhgFveMKKkDjJCZ3vmo6zaLFx3tXz2delqtCrIx4ihJxuPIan32FuCsJcNE+IuUAiFIw+26pfX6H2kn+Ok9xE9FfwtINRuKkHBfklNg8J7G/Zg9SqCwgTXgoIOuE7vo9++ej96t+qK6UMuVO8pJGm39sxH6WFd3NPVEvtIuaR6AfHSQ+fGanUXKHA0hkir7ym8vP0dHPhmHyaePALFluhHh7pUkW5QoEvquh0V+OSjjzDu3NPd6ZJqrH4lgYaw+Is1aF9YgiG9jk3pPYXGNpn1e898VJ9aWku13mj2Yh8lsqpSm9d9oGAZP280V6JO1Moi5LWgGKmxA+I5XRoNnyko+ZnqOt1SCcK8uKZvNTttI1vyaW2ABgi6pfL2O42MTREaPE0hPbPrgUJ66JporS4GBSVfEBj42+1hGBKduFRqCqptLa+ZRpVkzSuJjiVd+e3OReaLXsk/xcm+eqCQnhnzQCE9dE20VpeCwqHDuBKdMJ0/taAQj/27Gxbsh+e1oikwRpYHCsmuu3SW06Awa94rRpgLL3R2Oukdr25XgUJ9yS8Mhs5mvCN6HUno7BZyJT6VoBCP9VMLU88ZkYn6XPpWrgp7x5uy68u3o9hfgB6tOogzQrLBEz1NIT2sSoPCfQYoTPPeU0gPoRup1VWgYB2LeroviKc+fx37t+3C5SMvQivjOfam2IubZRaSaDSVoGBvnkyUB82ffrVLXl67YupECQvhNrpaDWL0PvrT0gdxeOvOuGLI+SqirjHwRMflgUISC9ZBEe19NMvwPvIC4jkgWhqyuBoUGDb70Q10Sd2NGcOnyBvNTTtCTAOF01RlukFBxT7ag9W8p3CZO11SraDAtfLrZbPRr7gLZgzijWYFCokCgnemkKYFbdw94rpbuuJ9FBXk4YyBx4jrcDJzlL5eHvo1uxwUvDAXU6ZMSXiVOr7RvGGvipI6bTxauTFKqkEZSqAHEcDNRkC8SJiLhCmnCniaQpKEa6RY5EazERBPvabopUxTwFWgYJXs9I3mBze+jMotZXKjuRR5LfI9hUQXTXxQUP452h313Y37sGrlmxLmotilG1QzGpqPFCgw9pG60Zxs8kAhWcolXy7Z85/kW2y5JV0FCtZpssc+8gLiOV/EfFx+z549mDhxYsxC+kYzQYGhs90c+0jfaFaawqzoKKkSVydx44QHCs7XWjI5kz3rSaYtr0x9ChwioLALM4dNFU2hpURIycSZwrtiPlqJ6YdAlFSCwk3LZ0UC4tEtNdkwawQFAmu7du0S5inejeb4JNNeYjvKKpCX40PH0taWm+fJngAlPEUtvoCrQeEggpCAeHxkZ/gUlIaVUSAZ6c9tK4GgMGfOHPTo0SPhrvPtYD4wf/HFFzeoKby3YS9WrzRA4RA6U+AjO015wIWg0LNnT+TnJ/5+GzW0p59+Gh07dlSwlKS2kvCkZ3EB68trjH30wIJFYJiLS8afjQLjoDkcDhn7OnHNLouHnpVdcxUoWO8g6CcWH9mwGPu37MKM4VNb1Mtr1dXV2Lp1a+ReRiKri6B52GGHRb0fHBXPHpAQF8r7aJXSFFwOCjxT+M2yOehd1BnXDTbeU0jQKdX6Fvb+/fuFSek16ZT+fLOZQO73e0eodprpewr/fuIVlBblYdrEYRKI0YMBp6srNflcBAraOqwCWii7dwivblqLip17MW7wCBQip8UcNKdm+qNr0ZHJtRq/cfsefMiAeKOGyT0Ft7IxvVY+2v8VWvsK0L9ND/jDQNjnMZx0rKNk6+RlySr4MGveUrQtJiichUKjMg8YkqVq4uVcCAoma6JkUYFauZuQbwBCvDMF5VNjfqshRh9qxSKdjqekF6STMtGB41QcePazIYuoPdic9piJN51O+2Vv09qOvQ3r4Z7+mxfY2Ja6LW4DEIsEZ6WhNQZVQ7S1HybKrWlLE/a+2+uy9idWO/bPFDAEZJXkGqJDrHKxYmjpfA2NJxZ94tUvZiODflZmp9dXvLWoP49Fq4bWiphUjQyNjUXns/dL97mxNam/55pvKG/0+M19UgVg1rxXUVqUi2kXmKCQ7PlP4izRK+EiUIg9WVx8DHVRjQCqxOhB9q9CGygIUKEaeATdFkWRy23UMg6gTm5Fq42it5raDn6EUYhcFCNXmAhTHYISlZVhmJXzpiqj4YbsvzUKpBVVQkXm5NlHbQQerNvTJzdr2QZ/dA9o6iDYhYyxREtJBEA/WiFXfjO0R8AYP8fDMiopCqjeQa71tZVIsqpnHDXbYDwghoDQbEOXZq585KJQ3HzVY+pBeQFL/XD8/Jx/s3xQelGHYuSgEPnGZ+q7WIyI5YOogx8hFMAv7XD2dH7+toOxaqcOuQhLO/xP1aN+NCNiOR38jr0KolrGLe9tkF5hIGQhqgCBwaWoQfBkKtf4nvUwf51l7NaVyGykAyVaDSgsw8dirH2KMHQ+CWKQm/Zy/SgUm6+20NicQVWS/eI5CPvFMmzD2rd6u8Noh/k5Hg1aBPpaY/x2MOdzJWwjz6d+6/XIcVjnxt4W69Zj0WV4NqD7aN9dmk6cDX3gH4RPaFYZBuY+8SY6FgPTzh8qZktzdXoMOxMUcCEoRMuYXHj7UYdHlz+Nd6rXI+TzISQ7PAxfOAfwhZAT8qNdTQFuGTcDbX1Fstj3oRqz3/kfPtuzBYHIc20GlIR9yK/zYXCPozH1+FFog3wEEMS2A7vwt9cfx578GgRzjPpl6/uFy+SFgXG9TsfoAacLk+eT8RtQhnsXPozyoiBCPoNV8XKOsEo/imv9uPjEczCi+0kCC6zt9R3v49EPX0JdbhhhKUOmpba1P+RH13AbXHvWRehT2AG5yEElAnj2/Vex9Jt3UcuxyEYKK3u3z4ecsB+tq3Nx5/jvG4yRT5nWYfbap/Hx7o2ozWE77BEhxacYUAgYUNgTl581FR+t3YFla3eg1h/GrvK9qAkFBCD8Un8QoeL9KDqsArm51Tin10kYedRIPP/iB1i/oxpVYWDn/jKZE5prmEL+GuSUVKG4eznyQ1UYf+JZGNljEP54/1LU+UpQA2D7/l0RaAuzrL8O4Xa7UdI5iOJwHaaeMhq92x2BR+a9hv2BYuyvrsa+6koFQL6was9fjfwu+5HXfj/a5uTiVyOvw4YvDuDFZZ+jzkc2bsr3QmZ/EAXhclw7ZSS6lyioJzN8891NWLx2h4gWSlyg6Ynzz3+FkB+qxHennokOJQpyyXSfWbYBH365EwFfvgGkEplLfnLCAXTrVIBLx52ItnlquqoCwL8XrMDug7kIce3QtBVZJywXxAm9i3DBOSegwAD8g2Hg7jkvosrXkbVGnZBwLtnOKUd2wIXDjogAyabdtXjshfdwoI49MXVH9XdIxj9l7EAc2aNEPuF6XPPhZry8egsCvsJIGVmXxvhzwjX49kVD0KMDRQ8Foq99sBPL3voSQSmjoZM2O7YUQrviWlw+4XR0baM06aoQ8OTij/Hptmps2r4bowd1xpQxJ0fA1juQzwQcGAAcTvSkLHN9c9SSSFgI4pPt67EjtNeQx2U3ARoUwkBhIBdDe3NDqag3lMbf37kOZbXlwuC0XORj4DdKMGEfuhZ3wNEdDhdJlhJ3RaAKb2/7DFU5QQQFeNRGUnzIh9ww0K+kO/qUdkdemOBE8KnC2o2foDovJIzEfFaQTMWPvCAwoNPhOLy4s1FbGJsP7MLHezYi6FeSfkRWCoeQ48tBq1A+TujeH+1yCHB+0Q/W7d6Mr6rJhJRHiwIGJbf5CXIBP4b1PskYPyXZIN7ftQ67qvcj6NfSvKHzcLOHgfY5bXBM9wEo23kQW3dWSZmde8tQEwzI2ERTIHPMrUH7bvnIyw2gd0kX9CztiQ0by7D/QBAHwyF8XbZTuiKQSPDxBZFf7EO7zn7khGrRt2N39G7VDWs+2oog8lETDmPbnm8ioKAIHERe6zq061iI/HAIR3fujZL8Unz6+TbUhPOw7+AB7DtQIcxUMW0yrSBKOvlQVBJCoS8Hpx92PPbtDWDjtn1kmSqUopBIHzCEkYtqHD/gMJQYzJpMcduuSnz1zUELc1P1q7VCJl+Lkwd0Q1G+1sKAdVvLsWtflbSj+k8iG2uFGmVRDo7p0wEFBi4Fw8C7X3yNqjrVL63hqcJqXjq1Afr36qik67DSRtZ+vBm1KEKY9fNDmXpj3n0hdCnNR/8ebVWwSApQVSF8unE3akVV8su8iGcP6eEjHNXiqMM7oUNr6tYKFHbsrsBXOw4g6NP6g6avaikHdTi+X2eUFKkgMxzlpt1V2Pr1PgNI9Vo0Oh4OozAvgGP7dkMrw4GLQPLZpjKUHVA66ElHdkDrPK1JOGIFXqYUUcCFmkL0yLUpI4CQMC21TTUrVRtFLVyfcRCtDD481KKBJmiYgkzzidpQAgzIEbMTy5plwmBbVvOUYtuU1XxipiHs6E1Ihq1MGKqMqZSrzcse0kCj72IzD8uYZi27YYtj8UvoP2Wk0lFAw0YZtflN+NFymjl+tXGprtMYU998ptV7FWaaI1Eb3WrasdvLKe/xh+Ngv/S86DL6XMU6e8xPqVGfCWlzizYHGSwkQjVFPZbh3Jg0tpazltEMleH9mxr1tgAAIABJREFUzMd1lDZm77/uF+vWP3rc2gxiLaNt4iyn+hNt7tJ90uY2TVOrnqvLWM00seikV41ax6Z+YzWdWdmuHouWz2lkUyvNnEe7zV/3QbdhNWvp8VvLWMfPMtYYRWoNR9PYWr/uq6KzAjzTDKnoaKVNinidV41DCrgbFIyVqTeelt3tY9cLWNuNrd9HSeJRLFvlMiweEX9yFU5afaoXuq4vVvvxmI9ZRkNF9CG4k/lTvTDZjP7LzoisTCIqf0SjiMVSontgH2u8/kXoZcugPZustNJ5Y9EyVv3W/Ha6WplU/flXEGkaS8yDXiuTtv+dSHvWvNZZ0X/r8xc9VmVINCR741Z1dPtWnVKtNcWUVah4Kx3tY7czYHO0JmWsZex/x1sN1v7pM5v6bak2Yn2vyhuh2I0dFIvGdlo62QtentRRwN2gYGc8FibunETWpR691ZQdM3LgYGPByTceq0W1XZRN34Qi56OIdM6nDt4rqg6gtKi1WZtl58dr39patA1Xw4wyawjTEC2/8e0bf6zRo2yIqceighUUYrNIw45kfJlo/XEpL3zcWXiMhulsZZsJznMzZ0/evh8PgusPyAogSe+HZqaTW5t3PSjU3+zxN5uZ1xFbtMg1zpZl/b6YluFo9lm/fVXWeuYQe6M0zIYVrJSFD2LO//6DH108XUxmIs0ZkSeja43ucdRml6/isdL6Tv46Z/1Hjsyx2mvTB+HxJNOYYGB7RElASsZm1VHiU8npzDcKd7EJmgAfSBlMxWkzkfojs2fU1ejo4y2oBMYfJYIkLwgl2aJXLD4FXAUKzpiuU1Cwi5C22o1/OmEiVv0iWmrVR4T2CYjI2zYH0liKvlm2YchQugZPVXagHH9fMBe3TvoeiiKnAvHkbQsdFHe1ZHQ++gioGUWimbRi+7FBQTfnLGpVQ6DTEIxa2461jqyw39j3SloIqcPjeKleJZqWjUCgZLM6CiTLPPU+UOVNY1RD68D5fDc6/oS4biIAllDFXuYkKHDIgAJFYc2IrEu7IVVXMRjjfMAqFSvhU/hjAtskAWZKd1HVQGMyWTQTbHzziLcMyvG3J+fg9kt+ELkzoQTbxlozPJcMLyFhJgk9b2qMy1K+8TWpKKx8TpLon9FA7JLxtRQr1Kq/69egSisbuICadY1JLJ74oFBfkTBBQc9FFG0tU6vasfQwMneJrEYrCFlH0dCMNFx/YuM323ey7hpfJ16OTFHAVaBg7NHI/jWVXuX/XH+TKlZjpuh/J28bjT89zphoFGw1yNaiWmocE8SzZjs1hSfn4DYBBfoPOSgYdWRtbTURRmTDRWFszsrb50JrHvEYtvOam7aVlE6ngUFRMjaEqB6p7zWMNK1tp7Rz0kqsflvXaqN7wQpacY09JozGAmlnK8GqLSvaq9SAVuaEAF4exxRwHyjEHVosxmf/zBlzdEy9LMwofuUoxz8WzMEtk76PIuNGsh0es7DrWdwlp+wsi4fg2q55tM/01B1CoJBp0mVne+qGdzUWr34dF556XtT9h+RfJc7OsXq98ijgUSD1FPBAIfU0bfYa9aUm64Uq1Sn3ukE2O1G9DngUaCEU8EDhEJxoXrDjPWV1G9l62NrEexCHIK28IXkU8CgQTQEPFA6xFUFdYC8O4pGFCzBzwuUoiMSF1QP1bLSH2JR7w/EokFIKeKCQUnI2f2X6oPneBXPxazloVpE7699Qbtz9s/lH4/XAo4BHgUxTwAOFTFM8ze1pUPjbk3Nx6yU/kHcH6oOC9zZwmqfBq96jgGsp4IGCa6cudsdNUJiDWy/5PooNl1SV2zMdHWLT7Q3Ho0DKKeCBQspJ2rwVEhS+RjnuXXA/bpnEy2sqLr4yFjUW27J5++617lHAo0DzU8ADheafg5T1gHoA2X45qvDiiqW4+IyxkXsKChSsl/cO/Yt8KSOsV5FHgRZEAQ8UDpHJJounG6r+ITioB1nUI0Hy3pwlds8hMmxXDEMHa2hCUHRXjNPr5KFBgRYPCoeClV1pCGHsD1Rhc+UuVPv5XKh6bS4v6EOP4vbomt/GWLHRI2628bcQRUWBNfDJ+h04ul834ylNZ+8xHBosxhuF2yjQ4kHBbROm+2vnqdQQNpXvws0L/4EvQ7tQmxtCXsiPLuX5+MNVN+KYoh7G8+meK2om55zzxLeUH5z/Mq6aPBoF3ssBmSS/11YSFPBAIQmiZUMRDQraJERNoRwB3LHiAcxbtxT7CwMorMvBlb1H4CdDL0c3tBJTkgcJmZs9/YhQDYA58xdj+uTzUBgFCi1EXcocyb2WUkABDxRSQMRsqEJJpCGsxTZ85+HbsaFgH7r52+Lv43+CM4sHyH0FDxAsM5UhuxmbEVBY8AqmTzonAgrRbyZ4M5MNe8jrg6KABwouWglRcqVNyFSHmWHsRg3u+/AZ3L/2aYzqeRpuGjkdh6FEbNnxHgd1SoK4fDRDDNZpP+vla8b+aVCYu+AVXGMBBbOPnraQ9Lx6BdNCAQ8U0kLWTFQazUw036NUuvbABtzx+L24efL3cEKb3milQ10YLqnNIZemivXpcYpEkwkyN7EN9jcA4KH5z+LKyROR55J+N3HYXnEXU8BdoJAqzuLaCbPfM1Cs0SoI0xV1H2qwev0HOLPfSRL7iIYjMtDmJF8q225GwT+hlaPPFDgnBAZqaww54gYwS2igXuZDigLuAoVDivTJDMbODs1/R8MF7yso5iMnCWH1TKTTt3K9+wzJzE3sMsqsp9+gVnPigULq6OvVlHoKHNKg4HbmVq//dnG7AfFbnR9o/SALjC1JqAqJzl+i+VO/nerXyGEToL/avhM9u3cW85F+bdgtGk8m6OS1kT0UcC0oaAmMG06zPLJArZ5r6Yyqu9UObWeP6tavihoKn0/CRFjL2KU6Xb+W+KztxJpWnc9qNojVN2s7ehzWftnbsfdLtROOcju1jyWWAYnjl7oSGH+8scRb1szPdnTSjJL/Zh9jQRbLWOfSWiYene390mtEz78ea+YkdQXNdQAeWPACrpw0Tu4peE/QZw8D9HpSnwIuAwUlbvL/axFEWfgAPt29CUF/GAWhHPRp3RVdi0qRhxwEEMLXVfuxvnIbavwhhH0sxy1qMKGwD7lhPwZ3PBKtJWhcWBjUhqqd2FK5C7U5GhpMFsK/WtXl4pgufVCKIqmrBkGsr9iB7TV7pR/RKYyckA+dckswoLQnCtV9VlSiVvpN239IypjlWGdu0IdOBW1wdJueKjwFfKhCEGt2fYpafxghn0GFMP8I83/IC/nQu7gzerTqiHzkIIgQdtVV4st921Dtp0WbrfA2gy9iRsoN+XFsaS90zi2JjP+rql3YXLkTNcb4rTcbfKEwWgXzcLRt/F9VfI0tNXtkLDIaha+SOLw24QIc1743iv35or0cRB2+KN+GPbWVCPg4N6p3Chx8QrOO+SU4qk1P5BsstAp1eHvnl9KvEAdsSfxnTtiH7jml6NuuuzwsxMt8FaTzrq9Q6atFfn4eTmnTXw7drQCVXqag1lQdfHJP4epJ56HQ54FCemnu1d5UCrgSFNRhajXmvb8Ij69+AQF/CG1q8zDjrMkYc/wZcrhagxBe+mA5/rX8cRzICyLs8yNMBmpECvWF/SgI5OCxmX9BZxQL66lDCA+9+zzmrXoRB/MCkl/DCJmVPxxGuwN5+PP1N2FAYXcpU4E63LvkUby8YbUCEjJEsjiDceeGfDi18zH45cQZKPURSHz4GhX42ezfY1N4HwJ+9o2M3Se//WEfCgI+DO17Mn41arpEOSUL3IMaTP3X/+FgXsgAEuKBKuMLAUUBPy49cSymnjFOwmXzzsLqbZ/gL8/ej7251QgazJdltMZQGPDjtgu+h6HdjhNGyfGTpg+/+QwOFAQkG8FUmHXYGH9VPu76/m3o6+8g4yTAzX39SfzvszcQyAkbDF4xeZbJCYfRK7c9fjfpx+jZurNoMrtRiT8vnIO3tn4mNCOYKMhmGTUvp/Y9Dr8cdR1KkC+f7wmW46p//RLlhUEERdQ2acbx54V9GNnlZPzfBdegDQoEFLeGynHj7DuxLWc/QgV+PHDZb9Df3wmEpnQnLb5wrdbCh7nzl+CayefaLq+luxde/R4FEqeAy0BBDZAmo29wAL9fMgdDjzgFpx1+ItqiAIXIM8IIkPWHhckdREDyq2QatpWJxo/WyBU9gf9mGeYnQ6WkabD3yNEgGRelcEqieVKaXiVhVCMoIMT/zGNELfkChchBsfFiMnvBfukyxhFwpH8CPoDUr1xJlWZUhzAOiH6kNR6WFAOTfMIDZWoiZHgsoyRU1Q7LRo9flfEb/SqQEmr81QiJ9kNNSxl9tIGH9FLvPnM8pAPLMB/HznLm+BXTZassQ/oqCZ2j8wnNSGf2i22aSUEwR8V2WonOp8bP+SAAcfxK37HqfcpsViT94qiUdsXcBxHCFuzHr1+6F787byaOyOkCjjfdiVRTs6Mur81dsBjTJ50XFebCO1NI9yx49SdDAVeCAo0hX6MSd75yP87tMwQj+g5CG4v8Z5UDTZZmAoImlLb32/PbjUBWwkbOEkIh+P1keWrjqzL12+CnmtHpHPq3FULsbfDfVtalmKfpfmplpKoNBWzWsdht6rEWiLVvul/RBi1rKXV4ra09VCISbUOd3Sgos9Ij1vh9lqiu9nb0OA2DlQGFdkgmMALbUI4bXvgrbh/zHdEUCGqZSuy33FNY8ByunHS+d08hU4T32kmaAu4CBZozGB7a58MOVOL3S+/HqN4EhcFoYzwmY31Gxs44nTgDml47DdO0vqeLZlvRrNkKE3bJMDaERLdr7U99yTJ2m8msBieeO2ZoBqfmF/sIDeiUMwenddjpYZ1FUwNSukL9RIasQOEu3Db6evTP6Syg4GS8ydAx1uzVv6fgZOab3rpXg0eBZCjgOlDgzudGF1B4ZS5G9R6EEf1MUHBChPrMWbtvWmXXBJgWpV+xlWhp3rDDG52xax4N1SyStJHIOLV5SZ8ERL6TPxQEqhKxg93p+hpjwppJ2n9HOhPhY4kYPVTv5ZxFQCCRsqpla/+tdLTqGUIyX+zx03S4FeW4ceHduGXMdeif20XMTEnOtJPlFem3qUmpOVLignlK5bgyL6NHgQxSwF2gYBBGgUIFfv/KAwYoaPORtuRqCoYQDhsGjwY4ceOsysxRnzFZZ6txPSW2tK+Yen35sbGeme3Flnyjy2u3W9Va40lDnMoZbe6JWd42AAMSYsJVLDoaeoTRktMeGrSzuDxZS/Is4htU4vYX/4Ufn3cVeud2kjOhCCo4aaZxUsXNwTERmLZ8sxuHde6IPI2NaW63CV32irZwCrgSFNTj9DxTmINRvQdjpKEp1Lfphw33yAZlc2MJON+l8Vl1cmYBqxFIr8fo4BXxVqnlsDXmq2rRIfASZ7oNyfZOxhof5sxxxh6bk9qt8x3PHETYrEIAGw/swOGtuohnlhkv1lkryfEIJaCwBb6n8MCCF3HVpLGe91FyxPRKZZACrgUFHjT/YfFcnNtnEEb0V5pCcsnO4lPJKBqT9E2BVcvipnRuGhwaGldjLVi/j5b8G9IX6mtG9QXc5OjUWH/1WJOrvT6lFOAqcNQH9yb8O+1NMivLpDa9j+5fsATTJymX1PT7PiXTX6+MRwHDJhC2GrFdQhWaBMpQhb+88ADO7ncKhg8YJBJgPVk/DmdpmBU08G3M+uLl1587Y+7RpNesTJ8UONdi6sv2FgYf0Sbq9zkajDRgRLcb2zjmZNHEoFE8rl8va6KMO1b+5gv6wd6o9xSW4BoPFJwsFi9PM1PAlZoCN5q6HxAQf37+mCaB+qwrSlo2bM9OTbuqrP1wUDHt+DKfWcrOzu0HyXYm3tDBsJWPRg6ELQuoPnTYGaRzBhttjrEedzdk7tF0ifbAigV4EY1AXWeWFP8wvP4sOB0/S+pwH2yJPkqmpO6cHgnvU2OyNCjwnsI1xj0FL/ZRwtT0CmSQAq4EBcWmTYtyNDN0vtHjCasNsT31nZM2wnj3vfcdHOg6qctsNTJWC9OJMNV6HbePMLERW6trzFXX1DSAnJxc9OvXD8XFxXGWsh6z1kicrPj4fY9PQV6O82E/avDsh69h9HFnoINPBTWxuEU5aTzpPEqA4XsKC3Hl5AlyP930k3I+90l3wCvoUSBBChxioJA800uQbo1m/9///odZs2bh6KOPbjTvoZZhz549mDhxIi6++OJmH5pySqjAL5+5B78afx365Gbu8pr9PQX6POV4oNDsa8LrQMMUcBUoWE0GNB/VIIACI3yCiigahM+XHc+YPP744wgEArjiiiuUbhHTO+jQXJ4fffQRPv30U0yaNKnZB8h1sg0VuOH5v+K2sTPR368ur2UqaY1WiysRw1r2yC+ZIoXXjkso4CpQ0DSljXgPqvDQymcw5LBjcUrPoyW2kANP+oxNy7x581BXVxcBhYw1nAUNZRcomGEubhuTSVAwDWrUVrbt2osendoJHCXiNpAF0+l1oYVRwFWgoO8ncZPtZEC8xXMMl9TBRvhrkcmzYtvZQcHTFDK/s0hzhkRhmIufvHA3bhtzPY7IWOwjExQYf+mh+eo9hXyJnusljwLZSwFXgYImo3l5TYW5GNlvkIRYzqbN5mkKn+KSSy5JOsZRU7eMBmEe8m7Fftzwwt9w25gZGQQFNQJCAy+v8T2Fayafh0IvzEVTp9Yrn2YKuAoUtA5QP/ZRdJTUNNPMUfUeKDTvmYJ1regoqbeNnon+DJ3N0CdJBuRzNPmWTNolVd9TKIoCBc/7KFF6evnTTwFXgYImB0FhO280S0C8wRjRj6AQ4/Ja+ukXtwUPFJoZFAxbI7XK7ajATxfejVvHzkC/HNP7yGmwwOSXkbrfUeM9spM8Cb2SGaeAq0BB+8qb7ykQFAZK7COaj5iyxYTkgULzgwK1AYICb7/fNu/vuOHCa9CrsKNcdkx/UlqAfo7zkcg9hexZo+mngdeCGyngSlDgRleP7DAgngqd7YFC9iy/bPI+IlPmzfd9qEVb5Is7qnn7Pf0005fX9Dt2nvdR+mnutdA0CrgKFPRQ1XOclfjTogdwTt+BOLu/1fuoaQRJVWlPU2hmTcES7JuMmWuGIS5Ek8zgnRF9T4Hta0DIFm02VWvdq+fQooBjUGjIpdL6Xax8qXTHZF0Ml1OOGjz2+vM4qdeROKXPsfLubku6p1BWVoYOHTrUW427du1Cp06dwN+tWrVCYWGhPBvKdODAAVRXV6OgoAC5ubkIBoPIz89HXl5eSld1NmgKpmOy+ks/y6ovj2XScVnMnXv2oWv7UuRqSmeyAymdXa+yQ50CjkGhMUKkkvE32BYfOfOF5dH3KgTleJmPtaurazrMXfOfLqRbU3j99deF8dPtU6fdu3djxYoVEmLigQcewIABA8CQE+PGjcP69evx9ttvY9iwYVi2bJnkWbduncQnOuKIIxqb3oS+zyZQ4DlULUKoRBCtkCNrheJDpngy2+E9hQfnP48rJ49HQRadeyU0qV7mFkMBR6CQDMNPpkwiVNdquWL/2ffEYbpA4euvv0ZtLT3fgTVr1mDIkCFYvHixhJT47LPP0Lp1ayxatAglJSU49thj8f777wsAkPnPnz9f8j3yyCNy05qhKNq0aSP5UpmyARSspsb9qMa/Fs/DVcMnomt+aYYOms2gjZwtRkm9ehLvKXjvKaRyrXl1pZ4CjkDB2mx5ebkwkuZOyk6snmtvKFBzc/UzXaBgHc9///tffOtb34r43L/88svYsGGDaA8EDKZQKIQ+ffqgc+fOuPHGG3HTTTfhk08+QZcuXVBRUSHaxOGHH55SMmUFKBiqgHJfrpA3mn895jr0iwTES79lXwsucnnN9p5Cok+jpnSCvMo8CjRAgQgoLFmyRGzO7dq1izyW/tRTT+EPf/iD2KU3b96Mbt264ac//Sl+85vfiLRKm3ZNTQ327t0rQEHpVCeaMQYOHCh10mZt/a5pM6J8v+sQwu66SpT4C1CUw1d3Yz/c3rS2ki+dTlDgXFRVVYEmJGoKW7duxYQJEwQISktLZT44Z2vXrpUzg8suu0zA4h//+AdOP/10jBo1Cv/5z39w/fXXywBzclIbIC4rQMGYOoKCXF57XoW56J/DgHiZcElVHdA3mufOfxlXTx4t5qPIewq8S9HgOxLJrz+vpEeBZCngC4VCYfpzExS2bdsmoZ7lMDccxnPPPYff/e53Uve9996Lyy+/HDfffDNuueUWYUqHHXYYDh48iCeffBIXXHABOnbsKHk//vhj+fvNN98UprV69eqUhVFmv0I+H/aiCnOX/Ren9ToOg3ofi6IEL6811bwVr7z+PJ2goCebmoI1PPWXX34pYMAfHjbPnDkTv/zlLwXACSQ7d+7EtGnTsH37djz00EOYMmWKzFOqNb/sAYWwvGWgoqQ2Hyio9xSexZWTJ4JH+unXUZJlB145jwJAlKbQv39/sT1Tqueh5Kuvvopf//rXwkz4PsCZZ56JP/3pT7j11luFsTA09IgRI2BlTjRX0KZ99tlng+Gjr7nmGjnY5Of8LBVJX177wxLeUxiMs/sz9pG+0ZwdWy4doEAaVlZWRjQ5motGjx4tZqD27dvjnnvuwRlnnIEjjzwSr732mmgANBvt2LFDwIDzQfDmvD322GPyGTWJ+I/hJDdbWQkKL9ylNIWMhc5WghV89HzyyWEzASE7ArsnN69eqZZBgXqgQI2Bh5F33HGHSJAEBSaaH8hAyHgIDGRINA+R6VhBYf/+/aAXTI8ePYTxTJ8+HRs3bpT8lFztKRmJXcc+unPpXIw6fLAExEtFmItk+hJvPKkGBYn4GQyKNxHBgYkaAOeEv7t27Sp/M+3bty8i/fP8gCDPcwNqC/ybbqksQ7MeAYEmp1Sm7AEF9epZJPZRBBQijqGpHLatLs6RuoPPky/vnkIaSe1VnVIK1AMFeqjQ5EMtgZImQYEmoqeffhqXXnopfvWrX2H48OHC+GmrZrKCAu3aJ554ovjBUzKlyYlaBj/jE41NSTp8GN1Rv2HobIl9xCipvNHsxT4ibZsCbE0pa53X7AAFxZDlLQM5U7gLt42dYWgK6QcF83aEDwH4sGt/BTq1LTHvKTRlI3hlPQqkkQL1QIFeKUVFRfj888/lHIGHk5ROaZ7gZqcp6JxzzhGvFaZNmzbJZ6eccgq6d+8uWgH/ZuLf33zzjVyeItA0NWlQ4GtaO1CJ3y99QIFCXxUllSk7jEdAqjUFO+14x4B0bdu2rdw36N27t3gUMXG+qC1Qe+Df77zzjjgQ8I6CPTV2NpLMnGULKHA16IB4Nz53N24Zdx36yUGzOlhP510F/ZoCgUnuKSx4HldO8u4pJLOevDKZpUAEFHhISaaiDx2pHaxatQojR4503CN9m9ZxAUtGmkZ4ME0/fJ3IsHiYPXToUDGZ0KNpG88y/GHsKarFy2Uf4KzOx2LmmEtREs7DqlWrsWXL5ggwsDwZIzUbJh54E8Ss9fNAVo/xrbfeEiCzfk/zGM9NmMhceQnM+j3NMWPGjIncGtbfNRUUaOJhHWPHjpV5Yd8//PBDfPvb35Ymbr/9dlx00UXiAfbMM88Iw//ggw/k4PlnP/sZaMa74YYb5FYzXVKtyUl0UGp8XAtHHXVUzOnk+oh3FpEdoKC6TSNOGQ7i3kWPYvqIi9E9r51cYNOmnXQLESognnpPQe4p+Lx7CsnwB69M5iiQ8D2FZLvWmGmCTJ9eS5RsdaJXFJkeL1exPO3ju8rKEPCHsDO3Ck9tWoHh3Y7HFcMuFPPRZ598Krd8reUpIR9//PHyES93UXOxJtrTadpionZkBSV+Zv2ewMkDdnviAbzdrbMhUODBPb1+OFZt2yc40aOLEj5df5neffddAUV+x0QXYQIBaXHXXXeJaynPEXhWwANofsd05513ilvq1VdfLd8xrAXb4v0FHkrzh+2zLMNlMJHOPIDmvwlCHCvnhMDA75iXY9ehNe677z5MnTpV6tFhNDRdsgkUKLGHQC+ksNx618FQVOCL9Lmmak2BrTB09gPzl+CayefK5bV0A1Gye9Qr51GAFBBQICPkGQATJVRKl2SmTGQMZM5vvPGG+Lhb4+TQq4WSNBkivyfzppmJzIX3E8igaVLiW8W6Ll1vLPI3DBzKeKTtxHyO885FczC632Cc3W8QWiE3suEzNbUN9TcWKJDhP/HEE2J+07ePyfSpAVDSp8fQ+eefL95bDE3B28ixQIHj463k4447Tpg/54WMmHN48skni3cYLxnyPIeaDOvl+Q/nlVoFTXmcO+1pRu2JB9Gcw3PPPRcPPvigeClRG2A+gs/cuXOljocffljuNzCMBj3LYqXsAIVo41B0LCRZ+mldJro9/cgObzRPn3ReVJgL74mdtE6BV3mSFBBQ+OEPf4gLL7xQquABMs8LtPRM11RKjjyAHjx4sDASuq5SgiRjIsMgo+dtWbpHkrkROGhm4aUqggRDLxBYqAlYY/XY+9xg0D2xAKvNzL8qUYtlG95D/3bd0Lddd+QbduIk6ZBUMW2GkV7ZXvKKBQqU/OnFddpppwmdmXgWwEtmBFSW4Vy8+OKLwuhpytKgwLZ42K+1gbvvvltiFpHRs07OAUGC7qi8m0AwIPjQC+yFF16IgALBiCBE7YnmQZqbqE2wfuaj6YlgwLlbuHCh5KOb65w5c8QrjRoE5zjbQcG6lqJDougVlDlQkHsKCxbiykkTvHsKSe00r1AmKSCX1yhZkpFQ4qdpgZLeqaeeKoyCXki9evWS+DqTJ08WBk/Jn4yDmgAvuNE1le6n1113nXxGhsbDT2ogZEoEENZNRkMJONlklb4Y4oJeSNRvaBZwep9ZM4vGzFnx+ui0fCxQIG3IaAnApDNNWTQVffHFFyLhL126VM4veHA/fvx4AQueiZD+pDfBgpoEzUE//vGPxcWX5i3OAcsTsAnoNOfwjIZAThDcGqxcAAAgAElEQVQmA6eUz89pRqIjAQGKWh61C95KJ3g/++yzkp9aHs1a1BKpPVx55ZXiScZ+s8/HHHOMaBMUCGK5tGaDphCZJ3lPIYjdwQq0z2mNItEoVUp2DSSyfpX5SrnG8njbe08hEep5eZuDAqIpUHIkY6JkycNU2onJiMhYaD6g5E+3UjIF2pbJNGgWIjMaNGiQgASZxIwZM8QuTpCgFsF81CrIeGhSYhlt32/qYJX0F5KYl82Z4jGWeGcKpCfpwsNfSupkxvyhNsZzAQIpmTWZLW34ZOQEDmoWBAbmpccRmTppy7lhPoID54Hf8zNqGdQiWBc1AJqF+DnrJ7PX5xS8xU6QIPjQdEhTEstQ82F9bJ/5KQxoMxPzc54J8tR07KG3swEU9JogQ96FA7jr1Ydx/ZmT0DOvQ0acl9W60EHxzKis2Ri8sTn3j9d29lHAFwgEwmT+t912m/zwAJFB1mhSoMRP8xElfWoK/Jw2ad5M1p/x7gFdUP/85z+LyYIROWny+Mtf/iImKEqT1BrI0BhCg8ylqUmbA/TznG4NiKfjSaX6PYOm0rep5bMJFNQ9hQr87Ll7cMtYBsTLfOwj9mFPRRXatS5Cno7unl7rVVOn0Cvfgingq66uDtOkwANEmiNoO2ZMHDJ4MnL+9O3bV0wLPCilpw3/TcmV5g2CA6XF3/72t2Ly4IEltQJKsyxLKZd2bErHdG+kOSn5ZF4J4hOL22rK0D63NdrkKKNANu2zprqkJk+j5i+ZDaCgTY1kyFvl8to9uG3MDEtAPC1SpIte2v9IuaTOXfACrp40zntPIV3k9upNGQV8tbW1YdqLaTdmYvRMep5oiZ72Zoa+4JkA/fG1uYTmCQZeo2mI5idqFf/617/EBMHwzAQN/tD+TYlYA4w1gFvio1AbTSQvHMTdzz+As/qejOFHDxFbsQcKiVM0HSWyERR+8oIKiHeEv5NxeS3doKBcXrX30f0LlmD6JOWS2rwGz3TMuFfnoUSBlN1TyMShnSY8QeFr3mhecj9G9RkiLqklyDfe3027t6Gj+fc0heZ9o5mTpN7csIfO1qDgaBqbnEmDgv09hSZX7FXgUSBNFIgChQZdQjP42HnsseqTBBVcjGEu7nxFRUkd2W+gAQrZoyt4oND8oMB1RK8fmo9++vzd+M2Y69EvJ0OgYNivrPcUrjHuKUS8n4yFnj2rNk1cxqvWVRRImaaQmVGb5qMdqMCdEhBPRUlVAfGyZ3t5oJA9oMCAeD+VMwUNCootpzP2kd4PbIPApN9ozpfrl3qdetfXMsM3vFYSoYDLQEENzdQU7KCQyNDTm9cDhWYGBYPjq7VSgV8+/TfcNH4G+uR1REGGYh+Z7ylY7yl4oJDenefV3lQKuAoUtGSn31Ng6Ozzeg+U0NmMkpo9ekL6o6Q2deLTWT4bDpqpBoR96uJYOaqx8IvlOLf/EHTy6/DVXE3pP/LVugD7oV2nZZ1mQk1J5yR7dR+yFHAhKIQNTUG9p3De4QMxsj/fU8iHL4s2mqcpNK+mYL/9ThdmvuSdk7HrjqZLKgFh38EalBYrHSWbhJdDlrN5A0uaAq4DBXWP2Se3VP/y0lyM6DsIw49kQDzvkZ2kV0GKC2aDpmCXDzJvvY++p/DQfPWeQr7PA4UULzevuhRTwFWgoLVuepgfQB1Wbv0IvUu6olfbLiIFwvCQygaFwdMUmldTsO4T5ZrKRzHVEW8mJXW2XcvLa5H3FKxnCinezV51HgVSQAHXgYKM2bAXM0a+daPrCALMksmNH2seCAoMCcIQIPYIqimYtwar4AEnLwsy9lFzJMZXYkBFRlVt7kSmXIcgdhwsQ6fidihALnIyuDpoOiIo6HsKReJ9pFdo5vWX5p4Pr/3sp4CrQCGiARAUiAw+hhdTkpfaaNmgI6hJ501whgGRXmX4jgdvlTPqLcNr65TJPjCIHuNc6Vf8mnMb0ClhFypxy3//hhsnXIs+BZ0jL6+lX3SQVSqP7Mz1HtlpzmXgtZ0ABVwJCvoam4YA0ySQPaCQwBykPCu1BAYvfOmll1Jet9sqJChsRzluXHgPfj12huXyWrrXitIClKbgwyPzn8dVk8d77ym4bQG1wP66ChQiUq8RI39XoBwl/gKU+M3IR5mUiLN1vTCsNUGB7y+09ERQ4OW1nzx/F34zZib6Z+pGs6G1EhR4V4I/fPvDe0+hpa/I7B+/60CBTD/k84HPcf5x0Vyc22cgzj5icNZ5HzXn1HugYFoSNSjcwIB4o69XoBDOSb/lyFgAWqvVL0Jn+qC7Odeh17Y7KeA6UCCZudElIJ6EuRiEEdaAeO6ch5T2muYjRqNt0ZqCYR3SsY9ueP4uFSU1h+8pUF7P3FkP+1BRU4eSgjzRFozG5UzMSx4Fso0CrgUFCYi3dC5GHa5iH7XJsnsKzTnRHiiY1I8FCgVhf8Y8wpT3E2MfLcRVkycgPws845pzbXptZz8FXA0Kv1s6F6M9UKi3yjxQMEmiH9m58fm78esxNB91RkHYlzFQ0C6pcxcshj1KavazB6+HLZECrgIFe+wj0RR6D8LIvtQUsivMRXMuJg8UojUFBsT7xTP34KZxM9Avr5MREC/9M6TPE6z3FPQjOzpYHnvhGZHSPxdeC84p4CpQEDuwNUrq0rkYc7h3pmCfbg8UTIpQUq9ELV778h2c0e9EtPUXZdTQaN5oXoSrJ4+S5zgj7ymEldtqpi83OmcPXs6WSAHXgoJ+eW10nyGRg+aWOIGxxuyBgkkVHeKiBiEBAz7amsnXvNm+ek/hOVw5+fx6ZwqeC7W3a7ONAq4DBRKQduIyHMBdLz2IYX1PwfAj6ZIa8evINhpnvD8eKESTXJtxlKnGCDPBuNppttuEwyHxMGIARx425xlaQpqbzfh68xo8tCjgSlCgSaAKAXyyYwO6tu6ALiXtI++ueZIXJO5Ri3dJNfYpASEkkXX/P3vXASZFlXVP9yRgyDlJRhEzkkVFV5Jp1V/QXdOaEBTDGtaAgJjTGsEICOqqK4qKoGRdMYOKSpIsOQ5hEjPT4f/OffWqq6urZ3pmuhsaqj5xZrrrpVuv7rn5qTpZXgEF1klJdK4Cd6kqwsKRKcjoxDUXFA4tJnqorSYlQYEPga8c1XK+5OplPzwvJxB0QUHvEK/skwL4sDWwDw292ZLkqAriqbpZSnuIP5tWQRHqaB0fPCjw+ZGdzvMc3MulwMFNgZQFhUiTQPxf7IP70UWfnQsKpI1i+H7j7I0Rk1/Av86/Fi2z6hsF8bQcn5h9o09ToKZA09GkydNw5UA3TyFV36nDad4pBQq6Iqpy3gVRDD8y5TQtagyJeblTaTOsW7cOb7zxhpiPpkyZgksuuUSmT1PSySefnEpLidtcuU9Y++iuac9jRP/r0T69EaokUa/U0UfjzfMUknEIaNzI53Z0GFIgxUBBSYCUvvJRjHmLf0T7hs3QrmELAQf9baJMAgf7/ti9ezfOOusss2Q359umTRv89NNPqF279sE+/YTMz8xoltpHQ9BeCuIly9hIX4Yqnf2GUTrbGpKakAW7nboUqCQFUgoUhOkHgwh61HGcT86YgDPbnozT3YJ45jZ4//33cemll5pnOLz99tv4+9//XsltkrrNw0CBtY+8rH2UeFDQiZbqPAVAZzQzeU3rtO4RO6m7rw7lmacYKMjpOvB7PFIQ79G549CnVVepfVSDEeBJPszmYNwYfr8fZ555Jr766iscc8wxmDt3Lho1anQwTjXhc6JOyaifTcjF7dQUbKCQyBMVrKCgfQpXDTzXPU8h4U/dHaCyFEgpUKAyzjgjSn9SEG/uePRrpQviZYadcEaN4rfffsOOHTuUWekwAowff/wRo0aNwhVXXHFYaglVq1ZBz56niEiuDtnJxR3TFSiw9lGVoFe+S4akrkJiVVE89zyFyrIrt30yKJBSoKAJoktnExT6tu4itY+oKVhdzcXFxbj55pvRu3dvAYTD6SopKQHNSHQ0p6enSxmFw4kGTz/9FD79dCqaNTtCQIGO5rDzFJIQGKqEEA08HgTU6bGh5Dk3MOJweiVTaq0pCwpWTYHnKbAgHs1H4mT2eEBQeOKJJzBixIhyP5B4axXx7q+0BSVqrGj9Jmq8cj80S4N+/fph3LhxOOKII+BHECyIN/zj53DvOYPRWgriJS9bQGsK+wNApgfIoOSSSLtVZQjntnUpQP4ZTDERktM1fQpynsLJOLNtF0dNoaKg4O6M1KaACQrNm0tQAgvi/bhpKU5qeiRqepJ1dKvOVFCmozcmT8dVA8+Rgnhu8HRq769DffYpBwp8IJT+tiIfj81W5qPe7ZzNR3ZQ0Pinq1JapVz77/zb63WOUolVOk6UdB0IBKLOLZYNa6eDtY2TjGCll71/e4XP0vqO5tuJtp6y+oq2VqumoEKYaddXecvW4zBjfY6x0NR+j/Z/6eij1yfPwbUDz4IunV2RPt02LgWSQYGUBAU67naiAK98/R56ND8BPVqdIAXx7D4FJ01hxowZ6Ny5s5iYZs6ciZ49e2Lnzp2S3KUZ3KJFi4TpbtmyReL+09LSwNDO4447Dlu3bhWzRFZWFtq2bSvPKCcnB9u3b0dubq60Of3001GrVi188803OOWUU+Se7777DscffzyKiorkX5MmTcy2devWjflZ01/wzjvv4PLLL5f58h/H3Lx5MzZu3IhmzZqhRYsW+PXXX9G3b1/HfulvOPvss2XdGRkZaNy4sdzHdU6bNk1owmvbtm2oWrUqWrVqJX9/9tlnsnb9Hdd74YUXgnNiP7w+/vhjtG7dWvIiWrZsiaVLl4L0rFOnjvTDBDvey3tIv/379+OZZ57Bfffdh/Xr12PZsmVo2LAhTjrpJOmPaz3qqKPkeaxduxYXXXQR8vPzwZyM5s2bO66vX/9+GPf6azjiiJbq+wNortGgMH7yHFztgkLM+9y98cBRICVBgS9aCQIoQAmqIB0Z8Br1bDQHAIqLSxx9Cnl5eeJvIIMhQAwYMAA86J7Mmwx/3759wsTIuNu3b49PPvkEt99+O2655RbxT5CZr1ixQp5Yt27dzCf3yy+/gH336tUL8+bNE8bKsFBKrbyfIEImyWvy5MkYOHCg/P7YY4/hmmuucQwbJbMloyZDnDp1atguIRisXLkSffr0EUZN0DrjjDPwyiuvCPMl0Fx99dURO4vS8aOPPooaNWrIfNkPx7jssssEUF599VUMHjxY2v35559CBzJlXmPGjEGPHj3k9w0bNmDXrl249tprMXv2bAEQ9sO5kNkTJE844QSsWbMG7733ngBily5dJNNaA0T37t1lXfyc4DBp0iQMGzYM9evXlzHI/AlgnTp1kkgy0pKAwYuAzr+drnBNAQgEgwh4QvWxrNpCwl49A4jseQph5ykYg7vmpIQ9BbfjClAgJUEhxPqd7LPK2ewECmRwy5cvF0l1z549WLVqFbp27SpSJzUFggXj+smUyNj/+c9/ys/zzz8ff/vb3/Cvf/1LtAVqAGSIlFr1RdBgOYnVq1cL0yNjmj9/vvyklsCcgZo1a4aBApkygYNSOy9K7mSmBClmInMcSv1kqB999JEw5M8//1y+I6Mm0FAj2bRpE8aPH4+jjz5aGOnChQuF0TqBwsSJE2WsQYMGyTi8qFWceuqpMnfOlSDENZAepEXHjh2FXrNmzRLgIJDotgRTHfZLjYntvvzyS9E+qM2w7Aal/ypVqgjDJz0JjgSldu3a4Z577sFTTz0lz+TZZ5+VMFquiX+zv+zsbPme7e+8806T3gy7JW20lmPd+1ZQ4G7YiyJ8vvRrnNmhK+p6q4tOqf29bJcQpmwEvLFCt+QpvD8dVw46x3aeQjKCYivAFdwmhzUFUh4Uor3U0aKPWPKhadOmIrFqUwhrBTELmNfjjz8upgveRyY+dOhQkYAJCtQUqE34fD788MMPZmTTggULxHRDyfq6664TyZmmm6+//lpAgRoJNYjq1auHgQL/GDt2LG666Sb5nIBE0xOlcJpXOAeCCRkir3fffVe0AUrNBLF69erJ52TY1BQ0EHFcSuFa4tc7nOBH7YJgSMZMYOPFz8nAuU5ew4cPxyOPPBLxYtx444246qqrxER07rnnguu+7bbbZJ7UQAhyZNLTp0+X+RM0qblw/hyXwEkTFLUtalLUyl5//XWcdtppsgaun+BEcBwyZAjoa/jwww9FC+G6H3zwQXTo0EHmx7lz3tRG7Fd49BFzWnJx16fPYsSA69EmnRnNuiSKapkQUDByY9R5CtY8BRZpcXOaD2uue5AvPqVAQTsGdY18OpxZBpnF8ETyC/rh8agXvjRQYD+UesmAyAjJhKgNUEqn1EzJl6ajxYsXC1jQrs7v7733XpHY+TsBg+YdMmdKtLShkwESFMgUrZoCmTSlfa0pfPDBB7j44otlnlZQoJmJNnde9GXQJKVBgUyTTJDaAc0sV155Jfbu3St2da71ueeeExPQt99+K3Z4AhjNLpS4OX99/fHHH8LE2ea8886Tj7///nucc8458jtBj/NgFjRNbAQyAhovak7UhsioL7jgApkPf1LbIVCSBgQGmnZIW2oD1Fr69++PL774Ascee6wAHkGYWg81kBdeeEHAgpfWFKidsB+ujz9feuklEJC4RvofuB7t+3Dyx2ifQvMjWhoZzftU8tqA69FOylwk70AmrQtYdQKBhAPo5zjIeZI7vQNMgZQCBU0rSl57sB//XfA5OjXtgOObHSnSn5K/opuP+C2ZExkNGT6ZPC8CBCX7J598EnfddZcw1szMTGFy119/vdj9ybweeughkWhpPiEYvPjiiyLRkvGOHDlS7tXaB/vVdm8yN2oLTCajjZ0MjUyOjPnf//63mEzoB/jPf/4j0vXPP/8sPg6ajyhNk4HSpMJxaZ+vVq2aaCFk5NQs6COgbZ+JapTcaXKhH4RMm2aWBg0amJqQBoUlS5aY2gC1DGoK9ov30kx04okninZB2hEsPv30UwFGmqoIblwH58TrzTfflO9ohqK/RvdN7YIAQqBhOwIEr2igoOdCACXAcFyCEoGDpTz4jPi502XVFELJa/9WGc1JA4VQSKrWFNyT1w4wt3OHj4kCKQUKzE1jVijr2WxHPh6fNR5ntVEhqdWlqoxx1CJKT14jo6Ppg4yXJguakzSTIoOj+YfSMRkxAYTSMpkTnbpktDoahzZ4fkcAofSqzTy8h/2SmdMGz4v3krFpE1K0p8O2tMs7XYzkIQBRi9GgQ8aoGTIZN8djH7Tj04dC8wrXRHMOL2pFjFaiVkQthP0RqOiD0Bc1KTJdakCso0SQIThRM+JFRzyBgiYcmnho0uFFLYfro6RPjYu+Dv5OxzPNazQb8TPOh+1IH5rhSHt+Ty2CNOLvBDvOn/RnOwIktSSaxaiVcOxoNZ1CoNBcDrhRGc3PWEAhGclrIVBQZzRPw1WD3NpHMXEl96YDSoGUAgVNKYKCymiegL6tOpsF8WIJSa0MtcuKay/r+7LGrmx7p/7L22d574+2por2U1a7sr7nfMJBQRXEC6t9lIQqqSbAGv4Enqdw9cA+yPJYfQpl7Qj3e5cCyadASoGCNsPqgniPGaCgy1wkGhSS/3jcEStCAUfzkbUgXhJBgaajYgA6T6GqRZtNTkm+ilDQbXM4UyClQEE/qHBQ6AIFChmlJq/FImEezhvhUFp7v779MH7cODRvESqId9e05zCy//Vol85Ddmg+SlTMkZWSKpuah+xMMA7ZsZ6ncCjR3F3LoUOBlAIFfRynXVMwz1OwvOqVKYh36Dzew3Ml9pDUHBTiqc/ewNCzBqFZZh3jjOZEg4IKeFCaggdvOeYpHJ7Px131wU2BlAQF7VN4jKWzW3XGGUZBPJJav+ouKBzcGy+Rs2NI6uvjxqFF8yMQkLO8A9iNItRCplRI1XFqiZyDjjklKHC/lgRVldRk6SiJXZvb+6FMgZQCBf0g+JLx5LXH50zAWa0JCpEF8Ri2yJh2Rs0k+2KyFaNudDJYssc/kOMxgY/RXLoW0oGYy569e/HwI4+gVo0aMrzktZjnGSjBIVlpAhxHl89mecWklNg4EER3xzxkKJByoEDfAMshM0/hhY8m4pSjTkKvjp2VnVhiVrW2oA42QZAQYtUhKvLs7BmozkyFJQ08QUjuAZPYGNJqvyJ70mxLmRqYiBd2yRkR7Jif847Q98pPou5W4boVN4mEGKUye+jg3tBcnNmoShpU0+KPm4cNk+J2BAZjZsYBP2oN1hmGV2RVM4i2BtLVH4ysDutYKEKGCqekvk/vhGSBAsfjDqSzmUHTOm3O9XFV5D102ySDAikHCuRAZL7FCCIfJWIfzkK6pZ6Nev3JfmJ78WO7y/owQmwznAnryPQnn3oKg68fjFq1a5fDnamckuFs08zFM7AgfK7Kx6Iva+perNKw09pLX11pm5Itbxw6FPfff7+Zn2GNsLGPFgKFMKiIDm46UcU2iWirUDATRAmCKEQAVeCVcATCRfmfesVeR46jah99iisHnWerfVSxPt1WLgUSSYHUAwWDGpSZtfSn1fKKESoG9uBwS3RJLwgBhcGDUatWeUDBIpPHfJ505MS0LhFhIom4VTN/DaE2BaWC8TmsFRUOChV7KpVtpZfLUii5KMGb//sYF/foi4aZNZGexJBUzqMIwITJRp6CaIPu5VLg4KVASoGCna/Riagl64obTuwPJ2SQCI3naKSI+lSffOpJXD94MOrUqh2fJx/j8DHeZsAp744/e0ooKMSA3ybBjXsZqbYZufjXp89JQby26fWTFpLKKfAfTUfjJs/BNZbzFERLMsx98du78dlubi+HNwVSChT0o+KL5pPzFHwSTcLzFHRRvPIlBAVDt4dxE4O9ehx0kCBlcSVdR7ueIijcMBi1axnlKoyzoyNlcYNzCXMIN6Ho86ZDbSzeCPnV1kamrGEhysyMdmpU496wJg6wEuGnsNPM+Nu4b9jQIbh/xAg0btY8ZKIR7hgwmKDTGE70dJqf1n80ucpmp7r20Z3Tn8Uo1j5KY0G8+INhtL2gQWHC+7Pwj0F95ThOPboCBgeT4eHNk9zVH2AKpCAoqIMO6Wj+cMFMnNi0PY6Vgnj65LVw+V7YBj8KBACfD8hIB3jMpt+HPevWInfLZqQHA+IgNg0qHiDgAdKza6LRsccBGXyVlUd1/Y/fI714Pw+3NvwWIYmPB7lk1K6L96ZNx1VDhqAWQcFXjE2//wZPXm6IEQsPVF4PPzyo0qgJ6rU/ypQcS/bkYNvypUgrKTHbKPu7YuW+tHQ0O6oD0urWB7ycbBB527Zi95qVSPMHFNMxHL96+X5vGhp1PAaZnBPXHwigYPMG7Fy3DumyFhLAYLoew79RJRuNjz4GHin5HQQCfmxfthS+nBx46dsxOld4oA6yeWH8eNz14MOo14IHCvEwAR/W/7YI6QW50oWHhDZAlTT0e7xIr10bjY49HhAQBlBYgC2/L0KwiBH+GhxC6/d7vah9RAvUaN6Cx8WV8goFQ7WPDlBGM2etfArTcOWgcyN8Cq7D+QBzQHf4CAqkJChQ+uMZzU/MGY8+rTqjd7suqIHMMPehVs+FX/n92PTHCvz+7Xz0v/IqICMT8JXgmw8mY9G82cgM+OHVAi/Zm4fMyoM6zVpi0N33ANWyFUMOBPDSbTcjMz9XmCL5W4D/EwbskTb1juyI7T4/rrjxRtQkAy4uwKRHHkbRxg1GFX8DXwwnsc/jRZuevdDnmutMprjzj2X4aOwLQF4BvBK7EjQifDwSebU/LQOX3jgMDY47EUhjhUA/Fs//Cl/+ZxKyeH6zVcgmZsCDEm8aLrj1djQ7uqNipH4/ls6ZgXkfTEZWwC9rUWeT0SgXRMALZNZtgEG33o5qzXjsZRAoKcHHLzyH7UuXwEuQFVhUIVeks8/jwYaCQtz5+BOo2bI1PASZoiK8/MAIpO3YKs8nxOTVaGxT98ijcPFd9wBeMvggfLt24t3HHkLh7j1CZ6sewb+KvGnocd5f0emc84D09FKcxgQFo/YRC+L105pCMgriUYagdqSeYKEviGrpas1l6zcup3IpcOAokIKgQNORURBvnlEQrw3LXBAUnK6gAMCOpUvwxxdz0OuGm4AqVUPB6wxZ1TGVYeYXMjsvkOY1JXgJCaW2IRI1/1nc3VrK9XjwNENSB98gpbclLpbMQf7ZzTsqCFWYoVXi5ZwC/EcWoi3TlrVxaEr7PDuCYrpoQhyHcwtpSko0t7BUjsP7pY0xL2Hu1ignYzyukWPIOBZzi9+n5haF2gxJHT5iJBo1b67usK7fHIhjG30KKTmWMTdDI4Of89L0NeZrkoBZYFxHqI111dZdcOBKZ6u5KxhUwKAT11xQOHAMzx25bAqkFCjoF185D/PwmAEKfzFAwb5cZd4IwOP3YdfSxVg1Zza6DR0GVGXtf5sNXzc2rRuW78M4DhlayGRk4ojl9qeefEoczQIK5mWzkYdxBic2YWPujs/SoZ0GHtNuZvFFkBEbf4bMFnagsg9kG8Owg0fD3xtvZPTRCDQ1SoZHrD/KOiKZunVeBvCZa9IopufmTD/R3kRT0KWzByftPAW1HqVN0URIZ3OmAQxlv5buHS4FDhwFUhAUlJ2YpbN1ldRQ7aPwssSKrQTg8fmQs3QJVs2dha5DhgFVqlmcnrHJbZppWRPGQo8tHEBUSOr1zqAQJ+OBMxO1r8UOLFbmGr7poknakXfpTyLpRnPJjTfeFBGSqsA5emKancWr51ZKielAAMX5udi4ahXadDwWyDJ8PlbnuTbpiVaZizunPYuRjD4SR3PizUfaA8Kf3K8TJ3+KKwe6eQoHjtW5I8dKgZQCBbUoZSfegnwTFHTpbGdGosxHOUsWY8XcWeg+9GaLpmCYb2zUCrlC9YjqZ5huYWQThyRu9S0FaR40T1DQp6WFS8uxgVBZD5CW/1DOrn3GZbWO/N4OCs4OUJv0HvK/mscAACAASURBVNFNEEOH3uiYpxCrQ7WsEZSpzI8da1bi3ZdfwS0jRwG19aFEocgoWY9xPvJ25GHk5Bdw1/nXokVWA2QZ8T+Vp1rZdOYYqnT2bPzj4j6oQktZ2c3cO1wKHDAKpCAohHwK1vMUakhgahQzjAEKK+fOQjeCQpVscQso9T7+ryiP9WTyWrj56IA946QOnMg8BRO4/AHsWrMc7459CcNGPgDUrRfVx8E2TGArgl/Cl3XocqKevV2z4g5j6ew3jNLZ1pDUpD4YdzCXAjFSILVAweAKuiDeE7PfwFmtT5bjOFX0kV2yN2RBXzF2LVmMlfPmoLthPmIUT6kmihgJ6HSbHRRilZIrMeQBb6rXmEhQMBfp92PXmj/w3pixuGkUQaG+AyiEdB/+pv8y9Dmjq/hobU7EN82NOqOZJ68N6gPreQrJ0FQO+MZwJ5ByFEgtUDDIS+lrH4ow5ec5OK5xWxzXtH2YnTj8ZVPmo51Ll2DFvFnoeYN2NCcKEgBXU7DWPorfOxHSFHzYtXoF3htbflDgbJJR+cgKCpKnMHk6rhp4jhTFswoviYOl+NHd7enwokBKgoKYlaXImU9S1jINs4Czs5TlNf3YsmwplnwxB2cNvtHimIzfK0lJ+aqrrkJubi5WrFiB1q1bS/noa6+9Fueee65UCq1MFdODeVvu3r0bI0eOxKZNm7Bo0SIcddRRqFKlCs4880zcfPPNcZt6eUBB01vZ9AMohF8EBxZQtGYUJ/qZqL0K5Bb5UT2LZzm4eQpx2xBuRwmhQEqCAimhbMX0CKhIcCZROZae1mRjPD7j/yUePv5+BA5z66234sUXXzRKRQMtWrTAwoUL0aBBg4Q8vIOlU55dcccdd+D55583p1SjRg0sWLBAACLuF0OM16zAe2PG4KZRoyPNR+JvViDMPbELBRi/4CP87aQBaJpex3Zwa9xnJx3qKDWltaoy7pIiEnZGc2LGdnt1KVAZCqQ0KIQqguqSE5FSmFVC18d5hgjmrFtUlKBkgr1790ZBQYF0QZDgQT9kTomWSCs653i0I415sFDLli1RUlIiDJEaAkEiIev2+7FDzEcv4mYnULAsioIDC+LdPfU53H/29WiTnvzaR9ynNCGlBYEM5cpy1YV4bDy3j4RQICVBge/UfvjwZ9521MuqgdoZ2RJ7FHkZ5SGMpFn1faQ7Ol6UDQQCuPTSSzF58mRUrVoVP/30E44++uh4dX/Q9/PII49gxIgREnU1a9YsdO7c2SI1x89Ux5DUbWtW4+2XXsIdo0YBUo02vH/NdwkKG5m8Nv05PNB/sKUgXqI5s+qf/ycgTJw8DVcOPFcK4sWREgf9nnAnmHoUSElQ4ItOk8ALs97Eqa1PQq/2nVDN0ShguJx1SQe/H0jLUKUb4nhZtRHa12k2GjZsGB577LG4jZIKPon169eLpnTcccdhypQpcTuONGLtNAWWFGP/vr2owhwF1rIyLqsvgcxXg8Ltnz2LB/rfgPbeBkZQQuiIokQwaVW2kcZNdZ7C65Pn4FpL6ey4bQy3I5cCcaZASoGCVfrbilw8Pmc8/tK6C85s2xXMU3B6uQMIwOv3I2fVSqz54Vt0vuQyICsUGEjH8Pz588XkURHGazIhiyP5tddew8CBA0VipvmkIv3an3OjRo1MyTtee2Dv3r34/vvv4WM9pzhc9C288MILGDBgADp06BCHHpVtnv6JU089FV4rmGugp3+INDZGC0swNEBBylyYVVI1KMRlemV2okFh/OQ5uNoFhTLp5d5w4CmQUqCgjbGqSmoeHp03Dn1blg4KuojdjqWL8ce8Weg1hMlrodpH7733HpYsWYIuXbpU6Glopq8bi3MzEIirLb2oqEgc2F999VWF5hit0f/+9z/88MMPlWLg9vVz7WHMuxIz1mD63HPP4Z133kHjxo3L3Rv3Cs1HPE+BmkK7tAMDCk4nr7l5CuV+nG6DJFAgBUFBZzTnCyj0E1DQpbMVxcKtxSpPYZfUPpqBbkNuCat9NHHiJJHoL7jggoSSuzLaQn5+Ps4++2yQicfzmjdvnph4Tj/99Hh2G/e+zjvvPLz66qto2rSp8YCNooS6MKFoEM4+Ag0Kdxk+BVX7KL7mQ8cFC8fneeIe5VN4/zNcNejssPMUIgMf4k46t0OXAuWmgCcQCARLixCpDDMr92xiaqBrH7FK6nj0MUBBl86OPOaQoOCT2ker5s5EVylzESqIlyxQiGlpUW4iKJxzzjn48ssvK9NNRNtUBoWCPbvxxy+LcFLPnkAVXRAvvDAh7Ymh6KPnMWLAYLTJqJ+02kd6LzL6aG9BCWpWy0BaWKE/V1eI64Z2O4sLBVJMU1Br1ucpPDZ3PPrSp9AmvMxFOGVCBfGkSmoYKAATJ05MiqZQmaflgoJNU2BI6ppVeHfsWNzCMhd1WBDPXuJbHXtBhrwbhZjw3Ue4tHN/NMmog3TzBLjEawya7VvZv1kBPBEe7spsNLetSwG+SUF1ziP279+PNWvWgM5CXsXFxejYsaP8XLlypUSU8DuaG/izWjXa5SEZvGzLBC1GnFx00UUJJyxnaC2dzSqpuvZRpBEhBAor585Et6FW85ELCilpPvL7pErqey+Owc0PjAbq1I1ISAwvMxGQsijVkWlkvyvTTmKDQ0MhqTpPgSUu3JPXEs4e3AEqSQEBhUmTJuGMM87A5s2bQZMCbews00DnK4GCTJ/M488//0Q6jz8MBnHJJZfI0HRUfvvttzjllFOQk5ODevXqSTves3z5cmkrr2AwiJo1a6Jdu3aVnLIyCbAc8lMzJ+DMNl3Qu31nMFPBOS8o5FNYOXcGumtQMCRLV1NIQZ+CgMIK/HfMWAxj8lopoKA3WyjRsdLbL8YOQqBAzVaf0WytfRRjR+5tLgWSSgEBBTJuhieuXr0aU6dORd++fSWCpFu3bhLxsmvXLvTq1Qt79uxB/fr1wXj0I444As2aNZOzA1gZ84EHHpB/999/Pxgt4nQtXrwYxx57bKUXyLpH+1CMWSu/Q4e6LdG+XguJPQ+lpVkPaFE+BR44z+ijU4fcBGRVNaVEFxRSExR2UlMYM0aBQimls7VOoJ26ybbYqNpLwARWSR3YB1lynnWyZ1HpV87t4DCigCc/Pz84Y8YMkfDz8vKwceNGdO3aFb///juuvPJKvPTSS8jKyhJzEX9mZ2dL4bO//vWv0uauu+5C//798corr2DIkCFgiOfrr78uQEKwefnll3Haaafh119/Fe2C8fbspzIObDlY3ih0xoJ4LHFmFjkz8khV5LrxaSCAnE0bsX757zjxjH5y2Lu6Apg48c2k+RQqumbXp2D3Kagqqe9SU3ggWulspZ0yh8GHAPaU5KFGRrYUxPPIx8lhzGqf8pAdladQNaz2ketoPox4bcosVTQFVvVkvR5qAe+++64w/iuuuALVq1dHYWEhPvroI/mdmgJfJn5P3wF/f/rpp6XODcGBWsPMmTMlUobmJl6s/3PbbbdJ2YMbbrhB+mMJiLKuWBiofqXYl3rFqUOo36z/Dx1Sb2Q0a4YQDGLipNhCUu3z0X//97//Rc+ePcFM5uOPPz5sWX/88YcUhFu6dCnat28vVVP1RdCkuY6aE+nIvwmyTtfBBApWOtDUyHBW+pKYrKcvPmP+q1u3riQGstyF9ZlzPaRX8+bNpQl9VKyZxMqqTldESKrfh52rV+C/pZbOVj2p7Pd8PDV9PIb0+RuOyKwnwJB4nwJHp/iiDtmZYByyYz1Poax3wP3epcCBoICnsLAw+MsvvyAzMxNNmjQRDaFTp07iOKaTmZI/i53169dPJP86depI9UsyQr7IdDSTUdBk9M9//hN84Wl6oo+B9+3btw9t2rQRsKAm8fHHHzvmBMQCAlYCUQLjiVp8veXENckotmgHTtTUce2W76KZjzgfMqudO3fK3T///LPQhcBIAOXvdMBv3bpV/mYMPWmzZcsWnHzyyaJxsUIqTXFz5syRoznJCC+88EIJLd2+fbvQm4yTYEzaEZAPJlCgOZECADVIHYDA7OdjjjlG9gYL3rE89tq1a9G9e3d51izxsWPHDqFD27Zt8fbbb0uGM/cQs5IpgFCTfOihh0QLpfDx9ddfy72kaWmgQHqJhC+gsFLOUxgmh+xEP3mN9vzN2Id/ffocRpw9GG3N5LVkOJpV9FMxPHjTIU/hQLzw7pguBcqigGfr1q1BMnI6kMmU1q1bJ1I+zUXUAMjsPvjgA5H+ySjJ2GgKosnIKvmSqT377LPmeGQUBAxKzwQPllYm06TGQa2iMpcqiOfH+rydqJeZjdqZ1aQCpcejas3wijAOSFkEXb849G2sPgVqQdZ5kxZkeNSYvvnmG8mKvv766wUUKRWzKB6BgEyUNCXzJF2PPPJIceYTbPgdmSjNaSwPQcA8mEBBZyfTXEiBgIxbXwxO4N6gAMD10TRIoGBJCu4j3s+ABSbc3XjjjWBWNktfsKwGs5MJBp9++qkABsGHoGLXtPRYkZqCH9vXrsLbY8fidvoUakcWxNNtCQqqzMUzeKD/kCRmNCvQIShwDnvy9qNudXq+EhvzVJn3ym3rUkB4pw5JLS85yivZ2/snUFBiJCOheYmS6JtvvikSufUi0yQzJoP6z3/+gx9//BE+bxB7q/qxpU4JOmQ1xlO3jUK1YDref/c9fPvdtwhQcQgE4fV4xCQxetQoZKV5UbxvH6rWb2CcqaBGqSgoEPAmTJggvhVK+/SdkNFRqib4ESgIApR+CRgnnniiHECj/SuUmMlkCRIEWkrW/O5gAgU9Fzso0DREPxSDDRil9uGHHwooUONk5BmZfcOGDWV906ZNw8UXXyzaEe+hNnHddddh9OjR8kypoZJ+/F2fO2HfWxGgQJ9ScTH25exC7foNgXSmhIW0RGseQAgULGUugjxTo7w7vmL3c1b8p08D57BJGrpiE3ZbHfYUiAoKlWX6sVCW0iPH0bZk/q3NFLo9JVH9PQGE0rXPC2z15uOZL97GX1qejH4dekhBPF9RMXx+n6ktqD6CqJaZie0rV2DF11+h15VXGyevqVezoqDAuTAUlxIu56d9K5SQaeIYPny4RG9RwyKQUYKm34AM7pNPPhHgoE2dEVyfffaZVBfVBfTstDvQPgU7KPAZrVq1Shg5S4MT3BmUwItaz9VXXy1lOehvIEAQ7Lh20or+B5oo6WsiIBBceDIdNdVoNZMiQUE9V7BaqlEQT9vvRdKRr3mijcp+34Rci6YQKnORjD3OqdCvwVIXDG/QIQ6m1hrLi+Le41IgiRQQUKC6T6ZkvSjZ8WUkw2N+Ak0iDE+luk8pWTsJGXXEIydpW2deAu3jJ510kki/lIzpTOXfZIKUjskEK5urEMponoC+rbqAyWs1mafgaCZWIamsfbRi7kz0GDosrCBerKDAc5f/9a9/CYloH2cUFZ2olIxJo3vvvVckYuZq9OjRQ85S4KEzNLGQMdKvcN9994k0zNwOmtEoSTMPhDZ1Stx2k5x+HgcLKHA9XDufIUGB2h5BgcX6uGaCBB3q9KXwJ9fKAIPZs2eL+ZB7hvvh/fffx+23347ffvtN1k7/U6tWrcTR7hQV5AwKkW9JqBi2Pn+boOAR89HtYj66Ae3TGiWn9pFleqr20VRcOej8sNpHSXzP3aFcCsRMAQEFnq/L5DWRalhmOidHbN6XX365mEBotqHES9MOHaeU6JmIRomPjlf+oz2YoECpki85GQiZIV9omk/ofKWETEZY2VyFcFDobIBCpqNaLozCofaR9j3QNh6tIB5NOlry37Bhg5hLeHH9NPuQoWlQ4AlrZHS86HjmP9KR7U444QRxStPc9MQTTwjzJKAQHOmUZf4G6UIzCpnrwaAp8JkS6Al4XC/nTB8S9wUlfoICtTb6CcaNGycmIV78jP4kXgQArpFawuOPPy77iNI5/U+MRCPAcA+RlgRZCg9OlwaFJk2bhp5xMBDSFBzOx9DygTYf8TyF0f1UldSsoDdpIam6dLZTldSY31L3RpcCSaSACQp33323vPA0i5Dh005MUODfdBaSsfEFPuuss0TCIwOjJsCLdn9KeGSgZAI0lfA7OlQJELosBkM02T6+mkIIFDiXSHttfGofldfUUN77S3vmB1pTSOJ+LBUUmjZtor4PBJG7bQu+nvk5Blw8CKheI6qlXkcf3TntWYziyWvpjcyCeIleF/0IvJinMG7yHFxjOU8hsnBjomfj9u9SIDYKmKDwj3/8Q5ykBAHadmniuOyyy8RG/NZbb5nhhGTq2rHIzGZKwLrOPc1KlP5oiuKmZ8ghJU1mPDPChPfRjBQtHj22KYcK4j06b4JxnoJhPnLsIL61j+LJ7GNd78EKCrHQIpZ7yqKDU/QRax+989IY3CrRR3WjHscpFUpRhE9+nYf+x/ZC/bTqYMIjr0QHpQp+Gf6ECe/Pwj8G9ZXjOM1ES4mG43+u67msPeB+nzwKmKBA5+CyZcvETkxTBv0H1BRoBqGpgJ8RKBhmSacgY84ZLUT7MiNraF5g6Cpjyek4pFbBPAWGaTJahc5WaiDUOHRiW3mXqV/isIJ4LTvjjHY8T6H02kcsnb1i3kx0DztPIXZHs32u8WB2sa7/YAWFWOcf633RaBoGChLK48PONStUnsJIVkmtX+rpaww9KIQPVZEugGA9pTvR7JjTVT6Fabhq0Lnh5ymoWpRJM2XF+hzc+w5vCpigQL+CvlgHifZvnYFMByDtwrQJU3tguCEZ/RtvvCF2dtrBWTOJ5iH+Tv8CnYxz586VZC0CDQGCfgZqCrrCanlJbwWFncjH0zPeQO/WndD7qC62M5qt2Qq6IJ4ChR4aFNyCeGLeS6UqqZK8xucWsBTEIyjUVaDg59Grcgdjko3dZXB9leueXJlcm4goxOzYl48GNbPdPIXyvvTu/UmngICCPcuYyUh0olJToDmIph86Y1lK236R4dO5zOgRXowsYeQJtQdGnTAsk1FHWgqk5lHZk75U8poPi7esRtPqddGwRj2kq7xm0ywgEpj8FQB8fvA4zuVfzMapQ4ZJQTyVx+aJOSQ16U/GMuDhoilEo7FTmQupkqo1hbr1JLc9mtTP/aKy3xUoJFo7UOug4UjFQ3FkAoNOXEvO+Adyx7pjpzIFKpy8Fm3RiTSrWPum5FeMgIABX/box6WoePbi3buxb/Nm1D+6oyQ7qcsFhVTSFMzjOMNKZ+syF+E7wHqeQj5KsGr/VrSq0gDVkWXU001stVINB9xjfnjE2ZxpAEMqMwx37oc+BUxQSCQzTwQZrcXwQlpBFNehLnEhX3tCnj4XFFLKfBQOCiuN8xRGKfORTf63mhp3IB/3f/A87jrvWrTKagh1pgFBIXEnr6nx1S4tgQeTJk/FFQPdPIVE8AK3z/hSIEJTSAVw0GUDtA3ZLIoXvfJRGNVU6QFlTog1eS2+ZC9fb675yOk4zpWW4zgjo480hXVG813TnsXIAYPRLk1nNOvCE+V7FuW9m3tNlc6ejX9c3AdVrDJJeTtz73cpkAQKxN18lIQ5C+svgA9Ltq1Fk+zaaFy9LngkurpY+M7QHcTfGDDdi8FgQIrmaamSCsSkSe4ZzZX18ST6mUf4FAIB7N68AbM+/AiXXHutkafgPAuCwkbsw53Tn8Xo/jdYqqQmeNayDYNSbYNVUvV5CiydLfpJMuJhE7xEt/tDkwIpBwoBo9LpLhTg6c8moHe7k3HakZ1t0UfWl44+hSBQWIiSvTnIaNjEcsiOCkllZBUZY7IOXinPVqLmxqTAO++8UyqMVuaya4GMPmIQQbSS1ZUZK55tWRCRFWlN8xGZrb8Ewf3F8PIUPZ7d4eC9VQ7mECiwzAUzmlWt0gRfBtMP0xQG9oEJCrJF1SGhyY2JSvC63e5TngIpBQqqEqYqR7wVeXh07jj0bdUVZ7QN5SmEnojF6+D3Y+vSpVjy5Vz8ZfBQILOKyURYmoOlLg72i4l/LCIXz4tRZixRYS9CGM8x4tEXz3Rg7STrQT36eE1TO4ziU3Aqc6FAITmiupmnMPkzXDXwbDNPQe1OarG8EufbiAf93T4OLwqkFCgEDFMQozm2CCiMRz+zIF6mcdAOXzPlNTAvnw87l/yOlfNmo8eQm1VBPI+nUkeCpvI2SQW/UWz0tYYbhKsKVkczzUesfSQF8bxaU2D8mmLGiQwRJXhRW9mak4tGdWtKldTQeLZkitgW7d7lUiChFEgpUNCUoPSnNIXx6Nu6C85s0xk14FwQT8DBV4JdSxdjJTOab7gZqFrNeDUTyQ4q/9wSzbwT3X/lKRDZgySEiZDtR0lhITKrVVPnY0S5tKZw5/TnVO0j09GciNmF+lTBEMpAxDgn7dbmTLVXy4WExD4Dt/eKUSBlQcHUFGygEMnorLWPZqDb0FtMTSGxMmLFHojbKjoFNCB4ggHs2rgB0959F1fddCOQXUOdq+BwUUrfhjzc99FzuPec69A6s1FU8SGetGey3PxF6/H7ml0o8mSLVpKGEjTK9uGCM45HtdBx3QnVVOK5Jrevw4MCKQkKuvbRo3MnoE+rk/EX8SkoTaE0UFg1dya6CihUVfkK7uuYUrtcnq1oCQEwo/m9sS/h5lGjgNp1AI+ztkAJPQ/F+GHrUpzU6EjU8VQ1ktcSu3Tu0bW7gXufnowdxXUQRDoyg3txdvfmuOGik1HV6+6+xD4Bt/eKUiBFQSGIbcjHI3OU+YiH7JRlPsrhITtzPkf3obcah+yQZFKi0r1SjQJGRvP7Y8biplFG7SNL5VNZDgGEfiPDu0QmrfJZkvPICUb5AF6ZshRTv9sOv6cKagQ24om7LsaxjSwnsKUa7d35HvIUSElQ4AvHLNXnv3gLp7bohFPbdkI1pEWpfqPMR3Q0r543G90sjuZD/ukecgs0rPB+v2gKAgosiFevvlnLKrTkaMlpybPkszrqwj+L8fCrs7GvJBt/7VEPgy86DtUNcEpFn84ht6XcBUVQICVBga81C+JtKNiBOhnVUTsjGxmhKvVmgQGzaj5DUpcsxvIv56L34JuArFBIqrsnUokCzAgLVUl10hRCqwmFnBIeNERoxVDpEIlVEznmHj/wwqT/YfmG/Xjo1n5oWRtSZsPQU1OJ+O5cDxMKpCQoiHXA4UVXz0xlM+ijS0QaCwZRsncP9m3agHodjjUK4mmmEGIO4bHvTjvAykjsv1tf84pKo079l6evaPMray36+7IY5UHQvzx4VTq7dFBQayJjLkAJft+1Bh3qtUAN0Keg6xIlFhQ4VTn5bbcfM776HZedfyKq2SyWiZ3BYcLF3GXGlQIpCwoaGJxfKidGSikzoCRNwob84BtqSJ/skAZn4XuhSBbl3DRKZ1jv1b/zp+m01rNRgYgIGP2bBZt1P0aOhPVsYQm1NOYXVgPcmCsnJ+NYLsnu1iGanLdlLbJGqzfTWLecEakt7Q60ED+LJZJHh4DqsYR+lrFk/XZLvYXWcrsxL5mfQWjx89tzRXjusrE+k756vt5QEEHArw7ZGfMShtHR7FQQz/ApqKCEXPxr6rO4/+zBaJMeymguD9xW5K3T5ymIs3t/ANWrsKKvQT5LJo0LDBWhrtsmURRIKVDQNtiQ8zAokSQ6jigY9MMTJQpFMWkfAnn58JqMLtyCIPwuowo8VWheYuEkMjEf/Pn5SGOpDIeLfN/L+5klrZAGKClCsLBQ8WsZy5ihfB1AIC0N3mrVEPSmq9IawQCCxUVA0X6Tx8tQpmDuQcDjgbd6dcAEkiBQsB/BElbWiZybfJKWAU+1qtJG8XQ/AgWF8Ph8Efiih0NmFjxmdBbrRPjhL8hDWsAAOoUIJrYKhmRVQTCrasgY4/cB+XnG2q1EU2Udgt40ReP0TLXEYBDBkhIEiwpDz8ZsZqzOE4SnRk0FQP4Adq1Wx3HeTEdznXqWmqRmZSvJDyAobDJqH43qfz3apTVKTpkLK3ZbHmXoWVl/S9Tr7fbrUqD8FEgpUNDLI2vJRRHm/PEDOtRvibb1mhtV8q3M0S5VB1C4eyc+eOFFVA0GTOajTuSi0uCB3wMccVIX9DznPATTCDdBYdRvPvUEskvoNrRfHhR7gS4Dzka7bqeYX/7580L8+OknSPOTJYVyq1UqkxcF6ekYdOONqFK3IeD1AH4ffvpiHlbN/wrpGrBMiAkKIBR7M3Dp7XcgLdsABr8P33/4If5cuhjpATWOxiSCm9/jRZ3mLdD3b38HsrNlEmTuMyZNRMG2rUij1qQZvGF04/pbnNQFPc49X5nYiIl7d+PNF55Htt8H5geYSoxHmelKvF4cf1pvHNO7j2miL9i6BZ+Pfx3BoiIDDpWGwHmR2iWZGTjlwgvRosPxQJpXEtF+/+ZrLP5iFjL8NPdZqaYSv/xpHlx67wggI0vAJnfHdnw3by76/vUCoFq2sRar7K8QVSev3fHZM3iAyWteVkllXnFyr3CtpCwzXXLn5o7mUsBKgdQCBeNdkuMNkY8nZk3AX1p3xuntO6M63XdiMtDcMbRMJY0GECgswJ8//oCsgF+kU2E92oJExuP1IKtJczRsf6RIs8LCiouw+vvvUdVHUDAAxGSnQEmaF3Xbtkf15q2U1OsBCjZtRM6KZUgPEHLUpSpmqhSmwrQ0tO7UCZ7s2spk5fdh17p1KPhznYVZax6vQKHEm47W3XoCWVlqEL8fOcuXIn/7NmnDZSs5XF1+jwcZteui8THHqjbCwYux6ddf4MnLhUdooCR+maMACVC1cXPUb3+UKhpIGhXkYfXCBahC7YIpWAbDDhhmK583DbVbtkLN1u2NwT0I7tuLTb8shFfaGNBjPDvOsTg9HQ2O7oDs+k2U5hPwY8+GDdizdoWAgrLiqeq2Khs4iIA3DS16nQ6kG25afUaGnI+hjTJ2g1AQnAE1hRAoJF9TkOdvFHKM3J0uQ3IpcHBRILVAQTM8sROzzMUE9GvVuYw8BQs4iNNZS8iaWzGaxfALmHZslZXP0gAAIABJREFUiy1e36+QJST2i3qh/Qk2e7/pH7A8bH4m3M5ik/dQYjUYmfygTyHKBiHzExu8wWS1ecsopGD2q5sbfg5qQGGMSNZjGTPMf2GgmjQwGK0MyHXbJhbmXwn5IRRJtE/BthargCzrsfou9Pr1OLaQUllHeTO+CAo0H+Xijumq9lHSqqSW8p67esLBxQTd2YRTIKVAQb9MfNEJCo/NnYC+BijUTFDxgthe4KBDnHz5tpp9HOdxwyOr7COYGb/ahm1zTMe6FgN24l9I1BTkDaAhk49tUhYjXPlkbdN8NJ3moyFJq32kaGjXXMq3J9y7XQocCAocAqCgMpprIiOGqPOYOZB6pY0IllgeTOz3GmYrkajD/R6lz84ZEHi+BPtRQT5+IDcf69asQasTjrfVA9KFx0uLdYk/E4vo0Th8JpRMHiV+zJH2Vgo5USvyMw0Kd017DiPpaE6nTyEJ5ymUuWnKtxfL7M69waVAnCiQUqCgxUq7pnCmUeaiLBlS5SGE7irrtYyd0cf6NAxAMITISFAo7TB55yyKMKbLSKm16zHujTdww4OjI0HBanpynHJZFIl1naH7nGBG29dLi78pm/axgYLyPxXgoU9fwT/7XY4WmfWQmbRiF6XRK/60Lv/TcVu4FIikQEqBgnI+eiXMMHSegvYpZFnYvfOjVpFGoXOuynoty/re0UBQaiNlJ48mj9tBy2kVZqVQi5Zh9scopJWrMX7SJFzzyIOlhOdG9hzLWq2tynt/tLXE+7Q7TQsN/XzmhfBj9Z7NaFW7EbKRmZSCeC6zcSmQqhRIKVDQRJZDS+hTmDMBfVrH7mgu+yGV7zB3R8YY9UMd6lT2LPQd5Wa8Bii8MWkSrn7kQQQ9DKt1vmLpO5Z7Yl+NdVVRdDqHAZ1AMJYxdVfaaEbtknDsNYSCxKwtlpm597gUOLgpkJKgQNa9G4V4buoknNr+JPQ6+mSJPdcMwInkRuyK6ScgU9BSZUi6DGcVuo2VnVnbaGOQ9Yxdh9xeI3/YmQ3pxDsr87amiUVK58oEJmNa7O4yl6APgZWrMGHSm7j2kYfA1D592cfh/SpgNrqPwamNlW7R6BxKJlTRWaE2zjqSSWdjOmpu6nKaYTSa2Z9TKLAqpCEq34ual/o94SWQDm4O4M7OpYCNAikJCnyPi+BHLkqkkg3lYR5qQjOBYqiK+UjUqPGTduRaEqGkWEUJAsiHDyXSRt1l5Q/sswq8qIoM6Z/f+RBEPkpQLKOFMy1KoLxYmi9L5qTmwcJ9++FHifyl75KsBWmRDg+qIl3+6fkWwIc8GU3DTmgtlHYJgLxfigAyKc1DenBeJfDs3ApqCpffcbcY20LrT0N1ZJppW1wB6afWH74WDTp0yJK+6UZxBq6BdYRIe2tOhKY123H9nJ8ONuX6C4XOijHrzA3Oi/eQtqRXdVm/mq9+tjx2VT3BUH4I7+C6aQbiT97BtZDG/KefptUDw3tUG0Uz1cpFA5cbuhRwFOyC5vmGqUcgvyHxFaIE7836GMtzNkqil5QcEilQZaYx4aqGPwP3/X2oWU2VjPe1Ge9j057t8HstkT1GHkF6IIjuRx6HASefhiykix9j276deH36+8jzloDJW56gF0GPSrJiIhgZ1l9P7o2u7Y43WDywcs8GvDV9Cvanc16qDeck/pGgF1n+IAb2PhsnNj1SgITj/LBuKaZ8Pwc+yRRT/auM4CDSAx7Uy6iOKwZchMbV6gpjJTP8cN50/L59FdIChdi2fTtqN2lpnEEcRFrQg3pZ1XHbhVdL5I1mvK9+/j427t0Gv2CLxQXPlIpgEG1qNcLlAy5CdSh/zc7CXLw952NsLtglNNO5EcFgQGDQGwiiz/Hd0fuYruLM5TjLd63DWzM+kvVz/vQJCZv3MKvcgyy/B30798Jp7TsJzWjmWb17M8bP+kB+531q8YpuTDpkouLfTj8X7Ru3FAZfhABmLfwG3678BSXegCqkKs9drYlrqVutFq7rfzHqZ9SQ/SC5FCZ0pd7ed2fsUiBRFEhJTUFp/SHjDSX3n1cuxuai3YYjWhWRI1MQ+TwIVA2ko8/xpyDdsCmQkXyz8hfs2Z9vZPWqjGMyarKttADQsn4zHN20lbgm2eHe/bn4ZsVv2O8tMe4lgzWyqAkKwSBOaNYeLes2MZyZQWwr3osFy35DCRN3vUxOUzoEmb036EVGEDixdQc0r9FA5klQW7dnCxZt+AMBSe7SEi2Zqh/egAfVvVnofORxUjKc31Pr+W31Mmwq2GnK4ixzYcAJ0oJAtrcqzjymswTuskdK7t+sWITdRbkCoiqPWOkMBKE0MtKsmjIOtRKuM89XhAWrFmNPST6CAgpGG8Fer6y/Y6NWaN+whTB4jrOlMAcLVixGiVTN0PoF12Ks3x/E0c3boF295sLg5ayM/Xvx7YpFkpUdKgbF/lTmdpVgGjq3OgYNatSRNsUIYPmmNViza5MB8CrRT/i+KAVBVPFm4MyOXcO0mES9VG6/LgVSmQIpBQr2MEXtQyAjIWMkOFgBQ5sjtPmAUrI2HNCMocwN2hCkgEabl3SbkLlBmSlo2ggZnCKDKjkGjSfank2Gxbkp3SDUv5ZTyVZpoFJhkkY1CsMUEirtphi1NjlxFWyjGLyigg8B+OBHekkhdu/Zg+wGTWQ0zRe1mUp/QprRtMM1aWObZrq67DiPLeK8lGdCmehIY23Y0rTU5iP+zJI2ITrr5xLpJ1G0UOv3GG0U1dg/zVR2f4deizI5cV66IIZaP2mt94TVOMTf2YamsNCTSfRpCuFsQe+y6B6cVGYjZc899JYll+5lz8y9w06BlAYF62KU5TlUL0hLvFbmYPUa6Fh5O/MIOSfN2qYms7aPp1iyZqHhVmprP6F5hV4Iu0XbyixCawmfnTWLQYGKyqQOVakLwLd+PcaNn4Cho0cj6AmFvypdIJwlWV9UDaYaFK1MzLoWTQMnuoV0mhClrGM409pKwVA7q89C3REK2NUgFPI4KMrE+iw1+CaTQVuDIJI57sHC8g739R8szyGWeaQUKEQsyM5Zy1xx+UJOy+wuVPy/1BAWq9smMi7fOVPZRCLlHDGmYocOa+YFbU9BYNVqvDFxEq5++GFVgTUhVyXk3ohnpvoqLW1PLSHezy4hhCml01Sff2XpVYk9U9mh3fblokBKgkK8t1e8+yvXEwi7uSyUs+pD4fK7tOSZBytXS/TR1Y88ZGQ0h6/OYtUPA7KyRhbGHc+yH5bzgELQFcssolDXoalTbyY19Lk/FX9YbkuXAockBVIMFCJf83gz9LIZX7QRY2NopfdvL2Vh79N5DPPTgA9BAxSuEVBQkUa87CYg7Q3RUUf6HrveUip9S12yNvqExi+bQqE2idJx7G9xvPfPIckl3EUdVhQ4zEChLLakS2PbDtKNkOatbFYZP8JZb/Q9VBooaD3A3ru1NzuzDLVRZcEDf67HpLfextX3Dw+rfWQ3POk+o4GGdntbQcO+KqujOZIizqBgvS9sLeYhPKVT0mn9ztQOPeuy2jjtimj0ivZknUBM0zaRbcoaw2kvldWmLHrFup7yjmN9k2Id47Di1klabIqBQqzs14lJ8zNt11XbPpIZxGr3jR0ESnuOenz+ZNyUNYlMt7O+oCrZy3KQjtHGOpv0/GJs3bYN9dscIevTbfRqOUa0jGk9Jtuos8mU5sK58V9p0rt1bprSxnlwYSTQa1RRRxYNJgj4mF9gPBfLSQtme36m/inK8V6OYWc+nKc2k4XaqG6itbEyJD03/Zlu4/Qs9TMkvTiuphHdO0wq1Ou1Bx5oGlvXqfeApp9m6Lotf/L56zbWtTiBu56PtY19r9kZMdsw2liHbuu5MGfECWA0TfQYTuvXNAoFBqg1kGbm8Uh0ifH5WGhmbcdxOC8pVWI/qzxJzPJwGSblQKFyD6YsTaFyvVekNWe03w/s2Q+s2rAXu/cxUNarUgCM5DvG/6cF/WhSOx3Ht2+ADOO0tNz9ASxcvhV5Jfr1CiDD4MTMC6CJ6Mim1dC+WQ3JNGCU/64CYMHi9Sj2MCEtzTxrWb3MAWSgBB3bNESLeukSxskXdfOeAH5auUsSwsIOCQqqO6p6i3DikY1Rv4bKyuYUlv+5E2u2++Dnmdk6RMpIXvMGA6iSHsQZJzaStQgTDwLfLt2BnHyG/HJeOp5IsTtJQMwoRPfjW6KqUb2jOAD8tHw7tufLHWZwrTA6j8o1adUgCx1b1xIAYk96/UVenkano7O0gyGIdPjQrlkdHNmU+ezKyJZbAvxv0TaoDGtDoJCcFhWrlYFinNSmLhrVq6oO0gOwbtteLF2/Dz7SWZiZnh+ZGpDhCeKU4xuhJhNVZHgPFq3ejU27GPScJswxdJKgYp5VgvtwWtd2yDLOdmLQ7s/Lt2NbLp+t9WAodSAUk/bqZ3tw8lENkWXQLK8EWLhsK/YVEfC5K6yh2MwW96FV49rocEQ1Ydr8fk+BD98u3oYSD+83YJZJhSodCGnw47iW1dG8YXUBLe6ZXQVBLFiyAcWoYmxj4xvZAwyp9qFT+4ZoXEvtD65/2YZcrN6SL0fJqq2v6K1yjYKokbEfPU9qIamUTkKDBrhkmR4r8r6nQpvDDBQOvkfCF+i3NTn4ZM5CdD+pPXbv3quyi43zjHWuMY/cbNKgOrqf2F6kOL6s+/KKMH/hMuSX8ANVRKLq/hLsy81FRoO68jJ1bNsIx7RtKnnMbLMz148vv/0ZPk+mYqTGsZryAnoCSA/60OnYdmjdtLaZzrZxRy6+XbTayLOwGJaYsIYgMtN86NnpaDSqU00ITKb467K1WLlxN5jrLBKmHP1p1G0iKGSm4ZzezPw2QAHAFz8sx849hQjQF2Lcq1501S47w4e+p3ZGFYPBFfmBrxcuw459RWb2tpZn5ejTINC2WR106tjCKDvC9Rfjf98tkvUHZc1G/8KAWC3Kj6PbNkfHtg3NEN7coiA+++oXYwzNqEKZ5mnBEnQ/vg2aN6mrAA7AivVb8dsfGxHQhUXM7HeVj5eR7kGfU45DjSwVKMw2P/y2Fuu37EbQk66y343tqhMwM1CAc/v2RKYh25DO3yxcji05+9XcjJMBuRP8XiYHAg1qZqFX5w6okqYALq8ogPk/LsG+/bpEoF4/2wdE+DiqVTMcd2RjIwsEyMktxNzvlsAvoKCy981nKc/Wj5M7tkDr5vXNPbMrtxhffr8IPoFj3mMkbRrrSvcE0eOkI9G0Xra5/l9XbMSKdTtkLWpfWkABQVRL96HfGZ3Bnesy/sTxMhcUEkfbmHrmq/nD8j1486Ov8fS954abVIweRKU3ftdMVEtFbC+mHUptlDg37MDr48dj8Oh7hAmkeZTJQRfP0yYKMdNYFSfjd20G4k+t7vNeKTlhWZE2TemfWlfR+R/WcaSZLdpHSdgW84FlDG1CsppcNA1Mk4PRn16/MB6TiYYMhVy7ppk2hZgmNJviqPUAu5lOJUda82CseeZqXKv5SJt1rOZATUvFIJXCpdevv9M01u2sG0jPTcYxosDCTDvGWgwFwyz1YjXT6IpbdlOlNLU9f11KUY9hbROmMFr2pXXPWNdi3St6L1BbspqctFlLFF3D9qdPrtXtzb158Cn8Mb3rqXKTCwoH+EnxJfjuj72Y9OF8vHDfuaIaa+YWxkgcfSBKylMM0YOgkacwYdJEXPPwQxEnu1m9KPq90ow+JJdFJ4i+V88rYn6aWVmqkFrbhMJh9Uys34b7i+zzs4+lZ2mfk/pc6RbRTAwaUK0rDfGZ8IOY7Pdo8HGan16BNZNct1fztzwrB2nXiVbh7dVfVinZmj4ZTovY1qFpEY2+1vVb/UFOe8H+TOy0itbe6VlGPiNFcQ0Q1t3iYkR8mZgLCvGlZ7l7E1BYvhsTP5yPMcPPDwMFJ1e4fQCD/6qP/QFg1UpL8pr9oPtwJlzuycaxgdOLXOrsYnjzHUFLgArw+/1YtWo1/KSRARyRy1E9KJrqGlVWuOTvxihWcTkqXRT7VjW1yiaeYcEymX52djZatmwZmm6EzSQ6xazkKjvMOjS3aPeW3UcseyuWe6LTqcAHFBYVo242qx07Xdbn5xqYyt5xzne4oFBRysWpnQKFPXhzCjWF88oAhSickVzM7weKS4BVqzD5zYkYOHo0kJYJZKQBaVbF3jpxpxdHFxL36mMHzAblOvCmDCZuZw/G62w5Fy8WSIz+EML6DwaxcdNGXHDBhbjrrn+ZoKBWr4uVGOYybUfRHNq4x+TMYTYtw7kTEf+k7TFmbI3S5MReZ1x2UAkX/1FUVITx48fjf//7Xyk7rXRQUKuLomKWwlTLY7GP+pgt0kqoxIVyqpd92p49X0dZlL5dvBlzv/wGw4cNNKLwnNYfg/QQp3f3UO3GBYUD/GRpe/1+Oc1H/8OLw883nGjRij5EbniR4Px+bFy0CJ6ly5C9dYswkh6DBiG/dl20Oq0XPHVqG5FMmkNohmvjRIYXQRtfwrQQI6PZPJwmgm7lfxnDpFnTOGCyMoeQ4fI9LGv/a9aswZAhQzBr1qwonei7QwaZSOk4HLpKl3tDtZrCqGxmhYfTS/0V6jEvPw/9+/fH1/O/Lt+iLXdX7ImE6B/LwA470sRPUdHMko0STldhUOB7MnPhVnw4dRZeffBK04dTOdEhlhUefve4oHCAn7nSFPZi0pSv8OJ955mRFbEovyYLKSnB7h9/xPsXXoAG+3KREQxiT1YWqvYfgItfGgPUb1DGKmNX653vjPy0VIYU83Bl3FgOrqdBYaYBCpH0jSVHJXw+0eRUzVbDtZXyhczk5udhQP9+BihY1RNt3oplh0Q+9phJX473IvQY+Jv+yzpnfhby8ER7bKXNjaAwY+F2fDh1Nl578DILKJRjou6tMVHABYWYyJS4mwgK3y/PwVtTvsRz910koGB3kFJildfKIWlHXrBgAMjNw3e33II/J3+A6iUl2JWdjbPffQcNzugNZFnd1+q1tb+6sVoZYmcq5eDYMZLXzmRFFjd5Y+muUoLCDUOHYNbMWTrTIIJLl7U2q+Zgl+ydl2C4lo28AqtZpiwbPTWFAf37Y36MmkIs1I6EtBDjDtdNnVdnNx8qaxifQSRAqfVpqsQCYKHZObUtDRRiWXuMW8y9TUW3WQ2dLk2STQHKpxt27MeipWtxzulHmxnL9o2umH+Ij4VLZzzDshh5X87DlOuHwLN7N1qdPQCnvvoqUKOG4VPQyXAh7V7FpIZsvFElOMdCeGW9iuEzLIstRDLcWJ+EldVFn9PqNWsxdOgNAgoW+4b8WhaD1t+rV8UjzC7ENkMri25uUiNaz/KOOBvERuO8vDwMGDAA8+fPDxHCTAKMWEFYlVknKpQOeI67LdYHEHFfiDZOokek+BECG2tX4W0JCp+LpjAHrz/4d0NTKKXCcIVn7zZ0QeEg2AM6Btyeg+AYbGJ8GAEK/GDPbky56h9Yv2QJhr32GtJP7QVkUvfQfDC8plN4SW/FtuxXdOdyNNbj0EeZlhN1LgQlzujMqywQKv1BCiiIT2Gm4xpLc35qBh4IBOD1hpzHdnqVVdfK2bdgMPiYQUFQXIGZsZLwkyScreyVo175XpKytajw2TiDgh5TrVWBwg4xH2lQ0BSwgm35Zure7UQBFxQSuS+ivInRGZ81kt/k5OarH22qqj/lcM6f/zXee+stXPvUkwAdzHKkZ5lyeiljRJltLFymlHsiQM02x8imsdj8oz/Msh3NidwI5e/bUVMofzeHTAttPpoydRZee/DysBpgh8wiD5KFuKAQhweh2aaWtUNKbbj07SRJsq2V7UZKk1om5DcWU4UTq6e4vX8/fPl5SK9TB/CyAFLpgFC6WaF04lhtv/Z4qchz0qKZacLl3XCKxeHhGF3EAgr5+fliSqpatSp27NiBzz//HIMGDUJmZiYyMlS5Bl6PPPIIhg4dKlpD7dq15bOcnBz5Wb16dUydOhUXX3yx/E3tYv/+/ZInobUR3rN48WIce+yxURfogkI4aahNz1iwGVM+nY1XH7xKaiHJG+EWx4vfS6JFQ9enYKVp+SR1q+xqSuthxRaig4KWhKV4WG4Af27OwYlH1ZfNHu5QtkOOfQ9Y2LogTMAoGRMOIvHZOeHyvdWIER0UnG3uNgNCFG0mZIgoS9cpa32xgAL7+Pbbb9GmTRth2gxfPe2009CrVy8BBTLqkpIS3HDDDXj00Ufxyy+/4MQTT5R/zz//PAgqBIvbbrsNkyZNkikVFxdj+/btmDFjBv7yl79g5cqV6Nq1K7755hucc845LiiU9eCM76We1KZcLF66Ehf26STlBdWeqOzOiHECh9FtrqZgPmwts0fE/mj8jNgWkRBShk3F8rUVFH5ctgNvT5mHZ4ZfElb7KLZ9aJf1I2X/shypsY3Du8oy+pTekzXvIRbrU3hhiNhn6XRnLKBAhr9t2zbUrVsXa9euxaeffipMnoBQrVo17N69WzQB5g8QMPbs2YNatWohPT1dQOHUU09Fp06dcPXVV2PMmDFgRjIvjv3f//4XGzduFGDo3bs3vv/+e5x99tkuKMT4WLlfdCl2VcsrYGgJLijESMKYb3NBwWa+iZlyFbnRgROGMpq/wgv3qTIX+optu1fCAOTImWM355R75NiQwEbZco/i+GRiAYV9+/bhq6++wgknnIDZs2cLEFDSP/3006XcBLUIn8+Hxx9/HFdeeSVq1KghDJ7MnyBQpUoVXHHFFXjhhRdwyimnoEePHqJZvPvuu2jUqJFEEvH+k08+2QWFUt6f0rZJZK6zYZYUpSEiCqMib+lh3+awBwVtF1c/SyuhVoG9IvzMDFJ37EDyFKQgHkFBlbmwXqXF41jvqxC/NY+iiQ4/ZjimRVGPWh/HCdDsadExktFawTU2cCy941hAgT1Mnz5dzEXjxo3D0UcfLUz9/PPPl8737t0rGsRdd90lGsRZZ50lmgKvV155Bccddxz++OMPab906VL89a9/Fe2AgEDQ4N+cR1mgQPrSFBURkhoj7VL9tmh7WVV5ZR4PS4bQTKpMpPb9UbF3IdWpFr/5u6BgqVtjbi5TODWO5zQ2n5BdM/qIIgwG8zdq9Jv3SqeGaUrXArY8Px4u8t2y3Zg45Su8MPyvRu0jYwJh9XccHrrdyWamnJTyWpht9Bi63yhtwoQv/qGPLLXdr2v5SBC/poUGxOjrN1fl5DCMj5IgQ8QKCnQiDxs2TGz+lPbpW+jZs6eZL3D88ccLIDz99NN4/fXX5bs+ffrgqaeeQosWLQQkaCKaM2eO+CY6dOggwLBgwQKce+654l+oX78+5s6d65qPovAxp53Iz3gQ1b78QhxRr6qcHaKOYYr0LKjjpOIs4MWP5x70PbmgYDB32VoBP5CXD+TmGhI+AEqCVatJJI9IyAWFQO4+wGdU2NcgQEbIIvHedNWmWlUlWwcCQF6u6pOlre2XNx0LN/owYdZCPDPiQgUKPp9qk1dgHHpg5Y4Go83KBOrWDyWm+fxAzi56NpWzme8Ej+/SDJrx9dlVgRo1jagkJryVAHv3AMVFalbW6YkQ5gVq1QCqZQNSNRRAYQFFZlWAj2sL82cb669ZE8iupiQ5zmX/fmB3DuB3WD/bp2cAteuonArSkH3n56n1V6kC1KjOU2kq5VSMFRQ2bNiAI444Qsw7dCz//vvv4jjWUS6vvfYatm7dipEjRwo5du3aJT6I999/Hw0bNgRBo169eqApivdedtll+PPPP9G9e3e5n1FKH3zwgZihbrzxxqgMorLRR/HzIx0cPIz+uzkL1uKjT2fgxQeHyqFRGg6sIKJyHuhv0CdCHBzzT6VZuKBgPC2eLojCfHzz1NNY+/V8pAcD8HnS0fP2W9CmT18gIxOBgB/7f/4Fk0aOQq3i/XJKlUeOdORJVIoH78vMwv8NH44GPXuoLFO/D0veew+/TJqETL8OVg0dYFOYVgXr63fEjvZd8NSDgxQoFBbg3YcfQvGCn5AVCMBjgImK8AmimBWxGzfG5RPekHnJVVSEj269FXlr1iCTTFWOSzROSfMA+9O8qNatKwbdN1yBXCCAog0b8cGokcDGjUjXYxjKAN+4Yq8XXa67FkdfeJEaJwjs/fFHvDN6NGoXFcErYyiQ4o+g14O9GZkYePc9qHdaLwQ9XngCfuz96SdMHT5c1q8vPYzfCxTUqoXzRoxCo+OOBdLSgKL9mPHyy9j8+QzU7dgRF4x+QAFDJV50ggIl/JkzI5PXDsYXtrKgcDCuqTJzkpDUhVvw4aez8croK42AjGiqZOVyWiozz0Oh7WEPCuZDDAQQyNmNe7t3x6hnnka1004FvJkAJXJKqZLJGlTSNbUEv89iJtHIwqPO0pTEm5GpdBBKyixpXbQ/XBI3uWMafllXiHFTv8G/779AgQKZOsco8Slp3F6JhBJ4ehpQpaoxL4ZmcG4FQIlxlL39eCy2ycxQzJ35C1Jum3MrBkqKQyhl3dWU2mUtGUYbHkFWotpQqxIksPhMyOnZN+/P4vp5dGNQrYXagpOmJJpCuhonLd04mzfAwvnAihV49KHRuO/114HadUNrrcCbF01ToM+A0UV0KDMfgRdzCgoKCiRfgZFFThclfX5HyZRaAaOSeLE/Opz1xRyFLKk9pWLq9Xj6e5bI5vihTGn1TbxBgf3RUc7xDuaLTns69tP4Hlku7urPF27Dh5/OwmujrzAOOQ2BQjz8TgczXZI5NxcUNLXJvHfl4N5u3XDvmDGo2a9vKBvYuuNMYdf4RX8XIbQ4FR+wmWgUp8APy7ZLQbx/Dx+kqqQKo5UvLTZ827Ywv7d8HlavP1pYle31Kav0lXm7pZ3pV3HYqpb7w23Ddh+GpW3YGIbPgia0FSvx8KgRuP+VV4C69eIOCgw/pTmHDmVqEP369ZN8glatWmHFihWSo0BwoCmpY8eOqFOnjuQZNG3aVJLS2rZtKw7lCRMmSNQRQ1bJ1JiHwItgwbZHHnkoFKPQAAAgAElEQVQkcnNzxd9AX8Xf/vY3AR4CASOSGMZKwCB4aBCKNygwqool1ZlTcTBfPEPimWeeEX+M9VJlLggKs/H66MtLBQXX0Vy5J+yCQhgo7MK93brjnrFjUatfP2ViNxygiZJEqOhuyinCkhWbcVb31odt+n4EgPh8CK5YiUdGjjRAIb6aApn6/fffL0loZPx0KDOyiJL8JZdcgq+//lqcwgMHDsSTTz6JSy+9VMDiww8/xHnnnWdqFT///LNEHnXu3Bk//fQTbrrpJsloZoLbO++8Iwx/586dEplEXwWZHn0JixYtkjH5PTULjnfSSSfJfYnQFL788ktZZ2m5EZVjJfFpTRPf7bffjvbt25cJCtHeSRcUKvcsXFCwgcJ93brj7jFjUat//6QkSxpxOQJA1sPStZ5Qucebqq1pclKg8PCIkRjxKjWF+ILCqlWrROpn2CeviRMn4oILLsDYsWPFKbxkyRLRCBhJ9OKLL0o4KUGBOQoMUWUOAi9K+m+88YaABp3UzHFgfgPbUjqnRkAwINg0adJEAOOWW24RUFi+fLloILwYncQM58aNG7ugEAUU1HkKqvaR1aiXKIEtVd+eys7bBQVNQdruc3YhBAr9wpJhVO3+RGy/cLtTeHnmaCewVfaxH5ztQxKeAgW/oSmMFPORUcupglO3+xQYVVRYWCimni1btkik0KhRoyQHgWGp1BLeeust3HvvvQIE1BimTZsm0jwjjJjtTHMTnxfvHzFihJiIaLcnuBAY2J6gwgglmpXsmgLNSwx75fXFF1+IlsCcBldTcNYUZtJ8JCev0acQeQLE4S1IVfDFcGjmgoIJCgzpzMF93boZmgJBIfGxziohR/kfVPq+9cyE0B+JgKP4baP49BSm9vt8KF67Fg+OGIGHCQoMczXLVpd/PDso0AFMZv/AAw9IohgZPqV/Jq/RB0CGvWzZMpx55pn44YcfJCGtdevW4mtg8tnmzZslL4EaBh3FvJ/HfRJYhg8fLgIEtQIyepptOB41BYKJ1hTYB/MceFGrIEC5moKz+YiO5tkLNmDK1Jl46aHrIsysYXvHtR+V/wWxtHBBwQIKwZwc3NO9uziaa/dLDihIQbw8PzZs2Y0T2tePAAZ+zyvx8FSpfRT/xtTccvOwfeMGNKTTkRE9ldDU5OS1G26Q8hX6otOXZh4ye9YmWr9+vQBDt27dpAbS22+/jXvuuSdsbXQcExQIBDryiCYn5irQEc2cBDquqU3wc9rwWUmV3zVv3hyPPfaYaCMEHGoWGhRo8yeAMNfB1RQiNQW+B6u3FGDF6nXo36ujaWpVD8dFgXi+gC4omKAQQGD3bvyzZ3fcP2YsGpzVB8w2VipptHjoyj8KVeYiB5OmfIEX7/0/84xm1XPA1CJU7uZhBg3WkNdKAAIp6RSSSqbO6CMmm9G/QJMPJXxGANEHwO+041c/aZbU5v2MHNIF9Jo1aybF8diO9ZDoZyCzZ1glo4ioKehwV4a+MqOZfbNsBvviRXMVQYNzcEEhEhT4CkpBPE8QaWGFLXhAE5PVYjk3pPLv6+HQw2EPCia7JwOidMo4bsZIG7HlIUlEwUO8L10Qb9KUr/CiURAvHiCU+hmtDE0NPymuPLS3rz/WjGbrGNZjOLU/Kd50jdZfPEJSrX0fyOij8tAsWvSRkzJgy/M3BLjy7BL3XicKHPagEKF8RlUKEqOihkBhPl40CuIRFNRooSSI8L/js5nL87LGZ8RYezGS4piQx4V7PZItXRlHfzRQYAQQTUg16bOwXTTx8HNK9pT6+Y9mJc6DSWB0HH/33XdicrLPjfdRC6ATm6YjndxmHWLdunUSlkpfAp3e1BR00lY8QME6VqJAgfOk9kQTnPWiJsRQXEZs0U9z4YUXxvTwo4KCWUEsKAXx7Fdi3s6YpnzI3eSCwgF+pASFb5fvwZsfzceL96oqqZKyZjmzt8RXov42Xgb+Tpu2lRExcYrMx3ox65ZmDv7j9/qUMGs7hkyyv2iZuweGPNTa/Ajs2os5s2ej74UXAFWyHH0KdmAjk+JnjPbhOvVa7aDAKCHa7xkZxKQx3s+aRIw24kXHMQGBjmQyav7OsNSPP/5Ywlj16Wr8nucn8KLDmn3QnMR/NBnRrMSiePpsBU1P5knQyc1Etnbt2snvzJtgFjWvyoACAYl7QZus2F8soLBp0yaJniJIsVR4aRdNZ6Qt99jChQslT4MgwP2ky4zTz/Lqq6+Kg525B7zfnqlsHyMaKNCnUOBXxQFqZ6kSWdEvFyIq8966oKCpJ0JpUNUZYh03r1UeSaxP4ds/9mDilPkYe+95ZkazlXEzy5ZRKWRMZHh8wf/+97+bDIRLeOKJJ3D33XcL8ycIkMmzjj9fTJYNYB+U5rRjk4lalEwZTcMXmy8y4+ztNvTKbK6Kt1Uhqb5Va/DQiBEYzTwFHnsZQ/TRjz/+KMybCWjXX389jjnmGJmGFRRIQ9r9yazJxEgr2vQZZXTNNdfI/SyBzQQq3kumz1LaZLIEBdKIvgOCyksvvSQ1lfTz+uSTTyRslXRlSCojjZxAQdOfTJiZxpwrmae+KgMKzLPgc//HP/4h4bGcdyygwLHpbOeauR/oC+E/ChOkEQGOYMDMbFZ+Zb9cB48V5RkSXAM1IgosXDfPnCDgMrLruuuuk/t1dFW0vRENFCg8zVy4CR98MgOvPXRtKCAjIlSc76qufRR/c2/F93TqtHRBQZ6VYa4oKMCsl17B6eefj6wj21cq2iXWLWBqClOU+YhlLrQ7mW5mQhPVb0bE0IzBi1mxBAW+sIx20RItmQDNELyPLx+TrsjQaOLgi8wEKb7wN998szAs9mm9yFAvv/xy8yPeSyagcieSd4lT3edDYPU6PPLAKDz48ksoJiB6PPB6gvAGSuAJFsHvrYqAR0esK+mQUivDR7WWwDLYzFqmGYfZxtaCeAwT5ZpZzsLJlMZMZZqGCBA8q5mX1hSYgcwDc3jiGscgwyOtnnvuOQEJhp5yLNLaDgociwyWjJoObv5NUxVBiPkQDIml1sE8CJbYLu9FUGByHC9GQbEMB805nF9ZGc0EBWoxDRo0kNwJ9sVEP5rKOGeaisj4qRnworDBsF2WEr/vvvvkM0Z1MbubUVhnnHGGlK345z//Keu0ai9O6xo6ZCjuuON2tLNlNKvaR1sxRfIUrpTktXCWb/cwuIBQ3n2j73dBwQIKgd05uL3HKRg+ZgwanHWWMKFEby3lU8jBmzxP4T6jIJ7xdPQpUzRVHHVUB9RlAhcgJgoCAE0NlO5p6uA9rNdPiZiSMuPeyfAIEoynp/bARCkCA6VoggJNHIyG0Rf70cyPnzFkkmcN0yyQzEtq5AUCqLFrN76YORN9/u9C7KqShYDHg4zAflQN5qNqIBd70hqiyFtVoFMdZuTFpo2bMG7c62HTPeqoowQYyOR5jCYvrpWfkUmSWZIOZG66eB3vIaOmtsUy2dq8xhLZzGgmUNOvwGQzZjETiJkQRzqzvAXBgKYoAoYdFDgeNRO2p0bBuRAI6IMg89W0J7jFaou3LpiJeARBfVFyv+iii0RyjwUUyLy5b6hBUgtgGC2FBfo/CAhk9lpAWb16tewRAi5pwbb8x0OF+vbtK1oDhRjuV+4nhvOWdhFQ77g9EhRY+2iGUfvoNaP2Uaigr01oqUSAQjL3+cE6lgsK+smwIF7OLtzTVdU+qt2vryr9nOAnR0V3wfJteOfjeXjqnr+FndGspddomoKuxkkbMlV0bfrQUjKLtRE4aPrgy0uwIEMic9B2YErBvJ9MiffrsgsJXnYZ3RtlLsR8dD9GvvqqOqOChmTfPqz7YRZKti5H+/OHApl1zQIhZA0LFixEt65dzAJzLD9BMKC9nMllGhQo4VIiZlgoQVJfulopGeLo0aOF+ZGpEzDI4KgpUIqnL4LtaTJhLsOzzz4rwEGzFO35ZKask0RAJk0///xzyW7md5pxEjgIMPQ30OlMJhqPPAUyXtZk4nxYWI5MmwDEeTuBgjXKivPg3zSPsQ9qBPqIUgoS9H9wzvyepjcKGVwnc0C4Vu3rojmJRQK5XmoRd955p+Mzt2topdU+ElCYOhuvPni5vCf6CpWeNMDBBYVKvb4uKFhBYZe1zIWukhqqeJ0IgOA23ltYgu279qFd83qOmQjTp09Dt+7dUL9eA5mtNh+RofFFJ2iQETDSg8zs119/lWqYv/32m1mZk2o/X3ANCjRz8PAYSqq8CAo0hdx6662V2lAVbRxREM/PMhcr8MiIkRj5yqtG7SPWpt6H9T/MRMnWpWh73k1AVj0Eg17Tpk9Q6Nu3jwAkpVtK8WT0dkcz/ybDJBOn2Ub7BHSkEU0mNMFRMmbCG5kbi9fRB0DaknmS2bMdAZbgSzs+JWz2y88JRDQzkREzyongQmbKi5oCGSh/EhQ4DvvhEZ+8KuNT4F6g1E7TIespMfchFp8CJXlmWfOidsXfqSUSCOir4j/uLwojmpnTHMT10sxFU+b//d//yZ4joJA+vJfA0aVLl5i2RumgsENA4ZUH/27L5zFfYuOXRLypMU3/kLjJBQUd6UPzw64duK9bT6PMRQgUEv2kdVE8bmVrJW79O52XzZo1Ra1atYXZ0FZNpkfJnuGUL7/8spgZ+FKSwfAzOlipBZAh8IWlpsAIF5o2KMHxd54KZtUUKAUz29Z6JTps1dmFT02hGIEVq6VK6oiXXwHqsSCeAoV1P8yEn6Bw/rAITSEvN1dMQHbbdTIP2YkHzQgK/fv3F1Apb388Gc7u0C0LFGIZgyBBcNQRUk7vRSz9mCzcEmGnPyuPpuCy/sRwJhcUwjSFnbjXMB/V6p+cMhfhjzWsJJwJEHQoZ2VlIi1N1YYkw3CKey/PFqFEa3+5KdnSz3DgL6avlsC/YjUeHjkSowgKUhAPynz0vRUUaI5JE7C0WpbtDKO05DXrATtOa6cErSX8ZAGmFRTi8TzKAoV4jBGPPkoHhS2YIuYjm6NZB0JUMus9HvM/FPpwQYFPUTYVNQV9nsIYOU8hOQXxVAAd/0U/hThxIbEH5yYOIsiCeH/+iYdHjcJDY18yzpamBmEDhYw6kMIHBkOIRik7KGiJln4B+h3ee+89idihuYS2fW33589ffvlFzmVmfgLNdQQImn0++ugj0cp40fRDLUvb2vkZY/Jpb2d/1OBoxqJdnsEB7IemLYZ08jr11FPNcGEN/ByP5q14XKkOCqog3p/4eNpMvDh6cPi7Qn9gEopXxuM5pEIfLiiIcG6UuMjZg7u709E8BnX69UlKGTqCwfod+/Dz7ytx/hknI80i4h4O6nFU85EcfVqM3L37UINnKbD0CJ9ThKYQcjSX9sJFMx/R4UzbNwvdkaFTK6PJjeGmjMUnM+VP+hp40hrj9xl9Qx+NFRRoymOkEU1XjP6hnZ0+BmohZOyMvmEeAn04LLTHsZg/QtDh54xcYvSYvirjU3CiQ6qDghxGtSsfGzZuQfcT2h1uVcCSiiUuKGhyB/6fvfOAk6o62/gzW+iwNEHsCIK9RKUI9oK9JGI3GkuMJV+sEZBiATUaNcoiYIsaNVbsYo0NFewVkSJSBYGll2WnfL//uffM3Jmd3Z3ZnbLs3pPg7s7ce+457zn3fc7bwwqtXKnLDjxYw+6+S1scfFBWch0lri4noCk/LtVjE/6nu2w5ziwm4Mvp7qrrwzgBWiWaUQ+FFDCg8GZSm0JNoOD1PnIExIhh5LhP4luPOo0TvI1bwOuGWAYkBQzxGG2J0D3nnHOMm6o3qpzrAADsNUgNnPwp1INrKFICNg7uI0AOkMH+g5SB7h+PI67zegb5oBBfec2GpPEzedXsum42/35LAR8ULCVMgfmQyufPV1OMmm3wEsn+Wd2JU1ipR557X6OvOz6W5iKhiEhj2rJRy0q0VjWzBxTCLihYm8KlrqG5ZjaRGNGMuglGPGHCBJNqAm8iArcABSQFopLx1II5w9yxteCnDzAgLcD4cQNG/QRTR3IgLgEAwD0VULBZVA8//HADLHh/vf3220YyIdYEUOAa/uaZ3mhyHxTiQcHEl7qvY9xbWbe8iY3ptUp5rj4oJNa39/pG5iCFShQUTETzsQYUooid8jI2nAtj6iQnVsHYe4hPMEb2RPVR7UDBSgkAA8FpgAKNKFwrKXgpinRAhC8upTaOgxM/qiCYOYCBbcDGHODZZfMH0ScxDdgVuI6/kQ7wBrN5kQAHYgq8HkM+KFQGhWDAsb0R9e9tOXhNG84LlsJMfFBIJFKOPRmcNBcr9eiESRo95JhGDwrOcuB9FFJ48WK9NGGCTjz3XKllCyftSB1sConqI56EgRlDc1WggBsmqiUYO3Eg5I4irQifExCGSy82BlRHSA3YElAN4dtPagmkC9w4MUyjliLOgchlVEj0RdQ599AX/diWSVBATUZ+JewlNUU0p8AzarwkbSbtuaEq7yMumb6gTFOnTdeJB/dJYldubM4YNS5DrS9o9KAQt5XQYVcEncRrWHyNnOotbJN5dZJNnf3wcx+q9LpYllSXNeZAgVXrvZOVGx3+YBPizdLIYcN1/fhxirRt6zCCDINCbSeRjj++9xkwe1RMpLbAo4lgMKQEDNSATjZAgT4zamiuhuvXli523tUlxHvz87l6/uU3dO8NlON0UtDYGJ+CODtc2rBU223QIO/zQcFd1kA4rMi6dXrippt0/NlnqTXZNY2bo916XJg9UHh0woe6J5oQL8oakwazNcidmKgQICHe9BkaNWyYho0fr0j79vUKFLK9BpmUFBgrkgI2EJs1ttbjd923YcLFESdZYkVhE5N/ypiA6hgrQFlUDP94enmbk/tokZ576U3dlxCn0NjfllqvZRU3+qBgQYEdvWyZrunr1GhufwRxCt744uyBwmQS4j33vu6+7iTX0Fz5pNNQzz5VRzQHFf5pum4ePlxDSZ3dvkMVwWupu6QmUx/V9ELZky+Bfej+kzE9TvzEJGB3sA3bBN5MNpdSTc9J/D4ToOA9taM6Iv0JaiojhSaJJk5tjNT1CKs4slHr5v+okjZtVF6ylUIqdhMT1u3gRFoMMrMmtgqbEO+lN3X/jWdXE9OT2iz8q6qmQKMHhShpUB0tW6ohvfvq2tJS2Yhmh2nxImQPFL6atUIvvDFZwy85MpYQr6GiQEpvY8So8SIzZmikKymIWIU8qY9g0JyyyX1EqmuYPbUocFPFlkABGeoFwHDxaKKGAaDAPd5keylN3b0oE6CQzvNSudZJoR5RIBKU1szTpIdGqXWr1trj7CFSU8DZeoFxXWbriVeVJTXpuBv1u5PKSlZ/jQ8Klj4GFGxCvBgoOJDgtLqdgZIvBH2TvJrKk00DzquUjefUfatkp4cqaetVH43z5D7Kg00BPfeNN95oJAFcSck2S4wCjfTaqDpwbSWugaI7tpG9FqMznkjptvoKCkgJCq1R+Xev6OP/3KGiJs3U97zhKtq+n1TUMuNgYOlmQOELsqS+qftuSJQUfBRId39Vd70PCklBYYxKjiQhHiXYHINzNrddNkEnk5slp31ZUDAJ8cY6NoXC3Bua8RIaMWKEKZxDFDJxBkQ7c2pGP4+kQEZQ4hCIYMZFlbTZxDKgUkJHXhtpoT6CglOMqlxat1Bf33ulgnO+UjhQoC59jtPWJw82GWsVl/w9czsmalN4+S0fFDJH1qQ9+aBgyRJ26ikM6d3Hoz7y5i3N8kpU0b0jstfdgJef0dfhqcEKBWfM1MjhI4z3kVOOM/egAP1vu+02k1GWOANyGRGPgKSAnp40GRTGIU05LqYEuqFGshXsHn/8cXNvuq1+gkJIqlih3z57VbOeulltgmUKRwJaWdxe/a99SNp8V6kgO9ICXnqvf/6rJrz8lsbdkKzyWroU9q+vigI+KBjKOIXitWy5AQVyH7Uh91GBoyONub1lfiPRNwE5hvEb4TtmxWhMaiSHAlZmQp8WUmj+Qj3y4IM67+qrpFatpYK65T6qjaGZUVH/GiYPKCSqj/geNRHBbIAF+ZBQL2FgJu0191AbO91WP0EhKK34WZ8+dIMCsz9S89Aas2vXFbZW0Z7H63enXyW1oM50zRHm6dIDUPjg28V6/e0PNOrKgU6NZk9rfO9KuhRM/XofFCytQiFp+XJd06evBo8ZrfZHkBCPJGwuq6q1t0b1iwEgTJu3Qm998KUuOfOQRutVUckbBgmpIiQhwRUVehLirUxInZ097yMrpSEpkN6CWAJqL1PngIyq1FMGEChyRBlTqrrBzM8//3yT9gKg8Ca5S/21rFuRnXSek961Qa1eOF1fvPqIWgTLFJr3g1o0b64NHbtrfcuttO+A09Wyc9e4okfp9V/11RwXyjm7SWpuQ4g8l3vVu5FIWAE/a2qtSe+DgiUdcQprVuuuSy7VuVdcrva/o5Zskt1Xa1Inv5FNPnnaMj064T3dPeQPVVSUyvBD62F3qblIIinkDhQyQabU5lX5SfVTUghL4fWm0JHC6/TVo3dopx47qFmf46WCNlJRK6mgqZO1q47xCsloX6X7sitjxkcU+bJDbfevDwpRyjmpFbR+vVTcRGrqzUJUW/LWfJ+NaH7E5D6Kj2iu+e7GcIWrTjOBUflRH+WDyvUTFKwilaNMuT564Cbt0rO72vY/RQpgS0hU6mSPcvFga+HCygs+INSF8j4oJFIvbLhPzvxCfVCoZvti57F+XwUwnHC9SXNRl5culXvrJygwcmsF26hJD4zUzj27qf3+p6LUyZo7alSYV8T8r7DKGAjfjy+VvVXTNT4oWMOuiwXWBdVu/1iRx+ycPqoChWy6wNa0KfLzfcKMQ0FtmDNXo66/XjeVlubV0JwPetRfULBvxgZNenCkdurRXR36nyoFAIXsvCM8Ednki59+00dTvtBf/3iUK5MkAwEfGOq6X31QsB4vpp5CUOXzf1XTDu1MPQWjG81qhILkZEldoUef/1D3DHbUR3heciJyUn41hpb4IjtrETIuqcM1YtxYqV3+IprzsQKbAih8+OBI7ZwjUOA9eePzBZrw0hsae+N5rkNGVQDQ+I5UmdyjPihEZVMqr63S3w45RNfddae6HHRgTthyVFJ4/gPdM9gpshOf8TGTy10f+6ritBckzcVMkxBvKKCQp9xH+aKYDwrxlPcGr40nojkSUUEWjNn5Wu/69FwfFOxqmIR4Zbq2T28NKqVG8xGKeNzasnVmBxQmT1vuJsQ7MVp5zSugNB6B2BOn4EY03zzcgkLHvASv5etl9UEhnvIkxJv4xWJNeOkt3X/DWXGRENl6N/O19vl+rg8KUVBwch8NNsFrY1QygDQXjiLHadnZeoDCl9Pm6fFnJ+q2oX+uMklAQxWInVgAXBitrtoldxQUhmdEUqDSGakqiCXYFJoFBfIpZcO9s240YM02KJfqo2hCvJfe0n03OqBQ1RtZWzfgutGk4dztg0K1oGC3XfYsCxjQ2PDBGhLiNVRQMFBgjfxR8cixKVBPwaTOHjtW6lD71NkwiXnz5olayRdddFH07YXZ2gC1+vZKk1OJQDmqvtW/li9QWKTnkuY+ilGo0aaFyeAm8UGhRlDIrv+RR2FSjSySXWklg/spM12BEqGgQj/N0M0jnIR4tQEF74mRKNdVq1ZnZnw56oWEeq1atcrR09J5TH5AYeIXTpGd+/3cR+ksVtrX+qCQDBRKbZbUzOaEr2p1TEiQW58+7RVskDe4ksLMWbpp2DCNGDdeale3hHgNkkx5m1R+QOH1L351U2efU4X6qJEdnrK0/j4oREHBqbw2qHcfDR5TamwKGJqzY0nwiLuSKkjzo1g9heiQzC8UOox3TrVxpYkqpcTCod6x23uS7SNvHKj3HpuozxmFdZWNWVlitR+cHhLHZd1q7bi8P7017ex9cUq6cEgVv/6mh+6/Txdfc43UvIUiBWEFgqv085S3VbFounoe9xdFmrR1K37Fzywuv20kogiqooTJJ7KQxJy4iTRLnA/dee+x/SU+x9Ivpox0BhJOyNFTlYowflxO7+EkO9NL05rm4iVFsnWxY/bOxft7gTbqgwdHaeee3bVZv4FSwElvYe9L3GfeucXGGds31b1n9rn/+2y6Jrz4ikpHXlmp7ogjFdqnZvutzRI3rifd+qDgAYVwWZmu3G8/DR09Wh0PPywOFLKl04fxfvvzUj37+mT96cxjVZjAyfm7pJnUuonDdnnx1lRIZeucUg+JLzd/Fymi9i0Daurk8zPMcOX6iFZXmBIpcYhku4DBdylxEhXwGQbwZWulDeSkS5i8/bN5QUTtWwVMIUbuAtjMPRhJEsZmJaHWxVJJ81hdrvVkLF8dVojX3CYf5HZsLCGpIBxWqxYFamFioyjwslY/TvlIi+f/ql2OOFPrA00U9nA1fi2MSG1bSC2Knecw59Xl0qoNMtd6mbdlnsy7M+l7XEfksCIqWxfQ+gqHFqa5c2Js/F6skDq2LjTzxz7BtJevk9YF4/K9RhklY2lRJLVrEZv/xohUtiaiinAgtp6ULTDp0p3EsC2bSO08NOOexaukUBLex9j4uG1z5z43DlzrKhhbRCGXc8YdIFwptWNLqZnZM84+W75BWrMxlsXXezgoDIf0+dP/0t67dtfWfY+SAk3M/Fesi2hNReWMAGY+rGlBRB1bBaL7nD2zfK1UHvLQzIPWzL+5O3/sbnzVzMw7Po7HB4XMIYoPCh5Q0Pp1emP0aB104olq2qNntEZzNoVSGNaU6Ut150Ovqrgg6ATwG8YVUWGkQEWR9Tr9hIN1WJ+dzMvOCXHKd3M07ok3FarkHcWLElHLogpdffEZ6tqlramnS69Pv/iu3poyTWGX7ZnHRGDEYQUiYRVFKjTu1ktdBo/kElDpwxP1zfQ5CkVDhejfUanBArfr1EJ/v/QstXKKkGnlhgrd/cAEzVq4yj3JWu8th4tyz6G9dtRZJx5oYjHobe6S9Rp5533aGGjpOck7QYMwhKZg+bIAACAASURBVKLIRv3h6AN11P67uLmP1umrTz/TY0++oVXNt1R5QTOFo0dEqBNR00CFzjttgHrt1t2M1gQ+vf+FJrw+WRUBiswnnNkjIbVuVqy7RvxJzrdQLaKHn/tQkz6fqmCgyCBwmFlFmWpYzSOrdevwK9WuuSPJUf14zMMv66vpv3rqFVt5o0AFCmmvnlvqL2ceo2Zudumla0K6+e5/a9kaB7B4jpk962IALqiD++6pM4/royIX0JatDuqam+9XMGDgKC4dHPMvVIVOO2Y/HdZvTwMKzP/raQt07yMTVBFo7pmhQwdDs8KArr7wJPXYpn2UZk+9NllvTPrGXX+XaRugCqhJeIM6rv1JF555vLr3PsjsK7Bg3KMv68sffzXFd6JjAw0iyLthdW5TpCGXnam2rZqYka8ql0b/+3lNn/ub6cPZl5DBQYAiBbXf3jvq3D8cZOaPntWPT8gcACTryQcF78EZEZR8O+aIZpN7ZRMSnBdtfUj68efFKg8553jzxEDAHIwLFdS2m7fT5u1IOOZ8t2xVuWbNX6ZQgcNavY13qTgQVM/tuqi1y3lgCvMWLdPiFesVjjiygMP4HIbCb7x8e+20ddT/m5HMmFem5Ws2uEzEVQ24jysIhNWyqdRjuy3UxDnkqzwsTZ+zSGvKDft0q9a5N0SAk7A6t2uhbTZva57DN2sqIvpx5jyn8LthegHDFEh+x8/CSEhbdW6nLh2YP7aGNZr66ST9PHW6tu57nNZZUDAV8tx7FNT2W7ZTxzaOkZa5LFq6SvOXrFRYheYZRspyq+oBisUFBdqz5+ZRXTX3/LJwhZasXGtAlVTMEXoyJ3EHtIq0Qbv17Grmb+r/SJo59zetWBt0JJ+odGG4nKFzh1ZN1G2rjuakzPw5IU/7eaGRrhwVly3zx1wiKgxEtFm7Vtquc4mhB1+XV0jfzZivYACKuiKFZ/58uk3nNtq8fWv3ICGtWFNuxhYKOLJQtDPUgpGwGU+PbTuppHmRe09Ec39bpV/L1pi5OLDnrGUgElBxZKNmvvmw+vfaXVv3PToqKcyev1TLV1UoaNV17qnezD8QUYuiiHbq2kVNXJF4Y9ih2ar1FQZInSVx5TskGIXVsW0Lde3SrrLKyN34FuIN/Pq2uTojhg8KXlCwGoKYj2SdCZxKB2xmGIo9U3rPfvzOK+LNPwkjsP8S+6cPe701k9t+bXq5pKcDtzSK9wXj+jh1k0crRJ+MyVtTms+S3eN9XuI99G/v8WpDDLihJwGkuakJMEJCvNWaNeUdlS/+RTsff5EqirwSRowPMy6vm4AdWzyExkbGsxN93+24qrvHzseCD/Ox9E5GZ7s2dq7GJdnBjKT2K696y0sf1C5VjYvn2rnYvWT3i/ceF2Oi2GXnYtw6A4Hounivs3MqjIT1wb9HaZce3dSp3x8MKHAQqM38q9rLFlPtWiZqywBp57PcOISk8i43hGt8UHBXMSYPOL9ZhUduFtme973bPv5VdM/pUbZcHUOwY47vLdmrHT+7+JcuNiaLkV7ASNTpenuqbmyVX+zkeZ4CJMT7Za6uHzpUt44fp0ir1k4sYXCVZn/yhkKLf1T34y+VmrQzCpOqmqNxcHT+NdEskfp2F8T69vaQfK3iaVR5VI6+3pE2nJk7rC/Z6nj7Ska36vZmutdbBpzskJH4mXP436BJD5EQbwd1MKmzmyUYmqvK3WVnHD//mt6zxPk418e/tcmvqaln//tK6xupr9E7uV4rOB9VvjZscCp9mXoK+dpmsc0eTwZHD1/lC1xldbiq+quKyJ6Xrcoa0TWDTM1XOAzbzMcGkqE242UPVSg8faZGDhuu4eNxSW3nHAgrVuuXKYDC9+p23GVSkw5RUMjkaiUbe1xgFNb3AsvinRWJgwnXGyb+cJG4DtUwtWqWLBW6Vl7ZJHe5tPe47aT41iHabNBHZEnt2V3toqmzPRSw8zc/vTKrd/dWty9T37NWsqnqvUhxUv5lLgV8ScFuBSqvrVihy/v20dDSUm2G95HRpWa3pb71q2fgzmm+8miri/BMZBNVnYPNmSxFl7+6zCfu3mBI4enTNGr4cA0jTqF9fJbU4OKp6n78JVIxoODowb0nx6RH7+wuZXQEzCOq0KiRg9eFYrE5R4zOPjbB2GP5zf7zKvuSE6Pq/eIdJ7+7aS6op9D/VAWEAds6ISTIWNXSwKmRYB0Yko0qKul5DxCWgXkkQXuvn+aibhvdB4XoTgorQpwCNZpLS9V2wADX+6iuL23qC1SZKce/2pUYXyIjTFCVZBfQKr/plSlVPUes9ttghcI/TdfNI0Zo6NhxUofE1Nk/qhug0IQazZkqFJ9srdNf/+TzSocWNSJJ6psqzlKVqISMbv5qpeLkK73ezX2E+ug0oz6qXrKubk41zbf677FJ+FaFNLZEDZf6oGDtB6iOli/T4H17a9CYe1VypAUFexrLLotNOOe6yxaDicqnequuSGBartEyG6J0/BgqV3xIzjyqpluNoBDNfZQqKNTEXGpiglXdnz4wVH7vMgsKqc7UGUfiynnZt1eK8F5dExNHUrhJOxubQjwo1AYUq+dT6dAuc8yxsfbU6EEh+roDCmVultTSUhcUcnv+qLT1zQcxYHA2aVWnvfgtnA32VhmYsmV1SUiIN25crJ5CxUrHprBoqispdPBICqkw71SuiTHH1CleNxaSHpOvbAKvzdMdSsRbqWIQ4aFT0o3pzZIKKBBdmAyCUh+Z17xZ/zLDpj6PTf3KRg8KsZ3sps7u1VuD7iXNBZJC7gqRb+obKTPj9wBgXOrscVK7jk6ocsVKzZnyhoIGFPA+AhTyv07vvfee9tprrygZSH399ddf65hjjjGfzZ8/X2vXrjXZWg877DCtXLlSJSUlWrJkiZYvX67OnTub63799VdtvfXWatnSiUux7bXXXtNRRx0dtRtUVFTot99+0+rVq8Xv9AEj3X///c0t77//vvr27av169friy++UL9+/VRQUKDiYjfSsA4L5siIiamzmypCMKTrNFCH7v1b80wBHxSixxtvPQULCrmVFPK8F+rR4x1JIUjlNVOOE1BwbQpxkgLeR9gUHFBwDrSpSwKZnPA999yjAw44QC1atDDMf9q0aZo7d66uvfZa85gHHnhAvXr10pdffmmug0Fvt912+uabbwxD79+/v7kOcNl11121+eab6/nnn49mSf3000/N/dOnT9f555+vpk2bqry8XO+++6522WUXcy8gw78FCxbop59+UjAYVJMmTbRw4ULtvffe2mqrrSqBTXo08EqtlUEhPmolvZ79q+sPBXxQSACFQb3306Axo9U2WmSn/ixWQx5JjKG7NohwSMHFS/TShOf0+3PPlVq0cFRpwVX6ZbJVHwEK7aLqo3yCwv33329O46S6Rgpo3ry5XnjhBV1yySVatmyZXn31VXXr1k1Lly411wEEO+64owGPOXPmaM899zTLO3nyZHPa79KlS9xy0xcSBmAC8ITDYT3yyCMGHAChzTbbzHzPd88++6wBDMBlw4YNatu2raZOnaojjjhCrVu3rsM2igeFSbikRms0u4bmqqLw6vBU/9bcUsAHhSgoRBQpK9Pf9uuvYaWjtdlhh7pJyfJ19sztRsjn02Jn+4Q4DPOF+63xtwxLFas8NoXLpGIneC3fOuiHHnrIMOcLLrhAY8eONdIAp/4rrrhCFMxBhVNUVKTFixcb5vzdd99pn332MT8BDVQ9NCqt7bHHHkZSoM2ePVuff/65ARTqK3Tq1CkKGAANIMN3gMTEiRN1yy23mOpyPAs1FBLKTjvtZICB5yEt1L55QCEavNbdGJojxvvIWa58r0Xt5+ffCQUaPShEGVIkrMiG9Xrj0cfV/4gBarXdttmyovo7z0OByr4vsS8r+5s7oBC1KZwAKMTUR3FxCjmmsgWFk046SY8//rgGDBigt99+W1dffbVmzJhhbAdIEd9//71h4F27djUSA+oj7AJe9RESBKCACqhZs2Zat26dJk2aJPpGCoHZw3ifeeYZAxQAyaBBgwyAAEZPPvmkUU316NHD2DAAjm233Vbdu3fPEFWc4LUPHxqpnXvuoA77nSYV5DPYM0PT8rsxFGj0oGBTDRgHTzyQguRrLnCimhOYV/adUhvnrnQEAjKQJthw4ryvYpLCnE/fUPBXDM3JbAr5oSGgMHDgQKOegckjNTz22GO69NJLjaTQpk0bY0T+z3/+Y2wCHTt2NAMFFKZMmaLtt9/e/P3tt9/qtNNOM9djjzj11FONJNCuXTs9+OCD2n333Q1zB2B45plnnmmkA6696aabzM+HH37YqI6OOuooo8JCUkDt1LNnT2NjqPtJnoVJ9D6qKU4hP+viPzV9Cvig4MkzaoChCt/AdF0G01+Kxn2Hk9zMAwoA9Oo1mjVzhrphSG3azLEpGEPz6wovmqrtTfBazKaQTwp++MEH2v+AA6JDeOaZp9WzR0/tvsce5rOPPvzQBEP2cw3K9sJ5c+eaHbjNNtuaj2bOnKHNO3VWqzZtzN9z58zRJ598Yn5fVrZMl1xyqfl9xvTp2q7rdpr6w1R98eUXOu+88/XL7NkKRyJRgPnwww/Udbuuxs4AOAAo++y7bwbIxNtQrkkU2emxg4lodlxS/WNTBoib9y4aPSjEfLXdqC9y2rC3kRb8licKODWaK2bO1q033ahho0ulNm0dl9TgSs2ZPFGRhd9qu2PPk4pLEuJZE9PIeb2RvNCe8LubejrG2JJdW01f0fshmZPszSmM4e4nT+rpuO8Nhe2zvIZctx97f6rjw/YStcVUQ4toJuDEOSWMv6rxRTbqk0fuVM8dd1H7fqdKBT4o5OllyfhjGz0oOBQFENBXV+injz9R1513VpNOnRJqO2Wc9n6HHgrEcu7AR8MKhMMK/+S4pA4bO06R9u2cLKmhVVow+VX9NuVZde62u0IFtixOQippSmKEyc8fy0oaNWNTMKcgrIJIrB4FhWPCbqCgqXwQCJv7kU4clm3rkTn1BLifwjF2/1S6Pyr5OEzX3h/93RQ3ij3ffm+eRVJA9mPcyTs++Z6th+Akg3PT8VF2NJpcMCzK+sTysFqgcnAq8VCfOP6YyT+WMTjal7k/qJnff6M99j9G7fufbspx+pJCw3ilfVCw+YIiYYVXrNSVhx6qwXfeoc4HHSSHC/ktNxRIOJkHg4pMn2FAYahJiEeW1AIpvFGhsnma/skrqgjbeg8wUQAgVv0BMPAy/USmDNM3lec8hWNMtS+XhdNXbe93nmUz8ri1gyPxTN1UVnOfz1NJvWiYbvSk76jTvEw9VlDJ6d9Rt7mSiKd/8/wCCkY5s6GiG0w/CptcC33czLTm+e5n0fl76tNZUIzSytQniqigoFi79jpIBZ12SFKNIje7xn9K5ingg4KlqUlzUaZr+/TRoNJStfPjFDK/26rtsTpQIM0FwWsFzjE3TOHgtY50F2WKTmnRuNg1ywgNP3SrjdnC1k7Nx/jMqm4JSOfo7U0iVdW1rnrGXuu9P844lageSujfXpvK8y1oJBufBTWvqsnh+A4yJH6fSItUv7fSdYAi2E1dz6P8R5XneMM22Mf5oGCXFgazzM19NGaMSXNhzo2eQucNdhfUh4m59QmiQwlWGElh5LBhGkY9BQsK0Qtc9Y05Dlejk7cMLK6WMR9WZTNI1MN7r63GJrHJ9O8osKqefyrf20WwtOKnb2SuD69RJsbgg0IyUCgdo5Ijj/T3eSZ2WG37CFZIP83QSNRH4z2SQm378+/zKeBTICUK+KCQAApDevfRtQYUvKmzYyUdU6Kqf1HdKUA9hRkzDSgMp56CtSnUvWe/B58CPgWqoYAPCklBoXLqbL+aU3bfo0oOMcGgNsz+RTcMG6ZbSIiH336Br6LI7ir4vfsU8COaY3vAtSkM6k2RnTFu5TXf+yhXL0kcKPAH67F2vZYsXqzNttrSqZntY0KulsN/TiOmgC8p2MWnRvPy5bqqT29dN2aMOhx+uCLGJdUWIbEGuEa8W3I5dYABjzBjw8RzxkeEXJLff1bjpUCjB4XoCRVXx4oKLftxmjpsvZWjw44eTb1Rn413s+Rm5pUjbIFlHxJyQ33/KT4FfFBw94Bx0ot42E8cF/JBIXeviktrKynwYGNL8KWF3K2B/6TGTIFGDwqNefHrw9yrhNtIROEVq/TFZ59q3wMPkIqb+Ibm+rBg/hgaPAV8ULBLHI1/cpMJkH8muvy+pJCLNyGOyqEKBWfO1o3DhulG4hRK2vqgkItF8J/R6Cngg4LZAqQxiEgbNujz557Xnvv3V9G22/hRmnl7PZwazeHpxCkM03BcUitFNOdtcP6DfQo0aAr4oOABhfDy5frbfv00rLRUnQ49VJE4aaFB74N6NjkLCjN0s0mIlz1QoFbB888/b2oO+K3uFKCqHKU/r7zyyrp35veQFwr4oBBVHzm5jwaZhHjEKRxhXFJ9r5d87MvcgcK///1vU+XM1kjOx2w35Wd6q7jhqEHp0FtvvdXUhvbbpkkBHxQSQGFwbwcUSo48Ipo627coZHtzm2g1RdzKaySGdtRH2ZcUAAVKYR544IHZnmSj6H/NmjX6+9//rnvvvbdRzLchTtIHhThQWKohvfu6uY9ioNAQF75+zcmCgiOXmf+6oGCK7GRRfQQoUOT+4IMPrl8k2URH44PCJrpwnmH7oOABhciyJQYUHEmBhHh+movcbHFHFosr5hIMKuQmxBsxbqzUzq2nkOEBAQpdu3bVQRRV8ludKeCDQp1JmPcOfFCw7AjvI1NPwcl9RD0FHxSyvz9jZTgTrDehoDb+PFs3Dh2qkbikUqM5CwnxUgGFZcuWqUOHDoYYv/32mzp16pQRwjD3GTNmqEePHlX2h46+SZMmKioqcoIr3XQfS5cuVceOHePu27BhgzZu3GhsJOvXr1fTpk1VkFBrPJXxz507V9tsg/dd8lZdckgfFDKyNfLaiQ8KFhRM5bXlGoSkMGa0MTT7oJDHvUlCvPINWrpokTpuuZVUVJyV/Ec1gQLM9YorrtAdd9yhUCikxx57zDDxww47TDDhr7/+2hBpzpw5hmHvvPPO2nXXXQVzXLRokV588UXttttuKikp0V577WUY/OrVq1VeXq7mzZvrs88+M99zLbaNH3/8UYsXL9aWW26p4uJivfvuu9p33321+eaba+uttzb3wugfffRRDRw4UCtWrNBmm22mZs2a6fPPPzeGXqSehx9+WEcddZTxqmrfvr3mz59v+gOEWrVqZfqjr86dO5uxrFy50gAB48NIfMEFF0Tn9e233+qLL77QVlttZe5jbMwlWfNBIY/vTIYe7YOCJWQ4pNDKVbqsX38NG32PtjgUHbOvPsrQPquxm0qps7mDamy23GaWVHnVgQInYk7ef/vb3/SHP/zBgAJM9bzzzlPLli3j5vTWW2/p8MMPj34GcwYkJk6cqN///veGqe6+++6GMcNkKyoqDCOmT07mMPf/+7//MyCDBDBv3jzz8+6779all15qmDf/vvzyS5WVlentt9/W/vvvbxj7CSecoJ9++sk8G5dQJIQpU6Zojz320BtvvKGrrrpK//rXv/TnP//ZSBs0+gDUuDYYDGrChAmG0bdu3doAEcDSq1cvLVy40DwToKLvdu3aGU+tbt26+aBQ467eNC/wQcGuGy/Lxgqt+ukntdlyC6lDez94LYd7OhEUclW/oiZJAeaOpHDKKacYBj5t2jTDMJEIYJSME2kCpt+/f399+umnOvroo6MMmhiIk046yZziObFzquc+pARO3P/5z3+M5AFgIE0gAaAa2mmnnYwaCEkCsEFlhQoLBg5QMe6zzz5ba9euNdLBqlWrDFDB6AGZfv36GRC5+eabNWTIEH388cdmTFxXWFho5tKzZ08DTvx77733jAcW0sCrr76qM88801xP3zzj6aefNiAEoCEtICn5kkIOX5AcPsoHBW/pdnMwjcTSNSc9vuZwdRrzo0xCPCLNQ44toSA7heFrAgVO4tdcc42RFFDzTJ061TBzGKq3JUoKqGQ4WdP/n/70JwMKqJVQ3XDyhsHTD0y/e/fumj17tun/o48+MowbNQzfw+BRGwEmnPwBhbFjx2qfffYxn3P9scceayQFTvmAAgDyzTffGCY+evRoXXfddZo1a5aRTLjm119/NQC1ww47mP7p83//+59RNzE2xm5BAQBD2gDwAJ2XXnpJ2267rQEQpIzE5quPNv2X1gcFdw2jJ1MjXQMMARcgHANoOidXXgwaDKCqxjWc+Hg56ZvTGC8nLy3f8WJagybfoetF9bB8+XIjwnsb98OAOAHSOPlxLQ0mAWPjJ0zENj7jWd6/eW6XLl0qDRkmYj/nGjsvmAwGUKtKYT6cmjnxog5B981pN73mRoUACMuW6NOPP1Ev1DLNWqRtaMZATHStpUuycVQHCpySOfnvsssu5oQMU3/hhRfM6fmyyy6L0ph+E0GBzyZNmmTmjxTgVR/deeed0YhfCwp2TRnzd999Z57BZz///LPR9QMc0JpxMCae/9BDD+n00083+wR1ET+5jzkDKLS77rrLSDpfffWVARukB57BaR+pAFCwksIf//hHs7aPP/64AYUlS5YYqQH68UykF/oFKFBFJWs+KKS32+vj1T4oRFcl4hR12VghwVxdpprqosGYYYQwAX6iGz700EONTnaLLbbQa6+9Zpg+Yj2nRF58GPeOO+5oruflR6Tn5Z88ebKmT59udNk0/oYx0A/qBtQGNJj1Bx98YO7jheekCXjwTPTMNPrh1Pj999/rhhtuiE4HJgFz4LRHP7zMnERhfB9++KExXOKpgj78kUce0TnnnGPuhdGh+oCpoOo48sgjDfPYc889zffcwwkU5sWcYDLHHHNMCmT0imURKRTSxlmzTEK8kePH18r7CF064HrTTTdVAlI7oOpAAYDjhA1NYbp77723AVhAj3WjYWCGySNJHHDAAdF5Mnfo0rt3b/OZBQXWitP4fvvtZ9YJ2l544YVRTyLoB8DAeLEpcD2qKgCdNeGAMGLECLMHWG/UU1yDPYDx8jv0Zz8CYDDyI444Qk899ZSRHP773/+aNWcOHEiQAABz/gH8qJkAAJumgn3D2AEvxgEosEcBSh8UUtjWm+AlPijYRQuHFFm3To+PHKnjzz5bbXbexY2iSj3RBcyUF4uXl8YL+uCDD5qXnpeXF5RTNQweRs2pDv0zYAHj50QGs3n99dcN8+GER4Pxc2rEMwVGA6NGncDJkZd3+PDhxtsEXbdVT/Tp08cYOS2T5ncYEc/EcMlPnguD57SIUZSTJgzDuj0CVhgk33nnHcOUTjzxRHMfJ0tACLUC4MPpkwbwoQ8H9OgXbxruh5lYmiR/RxJjxt2I5pmzTI3mG+4b72ZJTc/wD+PEW4ixoFc/7bTTTEyCV3KoSX20Cb7TWRsywAFAeluiBO1LClkjf8469kEhCgq4pC7TNX1Jc1GqDsQpGEWSw4hSgYZffvnFMFSYKcwYAyKugEgH6HVhutaNEMBAfUM0LZ4mM2fONKd6GCr3INrDSNEXl5aWGhdBXAV5KTl9coLj56BBg4w3DAZQJBNAgZMdhlHGgMQCY+aED4AAAIADrpIwelQbnHZR9VhQAHg4LR5yyCEG2GD2jAndOqDwxBNPRI2hqKUAFyQJJA9OwZwm33//fTM3ABDpid9hKvfdd5/x4InlzKmcRIQ0F4WhsFovK9PkSR+q74AjtKJFC5OLyl6dyhsCaEEXs36BgBkXgIpHj23ZAoVU1I2pXJPKPOvTNT4o1KfVqN1YfFCwdMMvPhq8dq9KBhxpkCDdF/faa6+NuhYixsNo0fHec889RlJABYHLH8yS0z7MErEfUICBw8xhwnzHSRuGixERmwHMFbUT+lyYHVIF0gRqIVQOqASQRPgHs6dxHf0imdxyyy1GTYTvOn7xSCOAED9h/vSNpwyqHyQTgAIVB5IA/Z9//vmmTxg719EHEgPqBMBo/PjxQkJBBYVaBB31ggULzPOYJ7QEOLFFJLYANmUXeQORiIpwrVywUGPuuktX3Xi9ylq1ShsUhg4danTiNNbgd7/7naEVKpNsgwL933777QZIAVloDMijMrTSGOsEjVl79gB0A3T5nnGj9kHyYg9wL3sJm5INXAOEbRwCz2MtUOuxxs8884zOPfdc8zv7BrrbPl5++WUdf/zxRrVmx5LuPq+K3figUDtGXJ/u8kHBlQdkQKFMQ3r30bXRiGa7VIGUwIEX4vrrrzcvI6dvCwowaxgUL/UZZ5xhGD4M2EoK6K3R+XLyR9XB9aiDYPgwW+srf//99xt1iDXywWiQFOwpHYaDnhjbA0wdSQGVk5UUACwYCeCEqyI6d8aBPhpQ4DMkEp6DKopx8WzGgbSCcRMmj3viWWedFQUFJCLmAkggOSDN4BXD6Zy+8WmvXn0UeyWckqjo3oKKuPUUapv7CPUROvSTTz5Zl19+uQGFRPVHtiQFvJSwNeB5hMoKJs3zWRc8kQBJPJhQN7IGqOQABQ4AqAsZJ+CFWnHAgAHGvoDaC1DApgC48Y99BdNHlYhbKbEFGKD5ibQJyHC4YD1YT2w/gAe2CcZgDw+ZYko+KGSKkvnrxweFJKBA7qM2JkuqWxs4Re8jXjxefPT3nOCst481HnOytydwPDxQ96DS4EXHgIz0AFOnYfAbPHiwOWGS85+o1jFjxpg+uYdTJtdyMoQRc+pDxcNzYRDo8TmFIinAdJAURo4cGd1pt912my6++GK9+eabpg8ajIsgJ5gGjAZVE8wcQzTXcT0qGYKX6BfAYBxcCxBxH1IAzAbpBOYHAOIhUxMoxHn/4hYccrKkmoR448cp0q69AgkpG2p6bWDKAC3qu6patkABQzEppC0QA8yo/FBfoX7jwMA6AagAN4cBDMH8Dg1R3yGN4SrK54AEAILEiBoQryJAHSC3Uc3WXfaVV14xKZ1GwQAAIABJREFUhxiS/OE+ijQAICBxAP6sJwcGHAvYk4mpMGqia3Xf+6BQF+rVj3t9ULDr4KqPkBRioJCeYZOXGQbJi4faxapJYABepsjLyQsM44Yx8DcvEy8v93IihNEDIDBaJACYBgyBkz6nPyQIm4+HEzqgYFUAMBBUPrzsXGsDkGAQtsGkkEj4zrqm4jHDqdL2Y91W6Z8xweBtY7yMhfEyVqsGs66x/OR0i2TBOGsChfjXwTE0h4ykMFwj7rtPalsipQkKqbxi2QIFvLtg2AAT4AgtANSLLrpIzz77rAEFVG0wcLyIoBE0RHXHWhJfAPPnXmxESAWsE3QFDOj36quv1qhRo8yhAikUWwn9I3XYiGeAhH2FwwPSA3sD9SWAY4PkfFBIZac0nmt8ULBrjTvqMjd1NuojTz2F+rgdqtMB10U/XJd7M0cnJIUKVcyZp7vvuFNX33KL1Kp12nEKqcwlW6DACd9KYxwA/vrXvxqbCwydUz4SAlKMPblj87CggFTnjQUBGFDf0QAMUlIgfaESQ7Kz8/znP/9pgIaGJxwusgA3YI5UB6AQJAdAod7kmdiwkgWh1XYtfUmhtpSrP/f5oBCVFJwsqX/v01eDx5Sq3RGHZ6TyWiqMybsdEq9P9/5kW6u2fdR0X03fp7vN41VIYWn9Bq0sW66Szp2koqK8JMRLdw72+ueee85EMyMJYKNBrcjpHXUSoIDqBnsL0qDXvoTXFtImTB11IteRjM+CAteiNkSF6AUF1EN4fmGn4B5iFDAmWymA75HWACE8z1BvoZ5MzOFU2/l6JUi/yE5dqZjf+31Q8EgK4dWrdcvZf9RFgwepY58+pkYzLRV31HSXMR2G6r02nfvSHVMmr6/NOPORVSRbkgI2FfT19A8jtpHdeJ95A784yWN7gEHD7JEEUCliCP7hhx+M/QZVEcZ+1JGo8mzgHOoiAhyhNSo87kMlhKoIAODUjlrKujMTpYxdg+egbgIciKHJZPMlhUxSMz99+aAQpbsT0RxcsVJFLZpLJgDNFIbMGjDkZ8k3oae6GT2dBcgGNMswbb/ITub2hA8KmaNlvnryQcFDeXO6tShQqaBLPs6x+doW9eC5AEIwqIryDSpu3lwqLMrKoHxQyCxZfVDILD3z0ZsPColUN1lSK59KKSsfyIoiKR/LXh+faUHXReVQSMGFv+qBcWP1l0GDyC6YlaJHPihkdi/4oJBZeuajNx8ULNWNb3xYkZUrFGjeQmreLA4cfDkh29vTCwpICSEFZ8zUqBHDZWo0t22XlfTZPihkdl19UMgsPfPRmw8KUN3UUQgrsmaN7rjgQp139VVq32vfLJmY87HMm9Iz3WprwVAseG3cOImgvk0oTmFTongmx+qDQiapmZ++fFCwdEdKWL5cV/ftqyFjStXh8MNcdYVvas791nSzpNqIZkChXXupML1gwlTGjaRAfADRv36rOwV8UKg7DfPdgw8KdgUIXitbpsG9+2rQmFKVDCDNBUzIVxzlapPGzDkxULh5+HANzSIokNqDuAEbHZ6ruTbU5xCdTwQ+Fdr8tmlSwAeFBFAY0stNiFfPI5o3ze1W/ajjbPxBch9NVxQUsqQ+Sjai2sRYNMT18OfUOCngg0JUfRSSVpQpCgpRScEaHfiZHV/5xrn1krJj98OAVBFUeMZ0JyHevWOljtgUslOn2ae/TwGfAjEK+KDgBYXl3tTZVn3kb5fsUqAKmw0J8WbM1MhhrvdRe7yPMm9TyO7c/N59Cmx6FPBBIao+ihibwqDevTXY1FM4IiO5jza9LVFPRhwKa+OChRo7erT+NmK41KJF2gnx6slM/GH4FNikKOCDgl2uSESRsjJd1bevrisdrQ6HZyYh3ia1G+rTYDEwlFc4GjskBJMQrz4N0B+LT4GGSQEfFDygoLWr9cR1Q3Xieeepxe57RIPXfKfUPG3+MNHl2ct7lKdZ+Y/1KVCvKeCDgnd5cEsNcjotkIqL3W98SMjFDk7q+GtJzwB8KSEXy+A/w6eAfFCoxPqpIO89nfpxCrl4TypRGSmhYqPEz6JCqajYB4ZcLIT/jEZPAR8UPFsgypiwLxhc8I+nuX5DomsQDGrd3HkaMfQ63T5+vNSSymu5Ho3/PJ8CjY8CPihYScGkzeZ0WiEVBpyTqa+zyNMbQXJCch/hkjpMw8eT5sJ3Sc3TYviPbWQU8EHBLng4rNDKlbqs334aPnq0uhx6iCIq8GEhLy+ETXMxU6OGD9UwkxCvgx+nkJe18B/a2Cjgg4JdcbKkLluma6M1mgeYcpyOAsm3K+T2xfDmPhrm5D7yQSG3S+A/rdFSwAcFj6Sg5WUavG8vDRpzr0qOHOC6pPreR7l/Oywo2NxH411Q8G08uV8L/4mNjQKNHhQclh9RAC8XsqT26qNBRDT7CfHy+C54JIVhbpbU9h0lP/VRHtfEf3RjoUCjB4XoQkfC0jJSZ/d2U2cjKfhcKPcvgiuZBUOKzJhhDM0xm4IvKeR+PfwnNjYK+KDgsSkYUOjVW4PuJfcRoOD7QObnhXDKcVaQEG/EcN0wbqwiJe0UyEKRnfzMz3+qT4H6SwEfFBJAYZBbZKdtXOrs+ruADXNkESkcUmjREk149mkNPP98qXlLPyFew1xsf1b1jAI+KERBIaLIsjJd3Xe/aDlOG8Dmm5pztWu9eS0AhoBMGGEAm78vteVqFfznNG4KNHpQiDL8cFjhdWv1wA036eRzz1X7nXf2Y9dy/m5ERPwgLRZNHjaf+aCQ88XwH9hIKdDoQQHPIycKIWBUFtoYlAoLpeKiuC3hRyrk4g3xSgpueIh5LKiQG0nBL8WZi3X2n1GfKeCDggsKLiw4cWrmqBq/bD4o5HIbk5QwLG2o0IbVq9SspERq0iSayjzbI/GBIdsU9vuvzxRo9KAQjVOwqxR2M6T63o953LfkPgoqNHue7rztH7rmtn9IbUp8Q3MeV8R/dOOhQKMHBWepgQbHDXLjokVqwsm0dWtC2vzcRzl7F7yymBO8FpwxXaOGU6N5vCJt22fVJfWuu+4S/+raNm7cqOuuu05//etf69qVf79PgbxQwAcF4MBkSA0rvHKVhpx4gq4YNUqd+/X35D7Ky9o0sodWBoXwdAcUhgEK7dsrQFnOLLUbrr9ew0eMqHO69ClTpmjixIm6/vrrszRSv1ufAtmlgA8KUUEhLJWV6e99+mhwaana+XEK2d151fbuTYjnpLnwQSGPy+E/ulFRwAcFe0CNprlwcx8NGODYnN1CO76JIcvvBbmnCiyVHVCITCfNxXANo55C+/ZZTZ3tSwpZXt8Mdl9Xp484X5K6dpbBedWXrnxQsCvhBYVSEuId6ccp5HKXOsEIsScGKxT5aYZRHw31QSGXK7EJPKsyJ/c9xjK3bD4oJIDCkN59dK0BBZs627nA33SZ23Qp9RSsUHjGTI1CUhg31pcUUiJaY7ko3eN9utc3Fjomn6cPCklBodQFhZhh0weFHL8owQqV/zxbNw4brlGAAh5hvqE5x4vQUB7ng0I6K+mDQiX1Eamz/Syp6WyiTFwb99ryB+VRV6zUp1OmqO/BB0nNmmY1eM23KWRiFXPTR1UsvlY5yny8qLRoPihYkoTDipSREK+PhpSWqsMRRyhCagXcVaOqbt/cnJvX3ujrpFDYseuwDixCFsm/qYHCypUrdckll2jFihVJl8TmjkLCraqlK/3SZ3X9ZXpv7L333rrxxhsrdZvIx+08oj4j5p2N3yyRSNj9zJlDIGCvTn9TrV69WmeccYbC8Iwkz8o0HTLVX0lJif75z39qiy22qLbLRg8K0Q3GApeXa9KTT2rfgw9Ws+229QSv1eoMkqm1bGT9eGkdizdP/9VNj2x1AQUvYyBO4bXXXtMNN9xQmZlVwUASGUsqjOaXX37RTTfdlJRppjfz+nn1unXrNG7cON1xxx1JQYEPk+0JMpnFhZwaB4bELpzsu87H6e+suXPn6uyzz9YTTzyRNvFSWdt0O021zyeffFJHHXWUdibZZzXNBwWXOGwNQ1y7SeL2ig8K6W7U2l/v0toEmZNzxJUUzM/0X+BUx1EdKKTDtNMJXkv1ZU42B0Dh9ttv15gxY1KdYvS69evXq2nTpipIYqPZsGGDmjVrVqlPTsX8KyqKTxTJhXxeXl6u5s2bR+9jbtETfCQi+uX7xBN8VYNfu3atRo0apZtvvjnpJZWlhXj+brLVRP/xF/bB2HtcF60RoHDBBRfozTffjBsbUtunn36qww8/3Mzz/fff1wEHHBCd81dffaXttttOrVu3NjRbs2aN+b24uFiA4Kuvvmr+hv4w7k6dOpn+v/zyS3Xs2NHcAx3pe8aMGTr22GPFWhYWFooxTZo0yUgwoVAo6fo+8MAD2m+//eJAIdkebPSgkPYb5d+QUQpUCbcwldXrNHPmT9pht12lwuKs5j6qi6TgJUh1kkIi4eoKCqgCSktLU1oPmA7Pa9KkiR599FGdeeaZWrVqlWE8P//8s1q1amX64fR72mmnCQbWr18/oaYqKyszaip+33777fXrr78axkfjOwDm/vvv1+WXX26Y0zbbbGMYHr/T/7Jly8z3PHOvvfZKabw1gUKyTowpyv1XLmnpkmXaYrMOKlJYBSqoKtdlSuPxXlQVKHDNyy+/LNRezPm7774zDBja7b///nr99dcN/dq3by/m980336h///5CrcOawMxp7dq1U69evbRw4UIDIm+99ZYBihYtWmjLLbc0IPLee++ZVCrsgd///vfmmj322EOdO3fW8uXLtdNOO8WBNP2yBqypLymku+Qk6DSpmr1CqC8ppEvG2lwfd3oLBbVx1mzdOHyYRo4bl/WEeMlAwZ7COB1XVFSYU3IwGDQ/+ZuTNqc2/rYn4HQkhfnz5+vvf/+7ybnESZATX6oNSSEdUOAZ5GWC8ZxyyikGIACAESNG6N5779XFF19sHs3nzMtKDEgjfDdo0CD961//ijK7ww47zFyPpMLv0IB7Odk/9NBD5tQL44OZwdy+//57o8sePHhwStJCOqBgpJJAQBWS1klauC6iZ995X2Xzf9Hwi89VG1dOiEkOMZmBOaQrfyYDBUvPb7/9Vv/4xz/MqR4QOPjggw0Qs7YTJkxQhw4dDGNHoujWrZt23HFHtWnTRp988omh2zXXXKPJkyfrd7/7nebMmWOkgQ8++MAA7eLFi9WzZ08joRx33HGG6aNe49qnn35axxxzjFk7xvfnP/+5kiSYTFJItt98ScFShY21Yb0+fvoZ7XPQQWq67TYJ26UuAmeqr3rjvi5GYSeiOTR9pgleG56HOIXZs2dr6tSp6tGjh1q2bKl3333XnI55URHxYXKcrvm+a9eutQaFrbfe2pwcOe1deOGF5oSYSksXFJ566inD6DlFHnjggUbt8NFHHxkmNHbsWJ188snmsR9//LFOOOEEk7sJwOA6mBKg9cUXX5hTJqdNq3oCUFCR2Ibkgi0A+tEXJ2QA9IcffjDMC/CEKdbUAIWRI0fqlltuSXqpjXVkz3C+Xi1p2uIVeu+b7/XF9F9UtqFC25W01IgLT1G7OFVSrDuvqRlgQDHGv5pAojpJYdiwYcbWw96BBkgDAwcO1A477GBAgX0znIDMoUMNYwcUAIzffvvN0Bn6Ijn8+OOP5rQPrUaPHq199tnHgKsFhUMOOcRIGYAC/cybN8/QmXs322wzde/evRLdfEmhpl3n+d5sjkhE4bJluqLvfho2Zow6chLKog47jeE1wksr5z7KdZqLZ599VieddFL09M4LPWDAAC1YsMAAAac5GFzv3r3N+sCkf/rpJ02bNk2fffaZMUTW1JYsWVLpOlQsMGmAp7qWLiggFSApoNaAUTN2gA5JBcZ+6KGHivHA+GFgW221lXbffXdzD/aCzz//XG+88Yb+8Ic/GMaFygjpAAYII7SqMPTaMKulS5cKwyZSCc/mek622267rTk919RqkhSc56EuCmj5+nI98vo7em/6L1pZ1FwVhU0Ma+9UFNFRe+6kNsH1sUzI5sHGguj+xNYQUmEkoj177qAdtuhSJ1CA2XNKZ854h3E6v/LKKw19nn/+ebNv+P6+++4ztAQUUMcBphw+oCkHBL4fP368OYQgVQDErBP7DXUfEh/9IgEiybGeABD9QWukk0T7jS8p1LTrEr9301wM6k3uo1K1JaLZGKf8lnsK5B8UeKlhaJz2YPScmGGSuCPuu+++Qk1Es6DAyZDTMAbAr7/+2pwOa2ro4//yl79EL+MUeP755+uPf/yj0Q1nEhQefvhhc/KEwcCUOZ3C5NFLP/bYY2a8M2fOVJcuXYzBEkDk5MkJFEBEukC/ze8wm6OPPtpIOP/5z3900UUXVRoq6pBFixYZgME+AcigWwdQd9lll5pIY1RPSQ3NXg/bQEQhBbSgbJXe+Wm23v5umuav3aiNBUWKKKzNmwR09L57qHW43HmTo/fylzVFO18ACrt13Vo7dO5U41tfnaQAw2f9UPWgzrFqN54C7XbbbTdDE/YV+wUAbdu2rdkzgDT0RzpA/cbegOask7U3AKpIAy+99JLOOussc0gBAGhIF9gssB9BY6/hn+99UKhx2yVc4AWFUhcU8MuuteNaugNo7Nd7nQnzDwq8wLjvwcgQ261+F2aK6gTm6gUFu3rp2hR4ydG7c8K86qqroi94TbshXUnB9gdjwHMGdQX2AECB+QEANEAPpgKzQZ8Nk+LUet5555nvMXCiLoP5PPfcc1G1U+J4rcEZUEEtgpqMZwJMdQKFuAc5XD6ogDAsr4hIL37wqd766ketCoe1TetmuuHC0436CGtNchdWByuACVRHgAOgV50KKREUEh0G2BscHJg384d5095++21jf7HtzjvvNGuBAR+jNECLlMmBABsCksGf/vQnQ2fox+dIekgUXM/+hPHzN43PAN1kUoIPCjW9UUk2lgmWWrZMg42kQETzEe4u8qWFtMhZq4sBhJiGFyjGphCe7iTEG4ahOcdZUnlRMRpyikNHi8gOI4SBIjFw0rPSg3fK6YAC6pp///vfOv30081Ln06rLSgg9aBigPHD3AAlGp5IiQ0vGBgMKiXoYK/DQAqQQSNoU10DZPiHFxKqE2iHYbWmVqP6KMrkncMEuycoCUXR3JUb9Nm0n7Rg5nRdduZAUS6roIqCWXGCR4JiqaoxVicp1DSvfH7vSwopU98VIwGFsmUa0ouEeDb3kfVXSLkz/8JaUyAGC6YLAwozNXLEMA0HFNr5qbO9pK0tKNR6eXJ8Y+qgEEtW6bikOoeLDe54kRCaur/XZEBOdYr5AoW6uDAzNx8UUl1he100dbaf+yhd0tXleps2Id4o5pbjnPWzbho2TDcACm3bbTJxCrmovFaX4LW6rFeu7q0WFKpwBIw5jgMNMQnfmpUZe9XAEO927hxRuL7yHbgSo7q57LLLckWOjDwHie+KK64wKrzqmu+SaqlDkZeyZRrUG1AoVdsBpM4ucL0q7EWZOmtkZI0bdifhsLRujRbMmastca9r0qxmX8E6UCSTwWu5AoXbbrstaRqIOpCh3tyKeosYiVtvvTXJmBxUSDl6KAoiqd7hXBe7uvJ7jzcWY9yUGrYH1HcEv/mgkMrKhcMKrlyhv/TfX9eX3qOtDjrYScQWt6F8UEiFlLW5JunhD2CwC5DFtNmMd1MDBSKG8fxBr99QG543RFdXbnWJGUoFGLz91+VZm+bK+JKCXTfUR4SZr10nNSmSTB4X38icq21d06tXV31qTfPY1EChpvn431dHgZp2W8K9aV6+qdO+0YNCIrMhPN24pPmBa/nf24SqBtz02QB0FgU1HxTyv9xpj8CmBedddRl3chtVfM+NjMenTdZGDwpRQcGb1tiNofcCRrZPqmmvXEO/IRRSZOkyffDuuzrwuGOlFi2yGmFe30Ahncys3j3M7w3tQNMw3j3XTmHSqnlN305Uttc1tjCms87LW+6DgpfsqJAqgk7ZxyQpgvOyQg3+ocl0vI73EQnx8D66afx4txxn9kSF+gYKDX7ZG8kEK0klCUZvx402oDWSvv5+mnbbaUeVFDrBdrR8AKIPCnZzYk/YuEET739ABxx9jFp265bVk2kjeSdSmGbVoGDiFEiIN3as1KFDo3FJTcYI8sEcUli8nFyyKc89qarK8yG/EnQ3dWW5bhszVlf85ULt1r6lTPYmN2NzriU/HxTstsbTZfkyXd2njwaPGWPKcRqkdo3N2Tuj5uS9qscPqQ4UZuhmMkqa4LWOseNTFmbjSwpZIKrfZZQCVdk68K9bFYropmcm6rv5i9S9S0eNOuN4tQnEb/dUfKYyRW4fFKIK2bBJc+HEKdzrxinYeq4+JGRqw6XWT0LuI9RHJqI5e+tQn0GhupNyJk/RJK578cUXU1uiLF/lnRc1CMjRtCm3eFCIxVmQs+mrX5fq1mde0/JQgZqGNuqK4w7RgT23U4sU0nhngyY+KCSAwpDefXStyX1E8JrV6zk/cy3GZWPB62OflU9BHlAYNkxDx413ch8VZs9FuD6AgmWE5CcixxLZTP/3v/+ZamVkJKVRmpFUyySXI7KW6FTqFJCXqa6Nymm77rpr0lz8de27LvdTM4CKZpt6i+1z5zdsCdSBuP+9T/Xal1O1oaCJiiMh/a5Le11z8jHqXJRV4bhKcvqgYEiD8g5JoUwGFErHqORIEuLFch9l8kS2qW/uTI+/WlBAfTSWhHgdpMKGLymQrZRMrNRm4B+FcUhKRwTt//3f/2nWrFkmgyZ/UwOY9MoAhq3nW5e1IQXCOeecoz333LMu3WT8XlJzU1ugITSvjYG8tEuC0sX/uk+rC5qqIlBoioa2rNigwQOPUe+uWxjbQq6bDwpJJIVBpWPUhiypWY6izfVibzrPcyWFGTM1chgJ8e5z1EepV6tMe6r1QVJg0BSneeGFF0wFNk7tFE6hFgEZSynAQhQzRW6o4EVqZlJaUwiHwjl8X5fmg0JdqFf1vcmMzXy2UdInP87SJ3MXaV1hE/0wfYa6d91eJQGpe+siHddvHxFCm72jUPIx+6Bg6YKhedlSDend11EfGUkhe+qK7Gy/TbBXyqB6hh314Q4FVf7zL7ppKDWacUlt02BtCsliEqjvS3puJAd06uTNp/ANJS5Jd03efQqznHHGGb6ksAlue1L1U1camwIZXVdIuvfhJ3XqySdru1ZFxp6AlOCcg3IbbueDQpykUKZr+/Q1CfHaHXG4IgGysPst2xSwgamW2IbmqPNWr9G8n2dr6x13lJo2yaqLcH2RFACBG2+8Uddee62pAW2rltm6BdgUqL2AlEAhnCOOOMIHhWxv0Gz07/J5vI8I3AcURj/4qE475RR1a91MpKzjSOqGvDkjiAa+ZWNAsT59ULA4HA4rvGKFLu2/v4aPvkddDjnEIDnNB4bsbsIoLiejdY4OSfUFFKDFqaeeauo0U4SHEotUP8OofNBBB5mCN9gYMLwOHz5C7733rlE1cU1d2xVXXO7aFPaqa1cZvb8h2BSqckl14hQiWqWA7jGgMFDdWjc3oGD5jgEGb8aFjFK3cmc+KEQ5UkSRcEirFyxUGzw9WlHiLo30vFleqIbdPds+okikcs6pVHLZ1JU2POPGG27Q8BEj4jzMkgaRuQ+r6qCQTuU1Lxh6Dx/Ue96hR3cVFhSZ0p/JWlnZCpWUtNGCBfPVvkMHtWjZ0jCR2LhsDWLnEzMXvq3mhHP5FX/Tueecqz332EsR97r6cCBqCKBQ1R51IpojWqmA7n34cQ38w++1fevmpjRovmjvg4JntcyLQ10FVqPSy5ijI2s1HC6THlCZ7KuuTNnKxrExkeDM9Qhz81A5MQrp2XjSmWNdJQX7LEDhtYkTTSrudFry02B1IUvx+zHd3ZmMNo6kcG4S76N0e09n5jVf2xhAAUlh/GNP6YTjj1P3Ni18UKh5W+TmiupOU96y8tkYDZW0OnbsaPTIZWVlKikpMa6J3kYReWrlBoNBc4Ks6hSZyvhQR+DVQkNNQUust0uRcFwiy8vLM+IHX/O4PMwnHFJoyRK9+sKLOv7ss5xU5rU0/LOueOg0bWoLM1YeSTqgUB2LrA0oWNyzo6JGAnEIc+b8Yuopr1y5SltuuaVZ+7Xr1unXhQsVweaigKmtjDcShujqTqOJp06TgNZzGuX3qr2Psr37q98ZDR0UQopojQIqffi/OvGk49WzpKUPCjUzixxdgQdSRYXDfKhOZIPX3MdnU5z7xz/+YfS5m2++udEb444IE8PLBC8UXBBtAfRddtnF6JF/+OEH7bvvvikVQo+qEFw7CTrrww47TPPmzTP+8DQqSVHUBAZE43M+w9iJPjsTAVKpraTjkloxY5ZGDR+m602aC8pxpicp2GcBascdd5xGjBihfv36JR2CBQXq7z711FOG0R5zzDFGnfTaa6+ZucOgZ86apWk/TtPWW28lKll99NFHxl0UgCWIzKiPXn9DI0YMT22qnr1lweaX2bONOujBBx/U8ccfb8awZMlv6rvffqZqVgRp1lwccfbKLrupeYt4ULCSRzK7GLl25q9ap/ZtWhgPF/TXHD8AhXOriFPIp6zQ0EEBm8JaQOHfT+iEk07Qjm19UEjr5cn4xVZC5+S1bp2eu+UfOvL0U9Vy111yptXj5D948GCdffbZxrAIMDRr1ky9e/c2033llVfUp08fjRs3zkgSAEK3bt2E5ABDsoFLnC65r02bNuY+pA/bF8+wfux4uMyYMcMwf5ggoEPjJLrPPvuYACnazz//bCQFGCTXwSSz1SopQ4JBhWY6cQojDCiQ5qL2oNCjRw8DgIcffrj+9Kc/6eijj44DU6+kcPLJJ+vZZ5/VwIEDDVAfeeSR+uSTT9SzZ0998P774vs5c+dGI4sBV6S7LbfaUpOnfKaJE9/Q8OuHJpgKE48UsRkbyxVKfPN/sm0FdM011+iQQw4VFdbWrl2t7t27qXfvviJXuvwRAAAc3klEQVTamTXZsL5cBYUFmj37Z2273XbaZdddVdK2RFgOnOalaOx35Iu1kq4Z/4S23XIr9d+lh/bcdnO1LJCuueIK/ckPXsvWFk/ar7UpOJKCAwq+pJDTJajmYaGwIiuW64q+/TR0zGh1POxQV11RnV43M4PnReeECePq2rWr8TRB5cFn/D158mTDmHFBhOH379/fqJq4jpMiwIBr4nfffWcYBidWwGHChAlCquCUe+edd5p0CevXrzfSwGOPPWb83pFALFigLgJ8UEncf//9hilySua6b7/9Vr///e+N6upf//qXUcdwgrWG4NpSIs7DInpqjqgoHFbrsjK99dprGjBwoMqaNVe4loWPQqGQ7rrrLgOiNNRyO+ywg+677z4T9EVLBIWHH35Y5557rvEEYt4A7uOPP66SNiVq3qKFzjrrTHPfSy+9ZCQuPsPnfNJnX+m1N9/W0OuuiZLEqx5yTvAx71rHxO60gojUNCC988qr2rzTZmrRsoUKAgF9//0PWrpkiQaecoqhP2u8bv16LfltibqTzbcgoE5dtlR5gbTR7cySKnH3ojYyoDD2SS1bs05NC6QdunTUuUcdrrEjR+gvZ5+hvXMU0WztGjXZfhqypMC6A9Sku7jviad19DFHq0dJK199VFuGktH7UB2VlWlQ7z4mTqEtEc1Gh519wXnmzJkm1w05bWDunNBRH8HEOnfurFdffdVIDahxYPxHHXWU8VXn9E6KA5g4Ngh+tm7d2kgHNAADlQdqDhjgn//8Zw0ZMkQ333yziYw9/fTTRfF3cuwgPQAQl1xyibmXFAowIAtMXGsb36GSyURLDgpSQTik4gUL9NhDD+nCK6/SylatjIuwZXLpPJt5IB3A2Gm77babzjzzTEMPADURFKDvyJEjDbg+//zzOuGEE4w09dFHk3TWWWfr++++1w9TfzCAwdpYUPht5Wo9+9Krmv7zbB1wQHI1VeK4vaF70GLzdm3Va/fdNeXjj9ShQ3sVFzcxa8c62fbQQw9pq623Vnn5RoVDIe1/wP4qbt5CH335pdaWEyfrlUpcihlJJGKAdX1hEz391UytDCGVhNU8WK7uzQs0e/KHuumaK/W7PXaPwnM6dM7WtY0FFP79zAs67IjDfUkhWxsp7X4NKCzTkF6Awhi1yWFEsz1tX3311YZhw5ytTYG0B5xasR0AHADIsccea5g9oABTAzyqAwVO9ZxoUYV4QQFAIYcOEgQNUDnrrLOMlECiNb7nVMq9p5xyipFWctMiUiio0PTpGjl8RMbUR0haqOBQ0+HrT7NJDpOpj/gepj9gwABNmjRJffr01qdTpuiAAw8y6iRA44033jCg0KJFC5HL5pMpn2viG29q2LAhtSIVx5AmAWn+3LlmTTE6A+5IazSC11Ax4ja6WafN9NZbbzoBbJttZqSEmkDTSAoB6a/j/qvla9epaSCi/rvupFMP7qd/XHu1Lvrj2dprj92dtF8OhWo1j0ze1NBBgTVDUnjgmRd10CGHatcOreLiFDJJy1T68l1SLZUosrOizIBCNM1F1AUyuyokvH9IX7D33nsbZgNIoOJA7QNTJkEZNgBUP6iSUPGgH+/evbuRGPgdQyeqJZg8Nga+Qx0EiCBljB492kgEGK9RnfA8VFAffvihOUVzH6dhDLLYFFBb2Rw8BEZxYsboid0hGy2ZTSE8fbpuHk6W1HGKtOuoQC2zpCIpPPLII0YNZCWDxDncQJzC8OFavny5CQwDHFkDgBL68js2BehGQjrABJp/+umnhnnzHXOYjKF54hu6/vpUDc1WgeTYSyo2btTChQu0dMlvmj17jglKo388zbbfvpsmfThJhx52iN5++23tseeexuvo+QkTdMD++6trt+3NGLBJoJKINfsMJK2A1ku69t9Pq9vWXXTA7jurZ6cOJsfO1R5Ds+OJZzHB6TVfraGDAnEKqxXQA8++rL77H6C9O5c4RXbyRHAfFLygsDwxS2puXgR03l73U1Q54XDYfGb1/Zz2E/X31blYevcTjA59+AUXXGBsDTSrx+VZeLSgDvI+j+fzGdfnImV4UkPzjJkaNWyEW3mt9t5HVb1bXl22BYV05pp4VDB2oE8/1cTXJ+qGEenGKTjBZfTBfnDGZpWXzufsBTs+rrEuyYljtjaM+PE5Lqw8BWlhWTCiZkUBsRtsoNSV1Xgf5Yk/mcc2fFBw7DwPPPOC+u5/oH63ebuopJB95XXllfVBwdLEtSkMdm0KJVGbQj5fh8bz7EqbPxRSxYKFeui++3TRtddKLVvWu4R4yV7YyVMma+LE19MKXktmaAWQmzZtomDQYf5VxaQgDZIwr+YWG63j8eLGaLo38lmiS+rPs2YZu1LLVq3MM+bMmWMAC883VHGoNknOh92LRiT2xIkTjYcX9ps99tjDSKOo2Pbbbz9TGwIpFldnVHg07Gh8f+ihhxppmL6QlkkJbltDBwVojyXooy+/Vrcdemir1i1iNZpdIuRSavBBwe48shaWlemaPn01pLRU7Y84rNbBUjW/oP4V1VLAuuhsrFAkuFEBgs4KY3Ej2aBeOsFr1T2/NmkukvWHYfnvf/+7Uethr7D2HJgu6j3sGAQbPvroo4aZZ6J5g9cAABg2dhPsKTwLyRQVJVIkzgt4zeHCjIT57rvvGtXie++9Z2xUxNdceeWV5jukXNSgeK3B9FFTot7ExoV6Dtdp1GSADLay//73v+a7xgIKzBOQRo0EVCcmQM+1tOCDQhQUyMq5Snefd6HOveZqlfTuFafVq8ltLhMvpd9HAgVM+lQ37UiWddr1BRRgoDgUjBkzxhiX7ekZ2wE2J/7G+wumic2nb9++RqVkbBp1TJrmBQVsV4CAdUIguPJvf/tbVP24du1aAwqMica4MYCT8hsJgdgOGpIGqkuM4dhB8IxDUsC+g/QDwAGkSBe4WKMiQ92JY0PjAoUY68+N0rpqbuODgpc2wZC0arXUopnk6t59Rp1HCmTXvh83sfoACtZmhNsxNo7bb7/dqFKIKxk1apQuu+wyw1gpvIN9iFM2Tgo4EVx//fVRBl7bFfOCAl5XnOqRBGiDBg3SrbfeauI9UAXhHWdBASmAIDv+3XTTTcZZgd9pGOxxUjjggAOMBIDTBGm/AQ2kBRwAsFsdcsghxoCP+y1z89rLGrr6KHoudX/Jpaoo2V7xQSG6Im5EUVwimlwLbrV9nTf9+yrxf9ahIugkxsPrqLAoq+4Y+QSFxBM+KUg4TZ944olGrYIHGeoa3JLfeecdc5omloV4CuJSAA5iKeravKAwffp0w9iJ6bBpVpBKGCtecJz4vZICp3ykGD478MADxf38xNvr6aefNkCBignmDzjg8Qag4W6LagqwWLx4sVGHMS+kjcYkKTi+xC6/yTMq+KDgfZOsuoLPoo7aeV6hur7pm8j9lUAhFNL6BQt1y8iRuvGuO6XmLeqdoTkZaetqU0B1BOMlzQbqGqQGfidvE+oW4iyIwn7zzTe1++67G909en/UM3VtXlDAoIx9APBBjYVtAPdbDMcABeolJBVcomHgXE9uLlRFSAGc+vFqW7RokbEZoCYCIJA+AA8kDYzUqJ343qqhUJsRF4IUkQtQeOKJJ4zaKt/NcBlPnGG+xoMrug8KHkmBegrrFv+mlu3aOlk53Xw0Zr3qqK/N1yLn+rkZ0/gEQwq6uY+chHhta537KBUa5FNS8I7Puprec889xkOHkzRMCyZJvAleP6hfeHmt/p0cVltssUU0B1Yq8012TTZqNGOUti7XSD8EXNIwngNu2CbwoLKu0tY1mvnkAhSg4YsvvlhbkmX0viRx6Bntv6bOcE/HGcAHBUspKq+tXKmrBxypa2+/TZ0POMCkVWChMsboaloV//sYBYIVCk+fabKkDhs3VmrfoVGAgiUA2WmJuoahwlgx2JIMkZ+ob1An0ez3nOQ5mdelZQMU6jKeXIACNIMZ1qXV9cCYeL+1LdncYunEztRlHtiGSGfjg0JUUghLy5bpmt59NGTMGLXzxCn4oFCXrVabe53U2eHpMzwRzR1qHdGcygjqi6SQDoNJ59pUaJAPUEhlDtk0NNcVFFIZfzLaA/pIS+ncb6/1ZjxOZV1TvcYHhURKYU9YtlRDevfWoFJyHw1wQvs9NRV860KS7ZVYISbVHRgFY/eXOOI6oBCZPkOjhg83aS5EidRaps5OZUj1BRRSGWu2rskHKES3QTXq2foGCqjwcAAgCzGqO+wuuNBaSY3MwhjUMZpjN8GAjvHcW8QK+wwSCvU9TCLLNm1MPMj+/fubwD+8skifbhuqN3KcoULEnoP60AYNev/GwI9kSbxHus0HhUSKUbhk+VJdt08vDSotVevDD3cMmzAisqUaw3PY8YYxRU6qyD7GddzDP+u8FA6b+s8mg4wVO+zzTfkr7iGLpQeBzHN4nmegbtoDPjGKLSqzmXvc8TAu/lnffs+9puaueUaBAraCmXlGqJq5uGVJTSlMtxHkF44gYlbOvmbnYuZTGJs/tSpQg9gMOpVo4F5fQBoGEjFEpPIKCfXR9SN03XhyH7VvFJJCui9yJq/PJyhUN4/6BgoUtyK4j6zFeFWRDwuXW0CBUzyFl8hPhhMA4ED8BvYTVH44DBCjgQcWdTm4BwN9n/36auoPU1VcVGQCFmHsPXr2NKrCvn36GA8z1EgkqYTxY8DHwYB/gAieYuTIwj6DQwLXYsxPp/GsM844w1cfRVVD6G1XLtewvfZWr113VUHnTtpYWKh9zzpL2/XdTyoqlmBuCxbqkVtuUeuN5So03koO73MKnUe0rrBYB559traiwpebvGbWO//Tl089qSJTQhGGGlsqUhkHO3TQ76+4QkWdNnMAaONGvfffJ7Tko8kqigTjrucxoUBAa4qL9cd/3S01JXVWxLmntFRLpv2k4pDznCgfD0gVBQVq1bOHjr7oYqlVKwMeGxb9poljRiuyeJEKop5XFgACChZI3QcM0J7Hn2Aq0UUCEQV/maPH/3G7WgcrVBgOO2NzwSockDYUFavfwIHa9uCDHWAMhbRi6g966557VJwESEwq5+bNdcj556vLbrs5QLdxo754+WXNfuFFzVqyRNc+8TgVgDYZSYGTInEGm1qr76BQlaqlLo7j2G3wgEqn2ZoiAANeU3haUZ8EzynGSEJFJABO8CS15BnUNYFR33333eZ6gMLGgBCYyH0wejy38OAimpyMxkXFxaamBrEpGMWJKEei4HpsTMSM4PJLckaAAcaOVxqZls8///x0pmWizn2bgmGdzpYyJ99QhaY99bTKlyxROFCgYEFAXQ8+WB133EkqKnL0f0uW6sPnnlOLjRsdUHAZouknENGGgmLtdPAharfLTm5EdES/ff2tfvngAxcUnHWyLmgw0mBJiXpRdhHGB5AEg/rxgw+0ZuqPKoyEDOM1PNutzAUorC8u0v4XXCQVu0HxFRs17dVXtGreAlOgJgo87viYS9Ott9IeA4503DsjEQXLVuibV18x2WGRYLyVeHlcqCCgznv9Ttv07iMVFRrgiyxarI+ff0HNKtz5u9jDsEOBiDYWFqvn/v3VbtfdFAAUwiGtnztX37/8kgrDhkRRmhkYDUjlTZtp58MPV9ttt3NiEioq9PNnn2npF1+o9ZZbaieiY02N5uwp8AgK4+XKROPFIiPtptbqOyhURc/qQMGVm6MZRxN3UG1AgZM83lLEZOCeC6iMHz9epaWlRmoglxN7AOZOzihsB3iPITUACpzu+dwW1sKlFwZPISukCbLyEvBH0CLXUVfj7bffMf0QK/Lkk0+auBSei5cWkgZgQJoQGhIDHmrnnXdeWlvQB4XYOdr9zd0uqGy8zapEHKWGy8wtl/ZuRwcUBJfntI8qxM106XD0uMN7fPEezzOiF1Y6VXv8oFyOb/JqeovZI4mYt8BT2quKucTGk6CiSraNYMaJqq3EzP2GFHB9o6dKYODQi+fYokVRvPQgZMx+E1WHGbJFjITgTCl7oJDW29NAL94UQCEtw6ybU2idu904PuGfxS60O6k2hmZiSW655RZTcwTGS2oPVDaklicGAzdi0tOjZiIfFBIAcSQEGqJyonIi8yDWhAA/fieGA1CgrCuSBAGMF198sbEj8Jyvv/7auByjOsI2wb18D6hR/4SiUdbdl2fwLIpApdN8UEiZWvG+RyStQp/vbCqbazKZh3F1DCyJP1NaBlt7/oFZxgAg2RPT8pxKPHK5kpCHcyenWvS+BHp4pILEsSU73cWSO0dzRqe8Sv6FdadAfQcFu+tTnSnXk5L6sXc/1uq169Vvj120+9abm9oRhS4wNKmFSypuwBiCOZljF6DwEUwYVRLfIXVSHAk1DqBDcB71zdH9IxEAKjSkCtQ/xGbA6GH8GKZh9EgblIPFRoAKCvsExm36RQrAOI0kgQTC85AgUDFhfEaiQJWEQfyggw5KlVy++shSymvzjDIu14aa7GAaz4Qta3NtC57TbF30nN5VtM9DtUPxFO+44xlt/BNjf1UHC5GoEOPMNaFHK+lUUe6j8hyrhyDvKc9LOa/aythcrFTlSwYpv9CZuLC+gwJ1IIgoCHqOY9Gt4hIgfl85oPDIO5/ova++V9PiIm3Xoa3OPvIw9ejYWkR6NK8FKPAoXErNG+PuUU7ZqH7Y43gVWWMvKh6Mxqh0bI0Uew8qH+wJtj9sBgCEfU/I/8T99Ev/AAzXoC6iL37nOwCCn0gV2DnsGLBjAFapNl9S8GwiS7S4836UIVZmlokb0bnfYbB2weMYZgrH9Zr0og6ztCokjyorOg/7fXQ0nuuTzyHRfSi+hxqiuJMOuHoodIJyUHlVtl/YUcfWIBXZItXt7l+XCgXqOyiURyJ6+8NJqkCVa0pOO3sEB4jo765nXsQkoi7QhsImmjR7vqb+tkLhQKGahTZqs8gGndxvHx3Zp5faNG1S5+C1VGi7KVzjg0K1q+SVH5JBRppLbHXj1sqaeCJ3u/NYDaopxZccYZKf2rOsg0+CASngX8KZLkZLW8TeKufiqZwp2SvNtWtEl9d3UEBCWFW+UUFj30Oc54DB79irjBeG691XoEjAAYW1gSI98d7H+uDbaeZY1aogpLOOPFR9u22tjk2L1BI30jpGNNe0RezJn1O/rQ1e0z35+N4HhSRUT43teNheajd40mR4dO7Re1Nkoyk+K53N5HRZg8rHA1hV900f/HMywSdCas0Wl/j705mDf23mKFDfQYFdkuAGUuPRjgTeD7/9sWbMmadeu/TUgF57qk2BY3DG8Ny0uFgbqwAFVDTo5WHqGH9pZIzFLuANREt1Be644w5TNwLvJWIIUB1hREYNRJp0CifRUAER90BMAg2jNtczDqrX4WqK1xP2BVRMzzzzjEmbTkU8MurC3AmYI/MsAXYYsxmzzaFFwF2y5oNCqitZ6boUmXj0Pu/1roqJ7+qRvpxTl2OzqEt5j7qgViqgUJf+a73YjerG+g4K9sBhJOoUElSyY7BB/LpmvYqLm6h100I19dSkpp/qvI94Bnp/ihoRkUzDgMvnyXT1MGk+T1Y6FcYNkwZMiHMgVxVGZBg50g6MH8MxDVdXDMd4LvEsYl5wY6UBClS0Iy6BKGcKEhEPQUAcmWgBGL5jzPTx1FNPmZgJvJtsXERVm9oHhSpf95qYTzyTrznJfzyIpLKZ7dAqX+sdWxXgVC1mxZ/hnb+s0grhOhEUagLA2Hi8Pbua3kqG6+o5bPV0jzdGNypenbPJbgqgkIwY1e0cr3Rhd7dXck3FJRWXU4LKYObEFnBKh/kTT8D9GHjxEHrllVdMGgqYsrcBJLiPUgiJEzyGaP4BOMcee6wBB1JlIDngfYQhGQbNM/A0wv0UQzWfoYLq0aOHiTwmkA2PJr7nPiQbPI9IZw4oIN289NJLxvPJJlTEkF1VmnUfFKoFBcssa3ofawIQ50TjCAbp6/erBoWqFTTVPy8ZKDhzTTx9OUZzr3dS9Q6vlUdUmTap0KIqGKqZ0jWtlf99TRRoiKDgnXOyvZUOKNCXdQ2F8XP65xQOw8b7h/gEpAGkAG+D+RPtTH4k3EppNvMtTBxGTWlV4hBIh0G8ASd7qz668MILjWoJl1OKGx199NHGFRVVFnENqKN4Pv+4z4ICqTaQFAAP+kWqQA3lq49qehP8730K+BQwFKgOFNKRcDNNznznPkJSoPAPBzsCw2DeMFZO6SS2wz114MCBhjmj5kEKIHaBSnk2SR51ClDxIC1QVpVGXIKNOqYv63aKiggQIOYAKYNAtkMPPdSoiTj9kwwPd1OeM3HiRJNniTFRFAn1EcCDpIC6iHFwLcBAvIQPCpnenX5/PgUaMAUSQSGXQBAXw5JgL8gXKMB0P/zwQ5OHiLQSBKYRcMYJvlevXqa8KEwbdQ5ZSQEMjMQkybv33nsNCNhTuQWFyy+/PAoKGLEppGQbJ3kC21AZnXPOOUYVhLoJIzHSBzmVrLqJ9BcACQ3V0f+3d/a4qcRQGJ1X0rMNNsMCKOmQqJCoEQ0FDTUS1XQ0tCwDiU2wAtK8pzOIaJTwFx527OFMk0SA7TmX+Btff7a5WK/AZ5m8RhQYzSBYjCY42pVRjqLQ4H9gb00CryaQa/rofzg8kj56pnwE45n9rzgFjk4dobl0hRRq5xSeibSfkUCDCVwSBfLd7OiJE6Z+kZbgSfh8YXfkiZqUSf1ik0Fy6ZwtwJYO9bOXKYP9gch3k5ohl87vX6/fGCk8Mv9FO8+ddMjOul5Pnc2r61QUGvzP7a1J4BkCl0SB9Ai7feKvxxNPCoUFWPP5vJjNZtVmbzhy2Odnt9tVP0m7sCHcdrutJkbJcVMGqQvslv1+v9jv95WI4NZBUHD0LBaLYjAYJCEKz/B7xWce7ejvidG9ci69rii8IoKWIYEGEbgmCmVZVk/75LURBZ7qp9PppyiQSyenfjgcqlw7YsBiKjZqw15JOgThYDIWYcGtw5kTbCjH32xDjX+f1AlbS6cwUmhQWB++FUXhYVS+UQLvQeCWKODTZyRAOonJ0/V6XYkCk6VYI+nYeeJnp1D8+zhe2Eaajp/RABO2iAGOGyZX8c1zMA2vMZqgjHa7XVk6Y4oCbh2snl6cbfVRjMdjT17zyyABCZwI3EofseAJSyQjBeYF2D4BUaDTJxWEN56RAp58OnzEgRQTYkJKiQVapJCwWjKaYFSAr56UEnZKbJf477FbxhQFRjyku7xO8yM4q/78Pc+oSEUCEnhrArdEgUNczqkjOtHJZFJgs+TJn/kD5hbw8+Ojx5KJOHAgDPMJdDFswcBogUljUkp45rFckmZCWJbLZXUoDCuDY4rCWwf8ys0rCn4rJCCBmyMFRgW9Xu+TEgu2WCg1Go2q/XdwDfGESYfOilouhIORA2klfvI6fnlGBBwewzwDi7QQFNJOTEAzL8H7SSnVdwAI6T4y9N8JKAp+KyQggauiEArNPXdMvV5FIVQUTuV+jYWiEJa3pUsgGwLvuHgtm+BEbKiiEBG2VUkgZQKKQsrRidc2RSEea2uSQNIEFIWkwxOtcYpCNNRWJIG0CSgKaccnVusUhVikrUcCiRNQFBIPUKTmKQqRQFuNBFInoCikHqE47VMU4nC2FgkkT0BRSD5EURqoKETBbCUSSJ+AopB+jGK0UFGIQdk6JJABAUUhgyBFaKKiEAGyVUggBwKKQg5RCt9GRSE8Y2uQQBYEFIUswhS8kYpCcMRWIIE8CCgKecQpdCsVhdCELV8CmRBQFDIJVOBmKgqBAVu8BHIhoCjkEqmw7VQUwvK1dAlkQ0BRyCZUQRuqKATFa+ESyIcAotDtdotOp5NUo4fDYbFarZJqU5Mboyg0ObremwR+QKAsy2Kz2RStVusHnwr/1uPxWNA2rzgE/gGgcQKxTpYwMwAAAABJRU5ErkJggg==;" parent="1" vertex="1">
                    <mxGeometry x="150" width="665.79" height="890" as="geometry"/>
                </mxCell>
                <mxCell id="3" value="" style="triangle;whiteSpace=wrap;html=1;" parent="1" vertex="1">
                    <mxGeometry x="-190" y="410" width="60" height="80" as="geometry"/>
                </mxCell>
                <mxCell id="4" value="" style="triangle;whiteSpace=wrap;html=1;fillColor=#a0522d;fontColor=#ffffff;strokeColor=#6D1F00;" parent="1" vertex="1">
                    <mxGeometry x="400" y="740" width="60" height="80" as="geometry"/>
                </mxCell>
                <mxCell id="5" value="" style="shape=partialRectangle;whiteSpace=wrap;html=1;bottom=1;right=1;left=1;top=0;fillColor=none;routingCenterX=-0.5;strokeColor=#000000;strokeWidth=3;" parent="1" vertex="1">
                    <mxGeometry x="-460" y="-160" width="180" height="730" as="geometry"/>
                </mxCell>
                <mxCell id="10" value="eventLoop" style="whiteSpace=wrap;html=1;strokeColor=#000000;strokeWidth=3;" parent="1" vertex="1">
                    <mxGeometry x="422.9" y="240" width="120" height="60" as="geometry"/>
                </mxCell>
                <mxCell id="14" value="process()" style="whiteSpace=wrap;html=1;strokeColor=#000000;strokeWidth=3;" parent="1" vertex="1">
                    <mxGeometry x="-430" y="280" width="120" height="60" as="geometry"/>
                </mxCell>
                <mxCell id="18" value="parse_head" style="whiteSpace=wrap;html=1;strokeColor=#000000;strokeWidth=3;" parent="1" vertex="1">
                    <mxGeometry x="-90" y="230" width="120" height="60" as="geometry"/>
                </mxCell>
                <mxCell id="21" value="run" style="whiteSpace=wrap;html=1;strokeColor=#000000;strokeWidth=3;" parent="1" vertex="1">
                    <mxGeometry x="-430" y="460" width="120" height="60" as="geometry"/>
                </mxCell>
                <mxCell id="22" value="modfd()" style="whiteSpace=wrap;html=1;strokeColor=#000000;strokeWidth=3;" parent="1" vertex="1">
                    <mxGeometry x="-430" y="100" width="120" height="60" as="geometry"/>
                </mxCell>
                <mxCell id="23" value="close_conn" style="whiteSpace=wrap;html=1;strokeColor=#000000;strokeWidth=3;" parent="1" vertex="1">
                    <mxGeometry x="-430" y="180" width="120" height="60" as="geometry"/>
                </mxCell>
                <mxCell id="24" value="adjust_timer" style="whiteSpace=wrap;html=1;strokeColor=#000000;strokeWidth=3;" parent="1" vertex="1">
                    <mxGeometry x="20" y="530" width="120" height="60" as="geometry"/>
                </mxCell>
                <mxCell id="25" value="http::write()" style="whiteSpace=wrap;html=1;strokeColor=#000000;strokeWidth=3;" parent="1" vertex="1">
                    <mxGeometry x="-430" y="380" width="120" height="60" as="geometry"/>
                </mxCell>
                <mxCell id="26" value="" style="triangle;whiteSpace=wrap;html=1;" vertex="1" parent="1">
                    <mxGeometry x="-530" y="270" width="60" height="80" as="geometry"/>
                </mxCell>
            </root>
        </mxGraphModel>
    </diagram>
</mxfile>